<svg width="125" height="56" viewBox="0 0 125 56" fill="none" xmlns="http://www.w3.org/2000/svg">
<path d="M0.493896 25C1.74463 32.9655 14.0957 49.5172 53.4939 52" stroke="#CE3D96"/>
<path d="M61.9718 55H60.4998V43.8H67.7958V45.016H61.9718V48.616H67.5238V49.832H61.9718V55ZM72.7175 55.24C71.9175 55.24 71.2615 55.0267 70.7495 54.6C70.2482 54.1733 69.9975 53.6027 69.9975 52.888C69.9975 52.1733 70.2375 51.6293 70.7175 51.256C71.1975 50.872 71.8322 50.6213 72.6215 50.504L74.3975 50.248C74.6855 50.2053 74.8882 50.12 75.0055 49.992C75.1335 49.8533 75.1975 49.6667 75.1975 49.432C75.1975 49.016 75.0482 48.696 74.7495 48.472C74.4509 48.2373 74.0455 48.12 73.5335 48.12C72.9255 48.12 72.4562 48.264 72.1255 48.552C71.8055 48.8293 71.6349 49.2133 71.6135 49.704H70.2375C70.2589 49.2347 70.4029 48.7973 70.6695 48.392C70.9362 47.976 71.3095 47.6453 71.7895 47.4C72.2695 47.1547 72.8242 47.032 73.4535 47.032C74.4775 47.032 75.2455 47.2827 75.7575 47.784C76.2802 48.2853 76.5415 48.984 76.5415 49.88V55H75.2295V54.616V53.96C75.0482 54.3547 74.7282 54.6693 74.2695 54.904C73.8215 55.128 73.3042 55.24 72.7175 55.24ZM72.8935 54.168C73.5549 54.168 74.1042 53.976 74.5415 53.592C74.9789 53.208 75.1975 52.7067 75.1975 52.088V50.952C75.1122 51.08 74.7975 51.192 74.2535 51.288L73.1335 51.496C72.6002 51.592 72.1789 51.752 71.8695 51.976C71.5709 52.1893 71.4215 52.4933 71.4215 52.888C71.4215 53.2827 71.5549 53.5973 71.8215 53.832C72.0989 54.056 72.4562 54.168 72.8935 54.168ZM82.9833 55.24C81.9593 55.24 81.1539 54.9893 80.5673 54.488C79.9913 53.976 79.6926 53.2987 79.6713 52.456H81.0153C81.0366 52.9893 81.2179 53.4107 81.5593 53.72C81.9113 54.0187 82.3913 54.168 82.9993 54.168C83.5326 54.168 83.9593 54.056 84.2793 53.832C84.6099 53.5973 84.7753 53.288 84.7753 52.904C84.7753 52.2853 84.3273 51.8907 83.4313 51.72L82.2633 51.496C81.5273 51.3573 80.9513 51.1013 80.5353 50.728C80.1193 50.3547 79.9113 49.88 79.9113 49.304C79.9113 48.8667 80.0393 48.4773 80.2953 48.136C80.5513 47.7947 80.9033 47.528 81.3513 47.336C81.8099 47.1333 82.3273 47.032 82.9033 47.032C83.8313 47.032 84.5619 47.2507 85.0953 47.688C85.6286 48.1147 85.9219 48.7227 85.9753 49.512H84.6153C84.5619 49.0533 84.3753 48.7067 84.0553 48.472C83.7459 48.2373 83.3299 48.12 82.8073 48.12C82.3486 48.12 81.9806 48.2213 81.7033 48.424C81.4259 48.6267 81.2873 48.8933 81.2873 49.224C81.2873 49.5227 81.3939 49.7573 81.6073 49.928C81.8206 50.0987 82.1513 50.2267 82.5993 50.312L83.7993 50.536C84.5353 50.6747 85.1059 50.9253 85.5113 51.288C85.9273 51.6507 86.1353 52.1413 86.1353 52.76C86.1353 53.2187 86.0073 53.64 85.7513 54.024C85.4953 54.3973 85.1273 54.696 84.6473 54.92C84.1779 55.1333 83.6233 55.24 82.9833 55.24ZM89.409 55V43.8H90.769V47.816V48.328C90.993 47.9653 91.329 47.6613 91.777 47.416C92.225 47.16 92.7157 47.032 93.249 47.032C94.177 47.032 94.897 47.3147 95.409 47.88C95.9317 48.4453 96.193 49.224 96.193 50.216V55H94.817V50.392C94.817 49.6347 94.6784 49.0693 94.401 48.696C94.1237 48.312 93.665 48.12 93.025 48.12C92.321 48.12 91.7664 48.344 91.361 48.792C90.9664 49.2293 90.769 49.7733 90.769 50.424V55H89.409ZM101.595 44.088H103.323V45.912H101.595V44.088ZM103.307 47.288V53.864H106.475V55H98.2668V53.864H101.947V48.424H98.9228V47.288H103.307ZM111.685 55.24C110.949 55.24 110.293 55.0693 109.717 54.728C109.141 54.3867 108.693 53.9067 108.373 53.288C108.053 52.6587 107.893 51.9387 107.893 51.128C107.893 50.3387 108.053 49.6347 108.373 49.016C108.693 48.3867 109.141 47.9013 109.717 47.56C110.293 47.208 110.949 47.032 111.685 47.032C112.41 47.032 113.061 47.208 113.637 47.56C114.213 47.9013 114.661 48.3867 114.981 49.016C115.311 49.6347 115.477 50.3387 115.477 51.128C115.477 51.9387 115.311 52.6587 114.981 53.288C114.661 53.9067 114.213 54.3867 113.637 54.728C113.061 55.0693 112.41 55.24 111.685 55.24ZM111.685 54.168C112.41 54.168 112.986 53.8907 113.413 53.336C113.839 52.7813 114.053 52.0453 114.053 51.128C114.053 50.2213 113.834 49.496 113.397 48.952C112.97 48.3973 112.399 48.12 111.685 48.12C110.97 48.12 110.394 48.3973 109.957 48.952C109.53 49.496 109.317 50.2213 109.317 51.128C109.317 52.0453 109.53 52.7813 109.957 53.336C110.383 53.8907 110.959 54.168 111.685 54.168ZM117.982 55V47.288H119.358V47.816V48.328C119.572 47.9653 119.902 47.6613 120.35 47.416C120.798 47.16 121.294 47.032 121.838 47.032C122.766 47.032 123.486 47.3147 123.998 47.88C124.51 48.4453 124.766 49.224 124.766 50.216V55H123.39V50.392C123.39 49.6347 123.252 49.0693 122.974 48.696C122.697 48.312 122.238 48.12 121.598 48.12C120.905 48.12 120.356 48.344 119.95 48.792C119.556 49.2293 119.358 49.7733 119.358 50.424V55H117.982Z" fill="#8F4098"/>
</svg>
