<svg width="231" height="60" viewBox="0 0 231 60" fill="none" xmlns="http://www.w3.org/2000/svg">
<path d="M69.0959 21.2399H67.6399V10.0399H69.0959V14.7439H73.5119V10.0399H74.9679V21.2399H73.5119V15.9759H69.0959V21.2399ZM81.0897 21.4799C79.927 21.4799 79.0097 21.1225 78.3377 20.4079C77.6657 19.6932 77.3297 18.6745 77.3297 17.3519C77.3297 16.5732 77.4897 15.8745 77.8097 15.2559C78.1297 14.6372 78.567 14.1519 79.1217 13.7999C79.6763 13.4479 80.3003 13.2719 80.9937 13.2719C82.1243 13.2719 83.0043 13.6399 83.6337 14.3759C84.263 15.1119 84.5777 16.1092 84.5777 17.3679V17.6399H78.7217C78.7323 18.4932 78.9617 19.1705 79.4097 19.6719C79.8577 20.1625 80.423 20.4079 81.1057 20.4079C81.639 20.4079 82.087 20.2905 82.4497 20.0559C82.8123 19.8105 83.0363 19.4105 83.1217 18.8559H84.4977C84.4123 19.6025 84.0763 20.2265 83.4897 20.7279C82.9137 21.2292 82.1137 21.4799 81.0897 21.4799ZM83.1057 16.6639C83.1057 15.9599 82.919 15.3999 82.5457 14.9839C82.183 14.5679 81.6657 14.3599 80.9937 14.3599C80.3643 14.3599 79.847 14.5785 79.4417 15.0159C79.047 15.4532 78.823 16.0025 78.7697 16.6639H83.1057ZM89.8994 21.4799C89.0994 21.4799 88.4434 21.2665 87.9314 20.8399C87.4301 20.4132 87.1794 19.8425 87.1794 19.1279C87.1794 18.4132 87.4194 17.8692 87.8994 17.4959C88.3794 17.1119 89.0141 16.8612 89.8034 16.7439L91.5794 16.4879C91.8674 16.4452 92.0701 16.3599 92.1874 16.2319C92.3154 16.0932 92.3794 15.9065 92.3794 15.6719C92.3794 15.2559 92.2301 14.9359 91.9314 14.7119C91.6327 14.4772 91.2274 14.3599 90.7154 14.3599C90.1074 14.3599 89.6381 14.5039 89.3074 14.7919C88.9874 15.0692 88.8167 15.4532 88.7954 15.9439H87.4194C87.4407 15.4745 87.5847 15.0372 87.8514 14.6319C88.1181 14.2159 88.4914 13.8852 88.9714 13.6399C89.4514 13.3945 90.0061 13.2719 90.6354 13.2719C91.6594 13.2719 92.4274 13.5225 92.9394 14.0239C93.4621 14.5252 93.7234 15.2239 93.7234 16.1199V21.2399H92.4114V20.8559V20.1999C92.2301 20.5945 91.9101 20.9092 91.4514 21.1439C91.0034 21.3679 90.4861 21.4799 89.8994 21.4799ZM90.0754 20.4079C90.7367 20.4079 91.2861 20.2159 91.7234 19.8319C92.1607 19.4479 92.3794 18.9465 92.3794 18.3279V17.1919C92.2941 17.3199 91.9794 17.4319 91.4354 17.5279L90.3154 17.7359C89.7821 17.8319 89.3607 17.9919 89.0514 18.2159C88.7527 18.4292 88.6034 18.7332 88.6034 19.1279C88.6034 19.5225 88.7367 19.8372 89.0034 20.0719C89.2807 20.2959 89.6381 20.4079 90.0754 20.4079ZM101.333 10.0399V20.1039H104.565V21.2399H96.1972V20.1039H99.9732V11.1759H96.8532V10.0399H101.333ZM112.015 21.3839C110.799 21.3839 109.887 21.1279 109.279 20.6159C108.671 20.0932 108.367 19.2612 108.367 18.1199V14.6639H105.455V13.5279H108.367V10.9839H109.743V13.5279H113.167V14.6639H109.743V17.9279C109.743 18.4612 109.812 18.8825 109.951 19.1919C110.1 19.5012 110.356 19.7305 110.719 19.8799C111.092 20.0292 111.61 20.1039 112.271 20.1039C112.57 20.1039 112.916 20.0719 113.311 20.0079V21.2399C112.874 21.3359 112.442 21.3839 112.015 21.3839ZM116.185 21.2399V10.0399H117.545V14.0559V14.5679C117.769 14.2052 118.105 13.9012 118.553 13.6559C119.001 13.3999 119.491 13.2719 120.025 13.2719C120.953 13.2719 121.673 13.5545 122.185 14.1199C122.707 14.6852 122.969 15.4639 122.969 16.4559V21.2399H121.593V16.6319C121.593 15.8745 121.454 15.3092 121.177 14.9359C120.899 14.5519 120.441 14.3599 119.801 14.3599C119.097 14.3599 118.542 14.5839 118.137 15.0319C117.742 15.4692 117.545 16.0132 117.545 16.6639V21.2399H116.185ZM137.404 21.4799C136.849 21.4799 136.321 21.3572 135.82 21.1119C135.329 20.8665 134.924 20.5145 134.604 20.0559C134.295 19.5865 134.14 19.0319 134.14 18.3919C134.14 17.6559 134.343 17.0212 134.748 16.4879C135.153 15.9545 135.745 15.4585 136.524 14.9999L136.588 14.9519L136.54 14.8879C136.028 14.2585 135.687 13.7519 135.516 13.3679C135.356 12.9839 135.276 12.5625 135.276 12.1039C135.276 11.6772 135.388 11.2879 135.612 10.9359C135.836 10.5839 136.156 10.3065 136.572 10.1039C136.999 9.89053 137.489 9.78387 138.044 9.78387C138.791 9.78387 139.409 9.9972 139.9 10.4239C140.391 10.8399 140.636 11.4159 140.636 12.1519C140.636 12.7492 140.444 13.3039 140.06 13.8159C139.676 14.3172 139.207 14.7652 138.652 15.1599L138.508 15.2559L140.156 17.5119L140.54 18.0079C140.625 17.7945 140.689 17.5812 140.732 17.3679C140.828 16.8985 140.892 16.3492 140.924 15.7199H142.38C142.316 17.0639 141.996 18.1945 141.42 19.1119L143.148 21.2399H141.452L140.572 20.1519C140.167 20.5892 139.692 20.9199 139.148 21.1439C138.615 21.3679 138.033 21.4799 137.404 21.4799ZM137.9 14.2319C138.305 13.9652 138.625 13.6559 138.86 13.3039C139.105 12.9412 139.228 12.5572 139.228 12.1519C139.228 11.7679 139.116 11.4692 138.892 11.2559C138.668 11.0425 138.38 10.9359 138.028 10.9359C137.623 10.9359 137.303 11.0479 137.068 11.2719C136.844 11.4959 136.732 11.7892 136.732 12.1519C136.732 12.4825 136.812 12.8079 136.972 13.1279C137.132 13.4479 137.367 13.8052 137.676 14.1999L137.772 14.3279L137.9 14.2319ZM137.516 20.3439C138.455 20.3439 139.223 19.9759 139.82 19.2399L137.356 15.8959L137.26 15.9599C136.716 16.3225 136.3 16.6852 136.012 17.0479C135.735 17.4105 135.596 17.8479 135.596 18.3599C135.596 18.9359 135.772 19.4105 136.124 19.7839C136.487 20.1572 136.951 20.3439 137.516 20.3439ZM154.816 21.2399L153.376 10.0399H154.816L155.664 18.1839L155.792 19.4799L156.016 18.1839L156.976 12.6159H158.4L159.36 18.1839C159.488 18.8879 159.562 19.3199 159.584 19.4799C159.648 18.8825 159.69 18.4505 159.712 18.1839L160.56 10.0399H161.92L160.48 21.2399H158.8L157.872 15.9119C157.776 15.3892 157.701 14.9625 157.648 14.6319L157.424 15.9119L156.496 21.2399H154.816ZM167.433 21.4799C166.271 21.4799 165.353 21.1225 164.681 20.4079C164.009 19.6932 163.673 18.6745 163.673 17.3519C163.673 16.5732 163.833 15.8745 164.153 15.2559C164.473 14.6372 164.911 14.1519 165.465 13.7999C166.02 13.4479 166.644 13.2719 167.337 13.2719C168.468 13.2719 169.348 13.6399 169.977 14.3759C170.607 15.1119 170.921 16.1092 170.921 17.3679V17.6399H165.065C165.076 18.4932 165.305 19.1705 165.753 19.6719C166.201 20.1625 166.767 20.4079 167.449 20.4079C167.983 20.4079 168.431 20.2905 168.793 20.0559C169.156 19.8105 169.38 19.4105 169.465 18.8559H170.841C170.756 19.6025 170.42 20.2265 169.833 20.7279C169.257 21.2292 168.457 21.4799 167.433 21.4799ZM169.449 16.6639C169.449 15.9599 169.263 15.3999 168.889 14.9839C168.527 14.5679 168.009 14.3599 167.337 14.3599C166.708 14.3599 166.191 14.5785 165.785 15.0159C165.391 15.4532 165.167 16.0025 165.113 16.6639H169.449ZM178.083 10.0399V20.1039H181.315V21.2399H172.947V20.1039H176.723V11.1759H173.603V10.0399H178.083ZM187.677 10.0399V20.1039H190.909V21.2399H182.541V20.1039H186.317V11.1759H183.197V10.0399H187.677ZM192.727 21.2399V13.5279H194.103V14.0559V14.5679C194.316 14.2052 194.647 13.9012 195.095 13.6559C195.543 13.3999 196.039 13.2719 196.583 13.2719C197.511 13.2719 198.231 13.5545 198.743 14.1199C199.255 14.6852 199.511 15.4639 199.511 16.4559V21.2399H198.135V16.6319C198.135 15.8745 197.996 15.3092 197.719 14.9359C197.441 14.5519 196.983 14.3599 196.343 14.3599C195.649 14.3599 195.1 14.5839 194.695 15.0319C194.3 15.4692 194.103 16.0132 194.103 16.6639V21.2399H192.727ZM205.808 21.4799C204.646 21.4799 203.728 21.1225 203.056 20.4079C202.384 19.6932 202.048 18.6745 202.048 17.3519C202.048 16.5732 202.208 15.8745 202.528 15.2559C202.848 14.6372 203.286 14.1519 203.84 13.7999C204.395 13.4479 205.019 13.2719 205.712 13.2719C206.843 13.2719 207.723 13.6399 208.352 14.3759C208.982 15.1119 209.296 16.1092 209.296 17.3679V17.6399H203.44C203.451 18.4932 203.68 19.1705 204.128 19.6719C204.576 20.1625 205.142 20.4079 205.824 20.4079C206.358 20.4079 206.806 20.2905 207.168 20.0559C207.531 19.8105 207.755 19.4105 207.84 18.8559H209.216C209.131 19.6025 208.795 20.2265 208.208 20.7279C207.632 21.2292 206.832 21.4799 205.808 21.4799ZM207.824 16.6639C207.824 15.9599 207.638 15.3999 207.264 14.9839C206.902 14.5679 206.384 14.3599 205.712 14.3599C205.083 14.3599 204.566 14.5785 204.16 15.0159C203.766 15.4532 203.542 16.0025 203.488 16.6639H207.824ZM215.29 21.4799C214.266 21.4799 213.461 21.2292 212.874 20.7279C212.298 20.2159 211.999 19.5385 211.978 18.6959H213.322C213.343 19.2292 213.525 19.6505 213.866 19.9599C214.218 20.2585 214.698 20.4079 215.306 20.4079C215.839 20.4079 216.266 20.2959 216.586 20.0719C216.917 19.8372 217.082 19.5279 217.082 19.1439C217.082 18.5252 216.634 18.1305 215.738 17.9599L214.57 17.7359C213.834 17.5972 213.258 17.3412 212.842 16.9679C212.426 16.5945 212.218 16.1199 212.218 15.5439C212.218 15.1065 212.346 14.7172 212.602 14.3759C212.858 14.0345 213.21 13.7679 213.658 13.5759C214.117 13.3732 214.634 13.2719 215.21 13.2719C216.138 13.2719 216.869 13.4905 217.402 13.9279C217.935 14.3545 218.229 14.9625 218.282 15.7519H216.922C216.869 15.2932 216.682 14.9465 216.362 14.7119C216.053 14.4772 215.637 14.3599 215.114 14.3599C214.655 14.3599 214.287 14.4612 214.01 14.6639C213.733 14.8665 213.594 15.1332 213.594 15.4639C213.594 15.7625 213.701 15.9972 213.914 16.1679C214.127 16.3385 214.458 16.4665 214.906 16.5519L216.106 16.7759C216.842 16.9145 217.413 17.1652 217.818 17.5279C218.234 17.8905 218.442 18.3812 218.442 18.9999C218.442 19.4585 218.314 19.8799 218.058 20.2639C217.802 20.6372 217.434 20.9359 216.954 21.1599C216.485 21.3732 215.93 21.4799 215.29 21.4799ZM224.884 21.4799C223.86 21.4799 223.055 21.2292 222.468 20.7279C221.892 20.2159 221.593 19.5385 221.572 18.6959H222.916C222.937 19.2292 223.119 19.6505 223.46 19.9599C223.812 20.2585 224.292 20.4079 224.9 20.4079C225.433 20.4079 225.86 20.2959 226.18 20.0719C226.511 19.8372 226.676 19.5279 226.676 19.1439C226.676 18.5252 226.228 18.1305 225.332 17.9599L224.164 17.7359C223.428 17.5972 222.852 17.3412 222.436 16.9679C222.02 16.5945 221.812 16.1199 221.812 15.5439C221.812 15.1065 221.94 14.7172 222.196 14.3759C222.452 14.0345 222.804 13.7679 223.252 13.5759C223.711 13.3732 224.228 13.2719 224.804 13.2719C225.732 13.2719 226.463 13.4905 226.996 13.9279C227.529 14.3545 227.823 14.9625 227.876 15.7519H226.516C226.463 15.2932 226.276 14.9465 225.956 14.7119C225.647 14.4772 225.231 14.3599 224.708 14.3599C224.249 14.3599 223.881 14.4612 223.604 14.6639C223.327 14.8665 223.188 15.1332 223.188 15.4639C223.188 15.7625 223.295 15.9972 223.508 16.1679C223.721 16.3385 224.052 16.4665 224.5 16.5519L225.7 16.7759C226.436 16.9145 227.007 17.1652 227.412 17.5279C227.828 17.8905 228.036 18.3812 228.036 18.9999C228.036 19.4585 227.908 19.8799 227.652 20.2639C227.396 20.6372 227.028 20.9359 226.548 21.1599C226.079 21.3732 225.524 21.4799 224.884 21.4799Z" fill="#8F4098"/>
<path d="M54.3164 16.838C47.1444 13.1534 10.5508 16.838 1.26624 43.7392" stroke="#CE3D96"/>
</svg>
