<svg width="45" height="45" viewBox="0 0 45 45" fill="none" xmlns="http://www.w3.org/2000/svg">
<path d="M22.092 0C12.8718 0 10.1752 0.00951193 9.65107 0.052995C7.75893 0.210282 6.58153 0.508209 5.29882 1.14687C4.31028 1.63775 3.53067 2.20677 2.76124 3.00441C1.35998 4.45906 0.510722 6.24866 0.203292 8.37593C0.0538238 9.40866 0.010342 9.61928 0.00150978 14.8943C-0.00188723 16.6527 0.00150978 18.9668 0.00150978 22.0707C0.00150978 31.2837 0.0117008 33.9776 0.055862 34.5008C0.208728 36.342 0.497474 37.5004 1.10894 38.7676C2.27751 41.1931 4.50935 43.014 7.13864 43.6934C8.04904 43.9278 9.05455 44.0569 10.3454 44.118C10.8923 44.1418 16.4668 44.1588 22.0447 44.1588C27.6226 44.1588 33.2005 44.152 33.7339 44.1248C35.2286 44.0545 36.0965 43.938 37.0561 43.69C39.7024 43.0072 41.8935 41.2135 43.0858 38.754C43.6854 37.5174 43.9895 36.3148 44.127 34.5697C44.1569 34.1893 44.1695 28.123 44.1695 22.065C44.1695 16.0059 44.1559 9.95084 44.126 9.57036C43.9867 7.79706 43.6827 6.60468 43.0638 5.34435C42.5559 4.31264 41.992 3.54217 41.1733 2.75438C39.7123 1.35885 37.9254 0.509568 35.7962 0.202468C34.7645 0.0533347 34.559 0.00917222 29.28 0H22.092Z" fill="url(#paint0_radial_54_43)"/>
<path d="M22.092 0C12.8718 0 10.1752 0.00951193 9.65107 0.052995C7.75893 0.210282 6.58153 0.508209 5.29882 1.14687C4.31028 1.63775 3.53067 2.20677 2.76124 3.00441C1.35998 4.45906 0.510722 6.24866 0.203292 8.37593C0.0538238 9.40866 0.010342 9.61928 0.00150978 14.8943C-0.00188723 16.6527 0.00150978 18.9668 0.00150978 22.0707C0.00150978 31.2837 0.0117008 33.9776 0.055862 34.5008C0.208728 36.342 0.497474 37.5004 1.10894 38.7676C2.27751 41.1931 4.50935 43.014 7.13864 43.6934C8.04904 43.9278 9.05455 44.0569 10.3454 44.118C10.8923 44.1418 16.4668 44.1588 22.0447 44.1588C27.6226 44.1588 33.2005 44.152 33.7339 44.1248C35.2286 44.0545 36.0965 43.938 37.0561 43.69C39.7024 43.0072 41.8935 41.2135 43.0858 38.754C43.6854 37.5174 43.9895 36.3148 44.127 34.5697C44.1569 34.1893 44.1695 28.123 44.1695 22.065C44.1695 16.0059 44.1559 9.95084 44.126 9.57036C43.9867 7.79706 43.6827 6.60468 43.0638 5.34435C42.5559 4.31264 41.992 3.54217 41.1733 2.75438C39.7123 1.35885 37.9254 0.509568 35.7962 0.202468C34.7645 0.0533347 34.559 0.00917222 29.28 0H22.092Z" fill="url(#paint1_radial_54_43)"/>
<path d="M22.0817 5.77502C17.6534 5.77502 17.0977 5.79439 15.3584 5.87354C13.6225 5.95303 12.4376 6.22786 11.4009 6.6311C10.3284 7.04758 9.4187 7.60471 8.51237 8.5114C7.60537 9.41775 7.04826 10.3275 6.63043 11.3996C6.22618 12.4368 5.95102 13.622 5.87289 15.3573C5.7951 17.0966 5.77472 17.6527 5.77472 22.0812C5.77472 26.5097 5.79442 27.0637 5.87323 28.8031C5.95306 30.539 6.22788 31.7239 6.63077 32.7607C7.04758 33.8332 7.60469 34.7429 8.51135 35.6493C9.41734 36.5563 10.3271 37.1148 11.3988 37.5313C12.4363 37.9345 13.6215 38.2093 15.357 38.2888C17.0963 38.368 17.6517 38.3874 22.0797 38.3874C26.5084 38.3874 27.0625 38.368 28.8017 38.2888C30.5376 38.2093 31.7238 37.9345 32.7613 37.5313C33.8334 37.1148 34.7417 36.5563 35.6477 35.6493C36.5547 34.7429 37.1118 33.8332 37.5297 32.761C37.9305 31.7239 38.2057 30.5387 38.2872 28.8034C38.3653 27.0641 38.3857 26.5097 38.3857 22.0812C38.3857 17.6527 38.3653 17.0969 38.2872 15.3576C38.2057 13.6217 37.9305 12.4368 37.5297 11.4C37.1118 10.3275 36.5547 9.41775 35.6477 8.5114C34.7407 7.60437 33.8337 7.04725 32.7603 6.6311C31.7208 6.22786 30.5352 5.95303 28.7993 5.87354C27.0601 5.79439 26.5064 5.77502 22.0767 5.77502H22.0817ZM20.619 8.71353C21.0531 8.71285 21.5375 8.71353 22.0817 8.71353C26.4354 8.71353 26.9514 8.72916 28.6706 8.80729C30.2604 8.87999 31.1232 9.14564 31.698 9.36884C32.459 9.66438 33.0015 10.0177 33.5718 10.5884C34.1425 11.1591 34.4958 11.7027 34.792 12.4636C35.0152 13.0377 35.2812 13.9006 35.3535 15.4904C35.4317 17.2094 35.4487 17.7257 35.4487 22.0775C35.4487 26.4292 35.4317 26.9455 35.3535 28.6645C35.2809 30.2543 35.0152 31.1172 34.792 31.6913C34.4965 32.4522 34.1425 32.9941 33.5718 33.5645C33.0011 34.1352 32.4593 34.4885 31.698 34.784C31.1239 35.0082 30.2604 35.2732 28.6706 35.3459C26.9517 35.424 26.4354 35.441 22.0817 35.441C17.7278 35.441 17.2118 35.424 15.4929 35.3459C13.9031 35.2725 13.0403 35.0069 12.4651 34.7837C11.7042 34.4881 11.1607 34.1348 10.59 33.5641C10.0193 32.9934 9.666 32.4512 9.36978 31.6899C9.1466 31.1158 8.88061 30.253 8.80825 28.6631C8.73012 26.9442 8.7145 26.4278 8.7145 22.0734C8.7145 17.7189 8.73012 17.2053 8.80825 15.4864C8.88095 13.8965 9.1466 13.0336 9.36978 12.4589C9.66532 11.6979 10.0193 11.1544 10.59 10.5836C11.1607 10.0129 11.7042 9.65963 12.4651 9.3634C13.0399 9.13919 13.9031 8.87422 15.4929 8.80118C16.9971 8.73323 17.58 8.71285 20.619 8.70945V8.71353ZM30.7856 11.421C29.7053 11.421 28.8289 12.2965 28.8289 13.3771C28.8289 14.4574 29.7053 15.3338 30.7856 15.3338C31.8658 15.3338 32.7423 14.4574 32.7423 13.3771C32.7423 12.2968 31.8658 11.4204 30.7856 11.4204V11.421ZM22.0817 13.7073C17.4574 13.7073 13.7081 17.4567 13.7081 22.0812C13.7081 26.7057 17.4574 30.4534 22.0817 30.4534C26.7061 30.4534 30.454 26.7057 30.454 22.0812C30.454 17.4567 26.7061 13.7073 22.0817 13.7073ZM22.0817 16.6458C25.0834 16.6458 27.517 19.0792 27.517 22.0812C27.517 25.0829 25.0834 27.5166 22.0817 27.5166C19.0798 27.5166 16.6465 25.0829 16.6465 22.0812C16.6465 19.0792 19.0798 16.6458 22.0817 16.6458Z" fill="white"/>
<defs>
<radialGradient id="paint0_radial_54_43" cx="0" cy="0" r="1" gradientUnits="userSpaceOnUse" gradientTransform="translate(11.7326 47.5599) rotate(-90) scale(43.7646 40.7144)">
<stop stop-color="#FFDD55"/>
<stop offset="0.1" stop-color="#FFDD55"/>
<stop offset="0.5" stop-color="#FF543E"/>
<stop offset="1" stop-color="#C837AB"/>
</radialGradient>
<radialGradient id="paint1_radial_54_43" cx="0" cy="0" r="1" gradientTransform="matrix(3.8407 19.1824 -79.0883 15.8362 -7.39862 3.18112)" gradientUnits="userSpaceOnUse">
<stop stop-color="#3771C8"/>
<stop offset="0.128" stop-color="#3771C8"/>
<stop offset="1" stop-color="#6600FF" stop-opacity="0"/>
</radialGradient>
</defs>
</svg>
