<svg width="148" height="36" viewBox="0 0 148 36" fill="none" xmlns="http://www.w3.org/2000/svg">
<g clip-path="url(#clip0_54_90)">
<path d="M145.127 33.563C145.217 33.5639 145.307 33.5462 145.391 33.5111C145.474 33.4759 145.549 33.4241 145.612 33.3587C145.674 33.2934 145.722 33.2159 145.753 33.1311C145.785 33.0464 145.798 32.9561 145.793 32.866C145.793 32.3717 145.494 32.1355 144.881 32.1355H143.891V34.7235H144.263V33.5954H144.721L144.731 33.6091L145.442 34.7235H145.84L145.076 33.5701L145.127 33.563ZM144.696 33.3037H144.264V32.4288H144.812C145.095 32.4288 145.417 32.4749 145.417 32.8446C145.417 33.2697 145.091 33.3037 144.694 33.3037" fill="#0A66C2"/>
<path d="M0 5.2655H5.49872V25.2575H15.6785V30.3225H0V5.2655Z" fill="#0A66C2"/>
<path d="M18.1095 13.3331H23.392V30.3132H18.1095V13.3331ZM20.7507 4.89148C21.3568 4.89159 21.9492 5.07107 22.4531 5.40723C22.9569 5.74338 23.3496 6.22112 23.5814 6.78002C23.8133 7.33893 23.8739 7.95391 23.7556 8.5472C23.6373 9.14048 23.3454 9.68543 22.9168 10.1131C22.4882 10.5408 21.9422 10.8321 21.3478 10.9501C20.7534 11.068 20.1373 11.0074 19.5774 10.7759C19.0174 10.5444 18.5389 10.1524 18.2022 9.64939C17.8655 9.1464 17.6858 8.55507 17.6858 7.95014C17.6858 7.54843 17.7651 7.15065 17.9191 6.77952C18.0731 6.40839 18.2989 6.07118 18.5835 5.78715C18.8681 5.50312 19.206 5.27783 19.5779 5.12415C19.9497 4.97047 20.3483 4.89141 20.7507 4.89148Z" fill="#0A66C2"/>
<path d="M45.4893 5.2616H50.7717V20.2364L56.7585 13.3254H63.235L56.3018 21.1865L63.0892 30.3202H56.4498L50.8422 21.9269H50.7728V30.3191H45.4903L45.4893 5.2616Z" fill="#0A66C2"/>
<path d="M26.321 13.3347H31.3939V15.6552H31.4659C31.9726 14.7888 32.7056 14.0759 33.5865 13.5929C34.4675 13.1098 35.4634 12.8746 36.4678 12.9124C41.8245 12.9124 42.8106 16.4302 42.8106 21.0004V30.312H37.5281V22.0565C37.5281 20.0859 37.4918 17.5528 34.7768 17.5528C32.031 17.5528 31.6074 19.6987 31.6074 21.9132V30.3098H26.3249L26.321 13.3347Z" fill="#0A66C2"/>
<path d="M74.3596 19.8481C74.3697 19.4204 74.2927 18.995 74.1332 18.5978C73.9738 18.2006 73.7353 17.8399 73.432 17.5374C73.1288 17.235 72.7672 16.9971 72.3692 16.8382C71.9711 16.6794 71.5449 16.6028 71.1164 16.6132C70.1934 16.5559 69.2848 16.8629 68.5865 17.468C67.8882 18.0731 67.4561 18.928 67.3834 19.8481H74.3596ZM78.8343 27.3726C77.9565 28.4351 76.8529 29.2894 75.6035 29.8737C74.3541 30.458 72.9902 30.7576 71.6105 30.7509C66.328 30.7509 62.0988 27.2314 62.0988 21.7814C62.0988 16.3314 66.3275 12.8136 71.6105 12.8136C76.548 12.8136 79.6442 16.3287 79.6442 21.7814V23.4346H67.3834C67.5361 24.3722 68.0231 25.2231 68.7546 25.8306C69.4862 26.4381 70.4131 26.7612 71.3645 26.7404C72.1164 26.7358 72.8552 26.5435 73.5136 26.1811C74.172 25.8187 74.7292 25.2977 75.1343 24.6654L78.8343 27.3726Z" fill="#0A66C2"/>
<path d="M90.6549 17.4375C88.0137 17.4375 86.4289 19.1978 86.4289 21.7627C86.4289 24.3276 88.0131 26.0896 90.6549 26.0896C93.2967 26.0896 94.8847 24.332 94.8847 21.7627C94.8847 19.1934 93.2994 17.4375 90.6549 17.4375ZM99.7479 30.3099H94.8847V28.058H94.8127C94.2026 28.8771 93.4112 29.5445 92.5003 30.0083C91.5894 30.472 90.5835 30.7196 89.561 30.7317C84.4854 30.7317 81.1421 27.0754 81.1421 21.905C81.1421 17.1563 84.1008 12.796 88.9645 12.796C91.1507 12.796 93.1927 13.393 94.3906 15.0478H94.4599V5.26001H99.7474L99.7479 30.3099Z" fill="#0A66C2"/>
<path d="M135.41 30.3197H130.127V22.0626C130.127 20.0936 130.092 17.5589 127.38 17.5589C124.628 17.5589 124.207 19.7042 124.207 21.9192V30.3191H118.925V13.3391H123.996V15.6596H124.067C124.575 14.7935 125.308 14.081 126.189 13.598C127.07 13.115 128.066 12.8796 129.071 12.9168C134.425 12.9168 135.412 16.4319 135.412 21.0047L135.41 30.3197ZM112.965 11.0181C112.358 11.0182 111.766 10.8389 111.261 10.5027C110.757 10.1666 110.364 9.68881 110.132 9.12976C109.9 8.5707 109.839 7.95549 109.957 7.36194C110.075 6.76838 110.367 6.22313 110.796 5.79514C111.225 5.36715 111.771 5.07564 112.365 4.95747C112.96 4.8393 113.576 4.89978 114.137 5.13127C114.697 5.36275 115.176 5.75484 115.513 6.25796C115.849 6.76107 116.029 7.35262 116.029 7.95778C116.03 8.3596 115.95 8.75749 115.796 9.12874C115.642 9.5 115.417 9.83734 115.132 10.1215C114.847 10.4057 114.509 10.6311 114.138 10.785C113.766 10.9388 113.367 11.018 112.965 11.0181ZM115.606 30.3197H110.318V13.3391H115.606V30.3197ZM138.043 0.00218025H107.663C106.974 -0.00558661 106.309 0.260206 105.816 0.741151C105.323 1.2221 105.041 1.87885 105.033 2.56708V33.0159C105.041 33.7044 105.322 34.3616 105.816 34.8431C106.309 35.3245 106.974 35.5908 107.663 35.5835H138.043C138.734 35.5922 139.401 35.3266 139.896 34.8452C140.391 34.3638 140.675 33.7058 140.684 33.0159V2.56489C140.674 1.87528 140.391 1.21779 139.895 0.736854C139.4 0.25592 138.734 -0.0091126 138.043 -1.75571e-05" fill="#0A66C2"/>
<path d="M144.741 30.9827C144.099 30.9888 143.484 31.2488 143.033 31.7057C142.582 32.1626 142.331 32.7792 142.334 33.4207C142.337 34.0622 142.594 34.6764 143.05 35.129C143.505 35.5815 144.122 35.8355 144.765 35.8355C145.407 35.8355 146.024 35.5815 146.48 35.129C146.935 34.6764 147.193 34.0622 147.196 33.4207C147.199 32.7792 146.947 32.1626 146.496 31.7057C146.045 31.2488 145.431 30.9888 144.788 30.9827H144.741ZM144.741 35.5577C144.32 35.5647 143.906 35.4468 143.551 35.2189C143.197 34.9909 142.918 34.6632 142.75 34.2772C142.582 33.8911 142.533 33.4641 142.608 33.05C142.684 32.636 142.88 32.2535 143.174 31.9511C143.467 31.6486 143.843 31.4397 144.255 31.3507C144.667 31.2617 145.097 31.2967 145.489 31.4513C145.881 31.6058 146.218 31.873 146.458 32.2189C146.698 32.5649 146.83 32.9741 146.837 33.3949C146.837 33.407 146.837 33.4185 146.837 33.4306C146.849 33.9826 146.641 34.5166 146.258 34.9153C145.875 35.314 145.35 35.5447 144.797 35.5567H144.742" fill="#0A66C2"/>
</g>
<defs>
<clipPath id="clip0_54_90">
<rect width="147.196" height="35.879" fill="white"/>
</clipPath>
</defs>
</svg>
