<svg preserveAspectRatio="none" width="100%" height="100%" overflow="visible" style="display: block;" viewBox="0 0 51 51" fill="none" xmlns="http://www.w3.org/2000/svg">
<g id="Artboard">
<path id="Oval" d="M25.1153 50.2306C38.9861 50.2306 50.2306 38.9861 50.2306 25.1153C50.2306 11.2445 38.9861 0 25.1153 0C11.2445 0 0 11.2445 0 25.1153C0 38.9861 11.2445 50.2306 25.1153 50.2306Z" fill="url(#paint0_linear_91_7039)"/>
<path id="Path-3" fill-rule="evenodd" clip-rule="evenodd" d="M11.384 24.8415C18.6995 21.6336 23.5896 19.5602 26.0151 18.5431C32.9785 15.6482 34.4259 15.1396 35.3648 15.1396C35.5604 15.1396 36.0299 15.1787 36.3428 15.4134C36.5776 15.609 36.6558 15.8829 36.6949 16.0785C36.734 16.2741 36.7732 16.7044 36.734 17.0565C36.3428 21.0077 34.7389 30.6704 33.8783 35.091C33.5262 36.9688 32.822 37.5947 32.157 37.6729C30.7095 37.7903 29.575 36.6949 28.1667 35.7952C25.9759 34.3477 24.7241 33.4479 22.5725 32.0396C20.1079 30.3966 21.7118 29.4968 23.1201 28.0493C23.4722 27.6581 29.9271 21.8292 30.0445 21.2815C30.0445 21.2033 30.0836 20.9685 29.9271 20.8512C29.7706 20.7338 29.575 20.7729 29.4185 20.8121C29.1838 20.8512 25.663 23.1984 18.8169 27.8146C17.7998 28.5188 16.9 28.8317 16.0785 28.8317C15.1787 28.8317 13.4574 28.3232 12.1664 27.8928C10.6016 27.3843 9.34976 27.1104 9.46712 26.2498C9.58448 25.7803 10.2104 25.3109 11.384 24.8415Z" fill="var(--fill-0, white)"/>
</g>
<defs>
<linearGradient id="paint0_linear_91_7039" x1="0.0372426" y1="25.0971" x2="50.2315" y2="25.0971" gradientUnits="userSpaceOnUse">
<stop stop-color="#2AABEE"/>
<stop offset="1" stop-color="#229ED9"/>
</linearGradient>
</defs>
</svg>
