<svg width="45" height="51" viewBox="0 0 45 51" fill="none" xmlns="http://www.w3.org/2000/svg">
<g clip-path="url(#clip0_54_34)">
<path d="M38.5983 9.93607C38.5636 9.68307 38.343 9.54306 38.1607 9.52764C37.9788 9.51239 34.1277 9.22561 34.1277 9.22561C34.1277 9.22561 31.4531 6.55791 31.1595 6.26264C30.8658 5.96754 30.2921 6.0573 30.0694 6.12315C30.0367 6.13285 29.4851 6.30388 28.5727 6.58755C27.6792 4.00459 26.1024 1.63096 23.3285 1.63096C23.2519 1.63096 23.1731 1.63408 23.0943 1.63859C22.3053 0.590397 21.3281 0.13501 20.484 0.13501C14.0221 0.13501 10.9349 8.25072 9.96695 12.3748C7.45601 13.1565 5.67225 13.7122 5.4444 13.7842C4.04285 14.2259 3.99852 14.2702 3.81449 15.597C3.67599 16.6016 0.00875854 45.0943 0.00875854 45.0943L28.5846 50.4734L44.0679 47.1082C44.0679 47.1082 38.6326 10.1891 38.5985 9.93607H38.5983ZM26.9933 7.07828L24.5753 7.83016C24.5762 7.65895 24.577 7.49052 24.577 7.30632C24.577 5.70103 24.3552 4.40851 23.9994 3.38389C25.4287 3.56411 26.3806 5.19799 26.9933 7.07828ZM22.2263 3.70221C22.6237 4.70257 22.8821 6.13822 22.8821 8.07553C22.8821 8.17464 22.8812 8.26527 22.8804 8.35694C21.3079 8.84629 19.5992 9.37757 17.8866 9.91059C18.8482 6.18224 20.6506 4.38148 22.2263 3.70221V3.70221ZM20.3065 1.87633C20.5854 1.87633 20.8664 1.97146 21.1352 2.15739C19.0643 3.13644 16.8445 5.60226 15.9071 10.5264L11.9598 11.7547C13.0578 7.99876 15.6649 1.87633 20.3063 1.87633H20.3065Z" fill="#95BF46"/>
<path d="M38.1607 9.52758C37.9788 9.51233 34.1277 9.22555 34.1277 9.22555C34.1277 9.22555 31.4531 6.55786 31.1595 6.26258C31.0496 6.15272 30.9015 6.0964 30.7466 6.07214L28.586 50.4729L44.0679 47.1081C44.0679 47.1081 38.6325 10.189 38.5983 9.93601C38.5636 9.68301 38.343 9.543 38.1607 9.52758" fill="#5E8E3E"/>
<path d="M23.3285 18.1228L21.4193 23.8283C21.4193 23.8283 19.7466 22.9314 17.6962 22.9314C14.6903 22.9314 14.539 24.8266 14.539 25.3042C14.539 27.91 21.3001 28.9084 21.3001 35.0122C21.3001 39.8144 18.2685 42.9066 14.1808 42.9066C9.27549 42.9066 6.76697 39.8395 6.76697 39.8395L8.08039 35.4797C8.08039 35.4797 10.6589 37.7038 12.8347 37.7038C14.2565 37.7038 14.8348 36.5792 14.8348 35.7575C14.8348 32.3583 9.28791 32.2067 9.28791 26.6213C9.28791 21.9203 12.6464 17.3711 19.4258 17.3711C22.038 17.3711 23.3285 18.1228 23.3285 18.1228" fill="white"/>
</g>
<defs>
<clipPath id="clip0_54_34">
<rect width="44.1588" height="50.5986" fill="white"/>
</clipPath>
</defs>
</svg>
