<svg width="63" height="63" viewBox="0 0 63 63" fill="none" xmlns="http://www.w3.org/2000/svg">
<g clip-path="url(#clip0_54_72)">
<path d="M52.5904 6.10352e-05C58.0946 6.10352e-05 62.5583 4.46287 62.5583 9.9689V52.5904C62.5583 58.0946 58.0946 62.5583 52.5904 62.5583H9.96885C4.46373 62.5583 0 58.0946 0 52.5904V9.9689C0 4.46287 4.46373 6.10352e-05 9.96885 6.10352e-05H52.5904Z" fill="#FFFC00"/>
<path d="M52.3711 42.003C52.1867 41.3929 51.3044 40.9627 51.3044 40.9627C51.221 40.9188 51.1464 40.8793 51.0849 40.8485C49.6144 40.1374 48.3107 39.2814 47.2133 38.3113C46.3309 37.53 45.5759 36.6696 44.9701 35.7565C44.2283 34.6416 43.8815 33.711 43.7323 33.2062C43.6489 32.8769 43.662 32.7452 43.7323 32.574C43.7893 32.4292 43.9605 32.2931 44.0395 32.2273C44.5356 31.8761 45.3345 31.3581 45.8261 31.0421C46.2519 30.7655 46.6163 30.5285 46.8314 30.3792C47.5205 29.8964 47.9946 29.4047 48.2712 28.8736C48.6311 28.1888 48.675 27.4338 48.3941 26.6919C48.0166 25.6911 47.0816 25.0941 45.892 25.0941C45.6286 25.0941 45.3564 25.1248 45.0843 25.1819C44.4039 25.3311 43.7586 25.5726 43.2187 25.7833C43.1792 25.8008 43.1353 25.7701 43.1397 25.7262C43.1967 24.3874 43.2626 22.5876 43.1133 20.88C42.9816 19.3349 42.6612 18.0311 42.1432 16.8942C41.6208 15.7529 40.9404 14.9101 40.4093 14.2999C39.9045 13.7205 39.0134 12.8645 37.6702 12.0963C35.7826 11.0165 33.6317 10.4678 31.2788 10.4678C28.9304 10.4678 26.7838 11.0165 24.8919 12.0963C23.4696 12.9084 22.561 13.8259 22.1484 14.2999C21.6172 14.9101 20.9368 15.7529 20.4144 16.8942C19.8921 18.0311 19.576 19.3305 19.4443 20.88C19.2951 22.5964 19.3565 24.2513 19.418 25.7262C19.418 25.7701 19.3785 25.8008 19.3346 25.7833C18.7947 25.5726 18.1494 25.3311 17.469 25.1819C17.2012 25.1248 16.9291 25.0941 16.6613 25.0941C15.4761 25.0941 14.5411 25.6911 14.1592 26.6919C13.8783 27.4338 13.9222 28.1888 14.2821 28.8736C14.563 29.4047 15.0327 29.8964 15.7219 30.3792C15.9326 30.5285 16.3013 30.7655 16.7271 31.0421C17.2056 31.3537 17.9826 31.8585 18.483 32.2053C18.5445 32.2492 18.7552 32.4072 18.821 32.574C18.8912 32.7496 18.9044 32.8813 18.8122 33.2325C18.6586 33.7417 18.3118 34.6635 17.5831 35.7565C16.9774 36.674 16.2223 37.53 15.34 38.3113C14.2426 39.2814 12.9389 40.1374 11.4683 40.8485C11.3981 40.8837 11.3147 40.9232 11.2269 40.9758C11.2269 40.9758 10.349 41.4236 10.1822 42.003C9.93635 42.859 10.5904 43.6623 11.2532 44.0925C12.3419 44.7948 13.6676 45.1723 14.4357 45.3787C14.6508 45.4357 14.844 45.4884 15.0196 45.5411C15.1293 45.5762 15.4059 45.6815 15.5244 45.8352C15.6736 46.0283 15.6912 46.2654 15.7439 46.5331C15.8273 46.9853 16.016 47.5428 16.5735 47.929C17.1881 48.3504 17.965 48.3812 18.9527 48.4207C19.9843 48.4602 21.266 48.5085 22.7366 48.9957C23.417 49.2196 24.0359 49.6015 24.747 50.0405C26.2395 50.9579 28.0963 52.0992 31.2657 52.0992C34.4394 52.0992 36.3094 50.9535 37.8106 50.0317C38.5217 49.5971 39.1319 49.2196 39.7991 49.0001C41.2697 48.5129 42.5514 48.4646 43.583 48.4251C44.5707 48.3856 45.3477 48.3592 45.9622 47.9334C46.5592 47.5208 46.7304 46.9063 46.8094 46.4453C46.8533 46.2171 46.8796 46.0108 47.0113 45.844C47.1255 45.6991 47.3801 45.5981 47.4986 45.5586C47.6786 45.5016 47.8805 45.4489 48.1044 45.3874C48.8725 45.1811 49.8383 44.9397 51.0103 44.2769C52.4238 43.4735 52.5203 42.4903 52.3711 42.003Z" fill="white"/>
<path d="M53.5914 41.5289C53.2798 40.6773 52.6828 40.2252 52.0068 39.8477C51.8795 39.7731 51.761 39.7116 51.6644 39.6677C51.4625 39.5624 51.2561 39.4614 51.0498 39.3561C48.9384 38.2367 47.2879 36.8232 46.1466 35.1508C45.7603 34.5845 45.4925 34.0753 45.3038 33.6583C45.2072 33.3774 45.2116 33.2193 45.2818 33.0745C45.3345 32.9647 45.475 32.8506 45.554 32.7935C45.9183 32.5521 46.2914 32.3107 46.546 32.1483C46.9982 31.8541 47.3581 31.6215 47.5864 31.4635C48.4555 30.8577 49.0613 30.2124 49.4388 29.4925C49.9744 28.4785 50.0402 27.3196 49.6276 26.231C49.0569 24.721 47.6259 23.7816 45.8964 23.7816C45.5364 23.7816 45.1721 23.8211 44.8121 23.9001C44.7156 23.922 44.6234 23.944 44.5312 23.9659C44.5488 22.9388 44.5224 21.8414 44.4302 20.7703C44.1054 16.9952 42.7841 15.0155 41.4058 13.4396C40.8307 12.7811 39.8299 11.8198 38.3286 10.9594C36.2348 9.75665 33.8644 9.15088 31.2788 9.15088C28.7021 9.15088 26.3317 9.75665 24.2379 10.955C22.7278 11.8154 21.727 12.7811 21.1563 13.4352C19.778 15.0111 18.4567 16.9908 18.1319 20.7659C18.0397 21.837 18.0177 22.9344 18.0309 23.9616C17.9387 23.9396 17.8421 23.9177 17.75 23.8957C17.39 23.8167 17.0213 23.7772 16.6657 23.7772C14.9362 23.7772 13.5052 24.7166 12.9345 26.2266C12.5219 27.3152 12.5877 28.4741 13.1233 29.4881C13.5008 30.208 14.1109 30.8533 14.9757 31.4591C15.2083 31.6215 15.5639 31.8541 16.016 32.1439C16.2619 32.3019 16.6174 32.5345 16.9686 32.7672C17.0213 32.8023 17.21 32.9428 17.2759 33.0745C17.3505 33.2237 17.3505 33.3861 17.2408 33.6846C17.0564 34.0929 16.7886 34.5933 16.4111 35.1464C15.2917 36.7837 13.6895 38.1708 11.6483 39.277C10.5641 39.8521 9.44035 40.234 8.96626 41.5245C8.60631 42.499 8.84335 43.6096 9.75201 44.5446C10.0505 44.8651 10.428 45.1504 10.9021 45.4138C12.0171 46.0283 12.9652 46.3312 13.7115 46.5375C13.8432 46.577 14.146 46.6736 14.2777 46.7921C14.6114 47.0818 14.5631 47.5208 15.0064 48.1617C15.2742 48.5611 15.5815 48.8333 15.8361 49.0089C16.7623 49.6498 17.807 49.6893 18.9132 49.7332C19.9097 49.7727 21.0422 49.8166 22.3327 50.2424C22.8683 50.418 23.4258 50.7604 24.0667 51.1554C25.6118 52.108 27.732 53.4073 31.2745 53.4073C34.8213 53.4073 36.9503 52.0992 38.5086 51.1467C39.1495 50.756 39.7026 50.4136 40.2206 50.2424C41.5111 49.8166 42.6437 49.7727 43.6401 49.7332C44.7463 49.6893 45.7866 49.6498 46.7172 49.0089C47.007 48.807 47.3757 48.4777 47.6654 47.9773C47.9815 47.4374 47.9771 47.0555 48.2756 46.7965C48.3985 46.6912 48.6662 46.599 48.8111 46.5551C49.5617 46.3488 50.5231 46.0459 51.66 45.4182C52.1648 45.1416 52.5555 44.8387 52.8671 44.4919C52.8715 44.4876 52.8759 44.4832 52.8803 44.4788C53.7275 43.5569 53.9426 42.4815 53.5914 41.5289ZM50.4441 43.2189C48.5214 44.2812 47.244 44.1671 46.2519 44.8036C45.4091 45.3479 45.9052 46.52 45.295 46.9414C44.54 47.4637 42.3144 46.9062 39.4392 47.8544C37.0688 48.6402 35.5544 50.8921 31.2832 50.8921C27.0033 50.8921 25.5328 48.6489 23.1273 47.8544C20.2521 46.9062 18.0221 47.4637 17.2715 46.9414C16.6613 46.52 17.1573 45.3479 16.3145 44.8036C15.3225 44.1627 14.0451 44.2769 12.1224 43.2189C10.8977 42.5429 11.5913 42.1259 11.9995 41.9284C18.9615 38.5615 20.0677 33.3554 20.1204 32.9647C20.1818 32.4994 20.2477 32.1307 19.7341 31.6522C19.238 31.1913 17.03 29.8261 16.4199 29.4003C15.4059 28.6936 14.9625 27.9869 15.2917 27.1177C15.52 26.5163 16.0819 26.2925 16.6745 26.2925C16.8589 26.2925 17.0476 26.3144 17.2276 26.3539C18.3382 26.5953 19.418 27.1528 20.0413 27.3021C20.1291 27.324 20.2038 27.3328 20.2696 27.3328C20.6032 27.3328 20.7174 27.166 20.6954 26.7841C20.6252 25.5682 20.4496 23.1978 20.6427 20.981C20.9061 17.9346 21.8894 16.4245 23.057 15.0857C23.6189 14.4448 26.2527 11.6618 31.2876 11.6618C36.3357 11.6618 38.9563 14.4448 39.5182 15.0857C40.6859 16.4201 41.6691 17.9302 41.9325 20.981C42.1257 23.1978 41.9589 25.5682 41.8799 26.7841C41.8535 27.1836 41.9764 27.3328 42.3056 27.3328C42.3715 27.3328 42.4505 27.324 42.5339 27.3021C43.1572 27.1528 44.2371 26.5953 45.3477 26.3539C45.5276 26.3144 45.7164 26.2925 45.9008 26.2925C46.4934 26.2925 47.0552 26.5207 47.2835 27.1177C47.6127 27.9869 47.165 28.6936 46.1554 29.4003C45.5452 29.8261 43.3372 31.1913 42.8412 31.6522C42.3276 32.1263 42.3934 32.495 42.4549 32.9647C42.5032 33.3554 43.6138 38.5615 50.5757 41.9284C50.9708 42.1259 51.6688 42.5429 50.4441 43.2189Z" fill="black"/>
</g>
<defs>
<clipPath id="clip0_54_72">
<rect width="62.5583" height="62.5583" fill="white"/>
</clipPath>
</defs>
</svg>
