<svg width="51" height="51" viewBox="0 0 51 51" fill="none" xmlns="http://www.w3.org/2000/svg">
<path d="M25.1153 50.2306C38.9861 50.2306 50.2306 38.9861 50.2306 25.1153C50.2306 11.2445 38.9861 0 25.1153 0C11.2445 0 0 11.2445 0 25.1153C0 38.9861 11.2445 50.2306 25.1153 50.2306Z" fill="url(#paint0_linear_54_103)"/>
<path fill-rule="evenodd" clip-rule="evenodd" d="M11.384 24.8415C18.6995 21.6336 23.5896 19.5603 26.015 18.5431C32.9785 15.6482 34.4259 15.1396 35.3648 15.1396C35.5604 15.1396 36.0299 15.1788 36.3428 15.4135C36.5775 15.6091 36.6558 15.8829 36.6949 16.0785C36.734 16.2741 36.7731 16.7045 36.734 17.0565C36.3428 21.0077 34.7389 30.6704 33.8782 35.0911C33.5262 36.9688 32.822 37.5948 32.1569 37.673C30.7095 37.7904 29.575 36.695 28.1667 35.7952C25.9759 34.3478 24.7241 33.448 22.5724 32.0397C20.1079 30.3966 21.7118 29.4968 23.1201 28.0494C23.4722 27.6582 29.9271 21.8292 30.0444 21.2816C30.0444 21.2033 30.0836 20.9686 29.9271 20.8512C29.7706 20.7339 29.575 20.773 29.4185 20.8121C29.1838 20.8512 25.663 23.1985 18.8169 27.8147C17.7997 28.5188 16.9 28.8318 16.0785 28.8318C15.1787 28.8318 13.4574 28.3232 12.1664 27.8929C10.6016 27.3843 9.34974 27.1105 9.4671 26.2498C9.58446 25.7804 10.2104 25.311 11.384 24.8415Z" fill="white"/>
<defs>
<linearGradient id="paint0_linear_54_103" x1="0.0372426" y1="25.0971" x2="50.2315" y2="25.0971" gradientUnits="userSpaceOnUse">
<stop stop-color="#2AABEE"/>
<stop offset="1" stop-color="#229ED9"/>
</linearGradient>
</defs>
</svg>
