<svg width="150" height="37" viewBox="0 0 150 37" fill="none" xmlns="http://www.w3.org/2000/svg">
<g clip-path="url(#clip0_54_45)">
<path d="M12.5206 14.4904V13.0577C12.0266 12.9841 11.5326 12.9513 11.0305 12.9513C4.94832 12.9431 0 17.9452 0 24.1015C0 27.7446 1.75742 31.1502 4.71346 33.2378C2.81026 31.1748 1.74932 28.465 1.74932 25.6406C1.74932 19.5743 6.55996 14.6296 12.5206 14.4904Z" fill="#25F4EE"/>
<path d="M12.7879 30.7327C15.4929 30.7245 17.7119 28.5632 17.8172 25.8289L17.8253 1.53909H22.2148C22.1176 1.03152 22.0771 0.515759 22.0771 0H16.0841L16.0679 24.2898C15.9707 27.0978 13.6382 29.2918 10.8604 29.1936C10.1072 29.169 9.36212 28.9644 8.69803 28.6123C9.63748 29.9386 11.16 30.7327 12.7879 30.7327Z" fill="#25F4EE"/>
<path d="M30.4188 9.78303V8.43223C28.8071 8.43223 27.2279 7.95741 25.8754 7.06506C27.0578 8.44861 28.6533 9.39826 30.4188 9.78303Z" fill="#25F4EE"/>
<path d="M25.8754 7.06505C24.5553 5.53415 23.8264 3.56935 23.8264 1.53906H22.2229C22.6359 3.80676 23.956 5.80431 25.8754 7.06505Z" fill="#FE2C55"/>
<path d="M11.0386 19.0012C8.2526 19.0012 6.00116 21.2771 6.00116 24.0933C6.00116 25.9926 7.0378 27.7282 8.70613 28.6041C7.07019 26.3364 7.56421 23.1682 9.79946 21.5145C11.0872 20.5649 12.7555 20.2865 14.2781 20.7777V14.5886C13.784 14.5149 13.29 14.4822 12.7879 14.4822C12.6988 14.4822 12.6178 14.4904 12.5287 14.4904V19.2386C12.0428 19.0831 11.5407 19.0012 11.0386 19.0012Z" fill="#FE2C55"/>
<path d="M30.4188 9.78308V14.4904C27.4223 14.4904 24.5067 13.5489 22.0771 11.7806V24.1015C22.0771 30.2579 17.1288 35.2599 11.0386 35.2599C8.77093 35.2599 6.56808 34.5559 4.71347 33.2378C6.79484 35.5055 9.71848 36.799 12.7879 36.799C18.87 36.799 23.8265 31.797 23.8265 25.6406V13.3197C26.2561 15.088 29.1716 16.0377 32.1681 16.0295V9.97137C31.5769 9.97137 30.9938 9.90588 30.4188 9.78308Z" fill="#FE2C55"/>
<path d="M22.0771 24.1015V11.7806C24.5067 13.5489 27.4223 14.4985 30.4188 14.4903V9.78302C28.6533 9.39825 27.0578 8.4486 25.8754 7.06505C23.956 5.80431 22.6359 3.80676 22.2148 1.53906H17.8253L17.8172 25.8289C17.72 28.6369 15.3876 30.8309 12.6097 30.7327C11.0548 30.6754 9.60509 29.8976 8.69803 28.6123C6.23602 27.3106 5.28037 24.2325 6.56807 21.7355C7.43463 20.0573 9.15966 19.0012 11.0305 19.0012C11.5326 19.0012 12.0347 19.0831 12.5206 19.2386V14.4903C6.55997 14.6377 1.74933 19.5824 1.74933 25.6487C1.74933 28.4731 2.81026 31.1829 4.71346 33.246C6.56807 34.564 8.77092 35.2681 11.0386 35.2681C17.1207 35.2599 22.0771 30.2496 22.0771 24.1015Z" fill="black"/>
<path d="M38.0964 9.79944H56.8368L55.1199 15.219H50.2607V35.2517H44.2028V15.219L38.1126 15.2272L38.0964 9.79944Z" fill="black"/>
<path d="M87.5229 9.79944H106.693L104.976 15.219H99.6952V35.2517H93.6212V15.219L87.531 15.2272L87.5229 9.79944Z" fill="black"/>
<path d="M57.9787 17.896H63.9799V35.2517H58.0111L57.9787 17.896Z" fill="black"/>
<path d="M66.369 9.73389H72.3701V21.5882L78.3146 15.6938H85.4739L77.9502 23.0618L86.3728 35.2517H79.7643L74.1438 26.8031L72.3621 28.5468V35.2517H66.3609L66.369 9.73389Z" fill="black"/>
<path d="M129.944 9.73389H135.945V21.5882L141.89 15.6938H149.049L141.525 23.0618L149.948 35.2517H143.339L137.719 26.8031L135.937 28.5468V35.2517H129.936L129.944 9.73389Z" fill="black"/>
<path d="M63.772 14.0291C64.4105 12.4709 63.6785 10.6846 62.1371 10.0392C60.5957 9.39379 58.8286 10.1337 58.1901 11.6918C57.5516 13.2499 58.2836 15.0363 59.825 15.6817C61.3664 16.3271 63.1335 15.5872 63.772 14.0291Z" fill="black"/>
<path d="M105.923 24.8629C105.923 19.4433 110.054 14.9325 115.399 14.5067C115.131 14.4904 114.767 14.474 114.5 14.474C108.823 14.474 104.222 19.1322 104.222 24.8629C104.222 30.6017 108.823 35.2435 114.5 35.2517C114.767 35.2517 115.131 35.2353 115.399 35.219C110.054 34.7933 105.931 30.2824 105.923 24.8629Z" fill="#25F4EE"/>
<path d="M117.731 14.474C117.456 14.474 117.091 14.4904 116.824 14.5067C122.477 14.957 126.704 19.9591 126.259 25.6733C125.862 30.7654 121.861 34.8096 116.824 35.2108C117.091 35.2353 117.456 35.2435 117.731 35.2435C123.408 35.2435 128.008 30.5853 128.008 24.8547C128.008 19.124 123.408 14.474 117.731 14.474Z" fill="#FE2C55"/>
<path d="M116.111 29.914C113.35 29.914 111.114 27.6545 111.114 24.8629C111.114 22.0712 113.35 19.8117 116.111 19.8117C118.873 19.8117 121.108 22.0712 121.108 24.8629C121.108 27.6545 118.873 29.914 116.111 29.914ZM116.111 14.474C110.434 14.474 105.834 19.124 105.834 24.8629C105.834 30.6017 110.434 35.2517 116.111 35.2517C121.789 35.2517 126.389 30.6017 126.389 24.8629C126.389 19.124 121.78 14.474 116.111 14.474Z" fill="black"/>
</g>
<defs>
<clipPath id="clip0_54_45">
<rect width="149.956" height="36.799" fill="white"/>
</clipPath>
</defs>
</svg>
