<svg width="68" height="68" viewBox="0 0 68 68" fill="none" xmlns="http://www.w3.org/2000/svg">
<g clip-path="url(#clip0_54_84)">
<g filter="url(#filter0_f_54_84)">
<path d="M20.9015 52.9646L21.7581 53.4711C25.356 55.6023 29.4814 56.7297 33.6883 56.7316H33.6971C46.6166 56.7316 57.131 46.2397 57.1363 33.3442C57.1386 27.0951 54.7028 21.2187 50.2774 16.7983C48.1068 14.6183 45.5246 12.8896 42.6802 11.7124C39.8358 10.5351 36.7856 9.93266 33.7063 9.93988C20.7769 9.93988 10.2622 20.4307 10.2576 33.3254C10.2512 37.7286 11.4935 42.0437 13.8409 45.7718L14.3986 46.6563L12.0303 55.286L20.9015 52.9646ZM5.25909 61.9715L9.26024 47.3908C6.79263 43.1238 5.49443 38.2829 5.49597 33.3235C5.50248 17.8086 18.1525 5.18665 33.6975 5.18665C41.241 5.19047 48.3215 8.12046 53.6465 13.4391C58.9715 18.7578 61.9014 25.8274 61.8987 33.3461C61.8918 48.8598 49.2398 61.4841 33.6971 61.4841H33.6849C28.9654 61.4822 24.328 60.3005 20.2089 58.0587L5.25909 61.9715Z" fill="#B3B3B3"/>
</g>
<path d="M4.96973 61.6823L8.97087 47.1016C6.49901 42.8243 5.20063 37.9722 5.2066 33.0343C5.21311 17.5195 17.8631 4.89746 33.4082 4.89746C40.9516 4.90129 48.0321 7.83127 53.3571 13.1499C58.6822 18.4686 61.612 25.5382 61.6093 33.0569C61.6024 48.5706 48.9505 61.1949 33.4078 61.1949H33.3955C28.6761 61.193 24.0387 60.0113 19.9195 57.7695L4.96973 61.6823Z" fill="white"/>
<path d="M33.4166 9.6507C20.4871 9.6507 9.9724 20.1415 9.9678 33.0362C9.96143 37.4394 11.2038 41.7545 13.5512 45.4826L14.1088 46.3675L11.7405 54.9972L20.6121 52.6754L21.4687 53.1819C25.0667 55.3131 29.192 56.4401 33.399 56.4424H33.4078C46.3273 56.4424 56.842 45.9505 56.847 33.055C56.8567 29.9814 56.2555 26.9364 55.0782 24.0963C53.9008 21.2562 52.1707 18.6773 49.988 16.5091C47.8174 14.3291 45.2351 12.6004 42.3906 11.4231C39.5461 10.2459 36.4959 9.64343 33.4166 9.6507Z" fill="url(#paint0_linear_54_84)"/>
<path fill-rule="evenodd" clip-rule="evenodd" d="M26.3595 21.2711C25.8313 20.1001 25.2755 20.0764 24.7738 20.0561L23.4231 20.0397C22.9532 20.0397 22.1897 20.2156 21.5442 20.9195C20.8988 21.6234 19.0778 23.3247 19.0778 26.7849C19.0778 30.2451 21.6029 33.5886 21.9547 34.0584C22.3066 34.5282 26.8294 41.8552 33.9919 44.6743C39.9439 47.017 41.1551 46.5511 42.4476 46.434C43.74 46.3169 46.6166 44.7328 47.2034 43.0905C47.7902 41.4482 47.7906 40.0411 47.6147 39.747C47.4388 39.4528 46.9689 39.2779 46.2636 38.926C45.5584 38.574 42.0946 36.8728 41.4487 36.6379C40.8029 36.4031 40.3334 36.2864 39.8631 36.9903C39.3928 37.6942 38.044 39.2776 37.6327 39.747C37.2215 40.2164 36.811 40.2753 36.1057 39.9237C35.4005 39.5721 33.1314 38.8292 30.4392 36.4333C28.3445 34.5691 26.9306 32.2669 26.5189 31.5634C26.1073 30.8598 26.4752 30.4788 26.8286 30.1284C27.1448 29.8132 27.5331 29.3071 27.8861 28.8966C28.2391 28.4861 28.3552 28.1927 28.5898 27.724C28.8244 27.2554 28.7075 26.8438 28.5312 26.4922C28.3549 26.1406 26.9858 22.6621 26.3595 21.2711Z" fill="white"/>
</g>
<defs>
<filter id="filter0_f_54_84" x="-1.80291" y="-1.87535" width="70.7636" height="70.9088" filterUnits="userSpaceOnUse" color-interpolation-filters="sRGB">
<feFlood flood-opacity="0" result="BackgroundImageFix"/>
<feBlend mode="normal" in="SourceGraphic" in2="BackgroundImageFix" result="shape"/>
<feGaussianBlur stdDeviation="3.531" result="effect1_foregroundBlur_54_84"/>
</filter>
<linearGradient id="paint0_linear_54_84" x1="32.9302" y1="12.4586" x2="33.1669" y2="52.4451" gradientUnits="userSpaceOnUse">
<stop stop-color="#57D163"/>
<stop offset="1" stop-color="#23B33A"/>
</linearGradient>
<clipPath id="clip0_54_84">
<rect width="67.1582" height="67.1582" fill="white"/>
</clipPath>
</defs>
</svg>
