<svg width="145" height="33" viewBox="0 0 145 33" fill="none" xmlns="http://www.w3.org/2000/svg">
<g clip-path="url(#clip0_54_64)">
<path d="M45.2977 5.12257C45.0352 4.15506 44.523 3.27302 43.8122 2.56428C43.1014 1.85554 42.2168 1.34484 41.2465 1.08304C37.6943 0.117065 23.3975 0.117065 23.3975 0.117065C23.3975 0.117065 9.10063 0.146337 5.54844 1.11231C4.57813 1.37412 3.69352 1.88481 2.98273 2.59355C2.27194 3.30229 1.75975 4.18433 1.49719 5.15184C0.422725 11.4453 0.00585699 21.0348 1.52655 27.0765C1.78911 28.044 2.30129 28.9261 3.01209 29.6348C3.72288 30.3435 4.60748 30.8542 5.5778 31.116C9.12999 32.082 23.4268 32.082 23.4268 32.082C23.4268 32.082 37.7236 32.082 41.2758 31.116C42.2461 30.8542 43.1307 30.3435 43.8415 29.6348C44.5523 28.9261 45.0645 28.044 45.3271 27.0765C46.4602 20.7743 46.8096 11.1906 45.2977 5.12257Z" fill="#FF0000"/>
<path d="M18.8472 22.9491L30.7074 16.0995L18.8472 9.24988V22.9491Z" fill="white"/>
<path d="M66.9044 29.1841C65.9944 28.5694 65.3485 27.6327 64.9669 26.3447C64.5852 25.0567 64.4091 23.359 64.4091 21.2221V18.3242C64.4091 16.1873 64.6146 14.431 65.0549 13.1431C65.4953 11.8258 66.1705 10.8891 67.1099 10.3037C68.0493 9.71825 69.253 9.39626 70.7502 9.39626C72.218 9.39626 73.4217 9.68898 74.3024 10.3037C75.1831 10.9184 75.8583 11.8551 76.2693 13.1431C76.6803 14.431 76.8858 16.1581 76.8858 18.2949V21.1928C76.8858 23.3297 76.6803 25.0275 76.2693 26.3154C75.8583 27.6034 75.2124 28.5401 74.3024 29.1548C73.3923 29.7402 72.1593 30.0622 70.6328 30.0622C69.0475 30.0915 67.8145 29.7695 66.9044 29.1841ZM71.9832 26.052C72.2474 25.408 72.3648 24.3249 72.3648 22.8613V16.6264C72.3648 15.1921 72.2474 14.1383 71.9832 13.4943C71.719 12.8211 71.2786 12.4991 70.6621 12.4991C70.0456 12.4991 69.6346 12.8211 69.3704 13.4943C69.1062 14.1676 68.9888 15.1921 68.9888 16.6264V22.8613C68.9888 24.3249 69.1062 25.408 69.341 26.052C69.5759 26.696 70.0163 27.018 70.6621 27.018C71.2786 27.018 71.719 26.696 71.9832 26.052ZM136.334 21.2807V22.3052L136.451 25.2031C136.539 25.8471 136.686 26.3154 136.921 26.6082C137.156 26.9009 137.537 27.0472 138.036 27.0472C138.711 27.0472 139.181 26.7838 139.416 26.2569C139.68 25.73 139.798 24.8518 139.827 23.6517L143.731 23.8859C143.761 24.0615 143.761 24.2957 143.761 24.5884C143.761 26.4325 143.262 27.8083 142.234 28.7157C141.207 29.6232 139.798 30.0915 137.948 30.0915C135.717 30.0915 134.161 29.389 133.28 28.0132C132.4 26.6374 131.93 24.4713 131.93 21.5734V18.0315C132.03 13.0552 132.908 9.41089 138.066 9.39626C139.622 9.39626 140.796 9.68898 141.618 10.2451C142.44 10.8013 143.027 11.6795 143.379 12.8796C143.731 14.0798 143.878 15.719 143.878 17.8266V21.2514H136.334V21.2807ZM136.921 12.8503C136.686 13.1431 136.539 13.5821 136.451 14.2261C136.363 14.8701 136.334 17.1533 136.334 17.1533V18.5876H139.622V17.1533C139.622 18.5876 139.592 14.8994 139.504 14.2261C139.416 13.5529 139.269 13.0845 139.034 12.8211C138.8 12.5576 138.447 12.4113 137.978 12.4113C137.478 12.4405 137.126 12.5869 136.921 12.8503ZM55.9249 20.9001L50.7875 2.40027H55.2791C55.2791 2.40027 57.3781 11.6795 58.0973 16.041H58.2148C59.0309 11.4102 61.0918 2.40027 61.0918 2.40027H65.5834L60.3872 20.8709V29.7402H55.9543V20.9001H55.9249Z" fill="#282828"/>
<path d="M91.4468 9.77673V29.7695H87.924L87.5423 27.3106H87.4543C86.4855 29.1548 85.047 30.0915 83.1388 30.0915C79.6835 30.0827 79.2989 27.1643 79.2637 24.7054V9.77673H83.7846V24.442C83.7846 25.3201 83.8727 25.9641 84.0782 26.3446C84.4951 27.1584 85.5754 26.9506 86.1625 26.5495C86.5015 26.3211 86.7748 26.0083 86.9552 25.6421V9.77673H91.4468Z" fill="#282828"/>
<path d="M103.718 6.02997H99.2264V29.7695H94.8228V6.02997H90.3312V2.40025H103.689V6.02997H103.718ZM129.523 12.9674C129.259 11.7087 128.818 10.8013 128.202 10.2159C127.585 9.65969 126.763 9.36697 125.677 9.36697C124.851 9.36516 124.043 9.60982 123.358 10.0695C122.624 10.5378 122.095 11.1526 121.684 11.9136H121.655V1.37573H117.31V29.7402H121.039L121.508 27.8376H121.596C121.955 28.5076 122.494 29.065 123.152 29.4475C123.857 29.828 124.62 30.0329 125.471 30.0329C126.998 30.0329 128.114 29.3304 128.848 27.9254C129.552 26.5203 129.934 24.3249 129.934 21.3685V18.2071C129.934 15.9824 129.787 14.2261 129.523 12.9674ZM125.383 21.1343C125.383 22.5979 125.325 23.7395 125.207 24.5591C125.09 25.3787 124.884 25.9641 124.591 26.3154C124.297 26.6667 123.916 26.8423 123.446 26.8423C122.536 26.813 122.019 26.4032 121.655 25.7885V14.431C121.802 13.8748 122.066 13.4358 122.448 13.0845C123.094 12.3615 124.197 12.3527 124.708 13.0845C124.972 13.4358 125.119 14.0505 125.237 14.8994C125.325 15.7482 125.383 16.9484 125.383 18.5291V21.1343Z" fill="#282828"/>
<path d="M114.609 9.77686V29.7696H111.087L110.705 27.3107H110.617C109.648 29.1549 108.21 30.0916 106.301 30.0916C102.846 30.0828 102.461 27.1644 102.426 24.7055V9.77686H106.947V24.4421C106.947 25.3202 107.035 25.9642 107.241 26.3448C107.658 27.1585 108.738 26.9507 109.325 26.5497C109.664 26.3212 109.937 26.0084 110.118 25.6422V9.77686H114.609Z" fill="#282828"/>
</g>
<defs>
<clipPath id="clip0_54_64">
<rect width="144.436" height="32.1991" fill="white"/>
</clipPath>
</defs>
</svg>
