<svg width="254" height="282" viewBox="0 0 254 282" fill="none" xmlns="http://www.w3.org/2000/svg">
<g filter="url(#filter0_d_224_2193)">
<path d="M22 34C22 25.1634 29.1634 18 38 18H216C224.837 18 232 25.1634 232 34V240C232 248.837 224.837 256 216 256H38C29.1634 256 22 248.837 22 240V34Z" fill="white"/>
<path d="M49.2136 44.3556C48.1362 44.3556 47.1869 44.1209 46.3656 43.6516C45.5549 43.1716 44.9256 42.4889 44.4776 41.6036C44.0296 40.7076 43.8056 39.6516 43.8056 38.4356C43.8056 37.2836 44.0402 36.2703 44.5096 35.3956C44.9896 34.5103 45.6402 33.8276 46.4616 33.3476C47.2936 32.8676 48.2269 32.6276 49.2616 32.6276C50.1576 32.6276 50.9576 32.7983 51.6616 33.1396C52.3656 33.4703 52.9309 33.9396 53.3576 34.5476C53.7949 35.1556 54.0509 35.8489 54.1256 36.6276H52.3016C52.1736 35.8276 51.8429 35.2036 51.3096 34.7556C50.7869 34.2969 50.0936 34.0676 49.2296 34.0676C48.5149 34.0676 47.8802 34.2436 47.3256 34.5956C46.7709 34.9476 46.3389 35.4543 46.0296 36.1156C45.7309 36.7663 45.5816 37.5396 45.5816 38.4356C45.5816 39.3423 45.7362 40.1369 46.0456 40.8196C46.3549 41.4916 46.7816 42.0143 47.3256 42.3876C47.8802 42.7503 48.5096 42.9316 49.2136 42.9316C50.0882 42.9316 50.8029 42.6969 51.3576 42.2276C51.9229 41.7476 52.2749 41.1129 52.4136 40.3236H54.1416C53.9922 41.5609 53.4802 42.5423 52.6056 43.2676C51.7309 43.9929 50.6002 44.3556 49.2136 44.3556ZM59.1917 44.3556C58.4344 44.3556 57.7624 44.1849 57.1757 43.8436C56.589 43.5023 56.1304 43.0223 55.7997 42.4036C55.4797 41.7743 55.3197 41.0489 55.3197 40.2276C55.3197 39.4169 55.485 38.7023 55.8157 38.0836C56.1464 37.4543 56.605 36.9689 57.1917 36.6276C57.7784 36.2756 58.445 36.0996 59.1917 36.0996C59.9384 36.0996 60.605 36.2756 61.1917 36.6276C61.7784 36.9689 62.237 37.4543 62.5677 38.0836C62.8984 38.7023 63.0637 39.4169 63.0637 40.2276C63.0637 41.0489 62.8984 41.7743 62.5677 42.4036C62.237 43.0223 61.7784 43.5023 61.1917 43.8436C60.605 44.1849 59.9384 44.3556 59.1917 44.3556ZM59.1917 43.1076C59.8744 43.1076 60.4184 42.8516 60.8237 42.3396C61.229 41.8169 61.4317 41.1129 61.4317 40.2276C61.4317 39.3529 61.2237 38.6596 60.8077 38.1476C60.4024 37.6249 59.8637 37.3636 59.1917 37.3636C58.5197 37.3636 57.9757 37.6249 57.5597 38.1476C57.1544 38.6596 56.9517 39.3529 56.9517 40.2276C56.9517 41.1129 57.1544 41.8169 57.5597 42.3396C57.965 42.8516 58.509 43.1076 59.1917 43.1076ZM64.8153 44.0996V36.3556H66.3993V36.8196C66.3993 37.0756 66.394 37.2783 66.3833 37.4276C66.5966 37.0436 66.9113 36.7289 67.3273 36.4836C67.754 36.2276 68.2286 36.0996 68.7513 36.0996C69.6366 36.0996 70.3246 36.3769 70.8153 36.9316C71.3166 37.4756 71.5673 38.2329 71.5673 39.2036V44.0996H69.9833V39.4276C69.9833 38.0516 69.4446 37.3636 68.3673 37.3636C67.7806 37.3636 67.306 37.5663 66.9433 37.9716C66.5806 38.3769 66.3993 38.8783 66.3993 39.4756V44.0996H64.8153ZM76.6198 44.2116C75.9051 44.2116 75.3398 44.0196 74.9238 43.6356C74.5078 43.2409 74.2998 42.6329 74.2998 41.8116V37.6356H72.7318V36.3556H74.2998V33.6996H75.8998V36.3556H77.6118V37.6356H75.8998V41.6196C75.8998 42.4409 76.2785 42.8516 77.0358 42.8516C77.2171 42.8516 77.4091 42.8356 77.6118 42.8036V44.0836C77.2918 44.1689 76.9611 44.2116 76.6198 44.2116ZM82.4722 44.3556C81.2882 44.3556 80.3495 43.9929 79.6562 43.2676C78.9735 42.5423 78.6322 41.5183 78.6322 40.1956C78.6322 39.4063 78.7922 38.7023 79.1122 38.0836C79.4429 37.4543 79.8909 36.9689 80.4562 36.6276C81.0322 36.2756 81.6775 36.0996 82.3922 36.0996C83.5442 36.0996 84.4402 36.4729 85.0802 37.2196C85.7202 37.9556 86.0402 38.9583 86.0402 40.2276V40.5636H80.2482C80.2589 41.3423 80.4722 41.9609 80.8882 42.4196C81.3042 42.8783 81.8375 43.1076 82.4882 43.1076C82.9789 43.1076 83.3949 42.9903 83.7362 42.7556C84.0775 42.5209 84.2909 42.1529 84.3762 41.6516H85.9762C85.8909 42.4303 85.5442 43.0756 84.9362 43.5876C84.3282 44.0996 83.5069 44.3556 82.4722 44.3556ZM84.3602 39.4276C84.3602 38.7876 84.1842 38.2756 83.8322 37.8916C83.4802 37.5076 83.0002 37.3156 82.3922 37.3156C81.8055 37.3156 81.3149 37.5129 80.9202 37.9076C80.5362 38.3023 80.3175 38.8089 80.2642 39.4276H84.3602ZM87.8153 44.0996V36.3556H89.3993V36.8196C89.3993 37.0756 89.394 37.2783 89.3833 37.4276C89.5966 37.0436 89.9113 36.7289 90.3273 36.4836C90.754 36.2276 91.2286 36.0996 91.7513 36.0996C92.6366 36.0996 93.3246 36.3769 93.8153 36.9316C94.3166 37.4756 94.5673 38.2329 94.5673 39.2036V44.0996H92.9833V39.4276C92.9833 38.0516 92.4446 37.3636 91.3673 37.3636C90.7806 37.3636 90.306 37.5663 89.9433 37.9716C89.5806 38.3769 89.3993 38.8783 89.3993 39.4756V44.0996H87.8153ZM99.6198 44.2116C98.9051 44.2116 98.3398 44.0196 97.9238 43.6356C97.5078 43.2409 97.2998 42.6329 97.2998 41.8116V37.6356H95.7318V36.3556H97.2998V33.6996H98.8998V36.3556H100.612V37.6356H98.8998V41.6196C98.8998 42.4409 99.2785 42.8516 100.036 42.8516C100.217 42.8516 100.409 42.8356 100.612 42.8036V44.0836C100.292 44.1689 99.9611 44.2116 99.6198 44.2116ZM110.295 44.3556C108.919 44.3556 107.852 43.9663 107.095 43.1876C106.338 42.4089 105.959 41.2676 105.959 39.7636V32.8996H107.655V39.5236C107.655 41.7956 108.535 42.9316 110.295 42.9316C112.066 42.9316 112.951 41.7956 112.951 39.5236V32.8996H114.647V39.7636C114.647 41.2569 114.263 42.3983 113.495 43.1876C112.738 43.9663 111.671 44.3556 110.295 44.3556ZM119.741 44.3556C118.696 44.3556 117.869 44.0996 117.261 43.5876C116.653 43.0756 116.328 42.3823 116.285 41.5076H117.869C117.891 42.0089 118.061 42.4089 118.381 42.7076C118.712 42.9956 119.165 43.1396 119.741 43.1396C120.243 43.1396 120.643 43.0383 120.941 42.8356C121.24 42.6223 121.389 42.3343 121.389 41.9716C121.389 41.6836 121.277 41.4543 121.053 41.2836C120.84 41.1023 120.509 40.9689 120.061 40.8836L118.989 40.6756C118.211 40.5263 117.608 40.2649 117.181 39.8916C116.765 39.5076 116.557 39.0116 116.557 38.4036C116.557 37.9663 116.685 37.5716 116.941 37.2196C117.208 36.8676 117.571 36.5956 118.029 36.4036C118.499 36.2009 119.032 36.0996 119.629 36.0996C120.589 36.0996 121.352 36.3289 121.917 36.7876C122.493 37.2463 122.803 37.8703 122.845 38.6596H121.261C121.219 38.2329 121.048 37.9023 120.749 37.6676C120.451 37.4329 120.056 37.3156 119.565 37.3156C119.139 37.3156 118.792 37.4116 118.525 37.6036C118.269 37.7849 118.141 38.0249 118.141 38.3236C118.141 38.6116 118.243 38.8356 118.445 38.9956C118.648 39.1449 118.979 39.2623 119.437 39.3476L120.541 39.5556C121.309 39.6943 121.901 39.9556 122.317 40.3396C122.744 40.7129 122.957 41.2143 122.957 41.8436C122.957 42.3129 122.824 42.7396 122.557 43.1236C122.301 43.5076 121.928 43.8116 121.437 44.0356C120.957 44.2489 120.392 44.3556 119.741 44.3556ZM126.946 44.3556C126.466 44.3556 126.018 44.2596 125.602 44.0676C125.196 43.8756 124.871 43.5983 124.626 43.2356C124.391 42.8729 124.274 42.4516 124.274 41.9716C124.274 40.6063 125.186 39.7849 127.01 39.5076L128.466 39.2836C128.764 39.2409 128.972 39.1663 129.09 39.0596C129.218 38.9423 129.282 38.7716 129.282 38.5476C129.282 38.1743 129.148 37.8756 128.882 37.6516C128.615 37.4276 128.263 37.3156 127.826 37.3156C127.303 37.3156 126.887 37.4489 126.578 37.7156C126.279 37.9823 126.119 38.3449 126.098 38.8036H124.482C124.514 38.3023 124.663 37.8489 124.93 37.4436C125.196 37.0276 125.564 36.7023 126.034 36.4676C126.514 36.2223 127.074 36.0996 127.714 36.0996C128.748 36.0996 129.527 36.3716 130.05 36.9156C130.583 37.4596 130.85 38.2276 130.85 39.2196V44.0996H129.346V43.7316C129.346 43.5929 129.356 43.3636 129.378 43.0436C129.175 43.4489 128.866 43.7689 128.45 44.0036C128.034 44.2383 127.532 44.3556 126.946 44.3556ZM127.266 43.1396C127.852 43.1396 128.338 42.9583 128.722 42.5956C129.106 42.2223 129.298 41.7369 129.298 41.1396V40.1156C129.18 40.2436 128.887 40.3556 128.418 40.4516L127.49 40.6276C126.434 40.8303 125.906 41.2676 125.906 41.9396C125.906 42.3129 126.034 42.6063 126.29 42.8196C126.546 43.0329 126.871 43.1396 127.266 43.1396ZM136.315 47.6996C135.249 47.6996 134.406 47.4329 133.787 46.8996C133.169 46.3663 132.859 45.6569 132.859 44.7716H134.443C134.454 45.2836 134.625 45.6889 134.955 45.9876C135.297 46.2969 135.755 46.4516 136.331 46.4516C137.003 46.4516 137.531 46.2649 137.915 45.8916C138.299 45.5289 138.491 44.9796 138.491 44.2436V43.3476C138.491 43.1876 138.502 42.9583 138.523 42.6596C138.299 43.0436 137.969 43.3529 137.531 43.5876C137.094 43.8223 136.593 43.9396 136.027 43.9396C135.334 43.9396 134.721 43.7849 134.187 43.4756C133.665 43.1556 133.254 42.7023 132.955 42.1156C132.667 41.5183 132.523 40.8249 132.523 40.0356C132.523 39.2569 132.678 38.5689 132.987 37.9716C133.307 37.3743 133.734 36.9156 134.267 36.5956C134.801 36.2649 135.387 36.0996 136.027 36.0996C137.158 36.0996 137.99 36.5423 138.523 37.4276C138.502 37.1289 138.491 36.8996 138.491 36.7396V36.3556H140.091V43.7636C140.091 45.0756 139.766 46.0569 139.115 46.7076C138.465 47.3689 137.531 47.6996 136.315 47.6996ZM136.379 42.6916C137.03 42.6916 137.563 42.4463 137.979 41.9556C138.395 41.4649 138.603 40.8249 138.603 40.0356C138.603 39.2569 138.395 38.6169 137.979 38.1156C137.563 37.6143 137.03 37.3636 136.379 37.3636C135.718 37.3636 135.179 37.6143 134.763 38.1156C134.358 38.6063 134.155 39.2463 134.155 40.0356C134.155 40.8249 134.358 41.4649 134.763 41.9556C135.179 42.4463 135.718 42.6916 136.379 42.6916ZM145.675 44.3556C144.491 44.3556 143.553 43.9929 142.859 43.2676C142.177 42.5423 141.835 41.5183 141.835 40.1956C141.835 39.4063 141.995 38.7023 142.315 38.0836C142.646 37.4543 143.094 36.9689 143.659 36.6276C144.235 36.2756 144.881 36.0996 145.595 36.0996C146.747 36.0996 147.643 36.4729 148.283 37.2196C148.923 37.9556 149.243 38.9583 149.243 40.2276V40.5636H143.451C143.462 41.3423 143.675 41.9609 144.091 42.4196C144.507 42.8783 145.041 43.1076 145.691 43.1076C146.182 43.1076 146.598 42.9903 146.939 42.7556C147.281 42.5209 147.494 42.1529 147.579 41.6516H149.179C149.094 42.4303 148.747 43.0756 148.139 43.5876C147.531 44.0996 146.71 44.3556 145.675 44.3556ZM147.563 39.4276C147.563 38.7876 147.387 38.2756 147.035 37.8916C146.683 37.5076 146.203 37.3156 145.595 37.3156C145.009 37.3156 144.518 37.5129 144.123 37.9076C143.739 38.3023 143.521 38.8089 143.467 39.4276H147.563Z" fill="#28313A"/>
<path d="M45 63.4404H55C55.6904 63.4404 56.25 64.0001 56.25 64.6904V74.6904C56.25 75.3808 55.6904 75.9404 55 75.9404H45C44.3096 75.9404 43.75 75.3808 43.75 74.6904V64.6904C43.75 64.0001 44.3096 63.4404 45 63.4404Z" stroke="#CE3D96" stroke-width="1.5"/>
<path d="M54.0049 66.6532C53.7446 66.393 53.3226 66.3929 53.0622 66.6532L48.4059 71.3095L46.9379 69.8415C46.6775 69.5813 46.2555 69.5812 45.9953 69.8415C45.735 70.1018 45.735 70.5238 45.9953 70.7841L47.9346 72.7234C48.0648 72.8534 48.2353 72.9186 48.406 72.9186C48.5766 72.9186 48.7471 72.8534 48.8773 72.7234L54.0049 67.5958C54.2651 67.3356 54.2651 66.9135 54.0049 66.6532Z" fill="#CE3D96"/>
<path d="M77.494 74.9004C76.71 74.9004 76.0193 74.7651 75.422 74.4944C74.8247 74.2238 74.3627 73.8364 74.036 73.3324C73.7093 72.8191 73.5413 72.2218 73.532 71.5404H74.834C74.8713 72.2498 75.1327 72.8098 75.618 73.2204C76.1033 73.6311 76.7333 73.8364 77.508 73.8364C78.3013 73.8364 78.9127 73.6778 79.342 73.3604C79.7807 73.0338 80 72.5998 80 72.0584C80 71.6198 79.832 71.2791 79.496 71.0364C79.1693 70.7844 78.6887 70.5838 78.054 70.4344L76.598 70.0984C75.786 69.9118 75.128 69.5944 74.624 69.1464C74.12 68.6891 73.868 68.1058 73.868 67.3964C73.868 66.8738 74.022 66.4071 74.33 65.9964C74.638 65.5764 75.0627 65.2498 75.604 65.0164C76.1547 64.7831 76.7707 64.6664 77.452 64.6664C78.5067 64.6664 79.3607 64.9371 80.014 65.4784C80.6767 66.0104 81.036 66.7291 81.092 67.6344H79.79C79.7433 67.0558 79.5053 66.5984 79.076 66.2624C78.656 65.9171 78.1053 65.7444 77.424 65.7444C76.7893 65.7444 76.262 65.8891 75.842 66.1784C75.422 66.4678 75.212 66.8364 75.212 67.2844C75.212 67.7044 75.352 68.0451 75.632 68.3064C75.912 68.5678 76.3413 68.7638 76.92 68.8944L78.656 69.2864C79.4867 69.4824 80.14 69.8044 80.616 70.2524C81.1013 70.6911 81.344 71.2651 81.344 71.9744C81.344 72.5158 81.1853 73.0104 80.868 73.4584C80.56 73.8971 80.1167 74.2471 79.538 74.5084C78.9593 74.7698 78.278 74.9004 77.494 74.9004ZM85.3441 74.7604C84.7841 74.7604 84.3221 74.6064 83.9581 74.2984C83.6034 73.9811 83.4261 73.4724 83.4261 72.7724V68.9364H82.1661V67.9424H83.4261V65.7164H84.6301V67.9424H86.0301V68.9364H84.6301V72.6464C84.6301 73.0198 84.7141 73.2858 84.8821 73.4444C85.0594 73.6031 85.3067 73.6824 85.6241 73.6824C85.7641 73.6824 85.9321 73.6684 86.1281 73.6404V74.6764C85.8761 74.7324 85.6147 74.7604 85.3441 74.7604ZM90.3731 74.9004C89.7291 74.9004 89.1551 74.7511 88.6511 74.4524C88.1471 74.1538 87.7551 73.7338 87.4751 73.1924C87.1951 72.6418 87.0551 72.0118 87.0551 71.3024C87.0551 70.6118 87.1951 69.9958 87.4751 69.4544C87.7551 68.9038 88.1471 68.4791 88.6511 68.1804C89.1551 67.8724 89.7291 67.7184 90.3731 67.7184C91.0078 67.7184 91.5771 67.8724 92.0811 68.1804C92.5851 68.4791 92.9771 68.9038 93.2571 69.4544C93.5465 69.9958 93.6911 70.6118 93.6911 71.3024C93.6911 72.0118 93.5465 72.6418 93.2571 73.1924C92.9771 73.7338 92.5851 74.1538 92.0811 74.4524C91.5771 74.7511 91.0078 74.9004 90.3731 74.9004ZM90.3731 73.9624C91.0078 73.9624 91.5118 73.7198 91.8851 73.2344C92.2585 72.7491 92.4451 72.1051 92.4451 71.3024C92.4451 70.5091 92.2538 69.8744 91.8711 69.3984C91.4978 68.9131 90.9985 68.6704 90.3731 68.6704C89.7478 68.6704 89.2438 68.9131 88.8611 69.3984C88.4878 69.8744 88.3011 70.5091 88.3011 71.3024C88.3011 72.1051 88.4878 72.7491 88.8611 73.2344C89.2345 73.7198 89.7385 73.9624 90.3731 73.9624ZM95.3231 74.6904V67.9424H96.5271V68.2364V69.0624C96.7044 68.6611 96.9751 68.3391 97.3391 68.0964C97.7124 67.8444 98.1464 67.7184 98.6411 67.7184C98.7718 67.7184 98.8744 67.7231 98.9491 67.7324V68.9224C98.8184 68.9038 98.6924 68.8944 98.5711 68.8944C97.9084 68.8944 97.3998 69.0811 97.0451 69.4544C96.6998 69.8278 96.5271 70.3831 96.5271 71.1204V74.6904H95.3231ZM102.869 74.9004C101.851 74.9004 101.049 74.5878 100.461 73.9624C99.8819 73.3371 99.5926 72.4458 99.5926 71.2884C99.5926 70.6071 99.7279 69.9958 99.9986 69.4544C100.279 68.9131 100.661 68.4884 101.147 68.1804C101.641 67.8724 102.192 67.7184 102.799 67.7184C103.788 67.7184 104.553 68.0404 105.095 68.6844C105.645 69.3284 105.921 70.2011 105.921 71.3024V71.5404H100.797C100.806 72.2871 101.007 72.8798 101.399 73.3184C101.791 73.7478 102.285 73.9624 102.883 73.9624C103.34 73.9624 103.732 73.8598 104.059 73.6544C104.385 73.4398 104.586 73.0898 104.661 72.6044H105.851C105.776 73.2578 105.487 73.8038 104.983 74.2424C104.479 74.6811 103.774 74.9004 102.869 74.9004ZM104.633 70.6864C104.633 70.0704 104.469 69.5804 104.143 69.2164C103.825 68.8524 103.377 68.6704 102.799 68.6704C102.248 68.6704 101.795 68.8618 101.441 69.2444C101.086 69.6271 100.885 70.1078 100.839 70.6864H104.633ZM113.779 74.9004C113.135 74.9004 112.561 74.7511 112.057 74.4524C111.553 74.1538 111.161 73.7338 110.881 73.1924C110.601 72.6418 110.461 72.0118 110.461 71.3024C110.461 70.6118 110.601 69.9958 110.881 69.4544C111.161 68.9038 111.553 68.4791 112.057 68.1804C112.561 67.8724 113.135 67.7184 113.779 67.7184C114.414 67.7184 114.983 67.8724 115.487 68.1804C115.991 68.4791 116.383 68.9038 116.663 69.4544C116.953 69.9958 117.097 70.6118 117.097 71.3024C117.097 72.0118 116.953 72.6418 116.663 73.1924C116.383 73.7338 115.991 74.1538 115.487 74.4524C114.983 74.7511 114.414 74.9004 113.779 74.9004ZM113.779 73.9624C114.414 73.9624 114.918 73.7198 115.291 73.2344C115.665 72.7491 115.851 72.1051 115.851 71.3024C115.851 70.5091 115.66 69.8744 115.277 69.3984C114.904 68.9131 114.405 68.6704 113.779 68.6704C113.154 68.6704 112.65 68.9131 112.267 69.3984C111.894 69.8744 111.707 70.5091 111.707 71.3024C111.707 72.1051 111.894 72.7491 112.267 73.2344C112.641 73.7198 113.145 73.9624 113.779 73.9624ZM118.729 74.6904V67.9424H119.933V68.4044V68.8524C120.12 68.5444 120.4 68.2784 120.773 68.0544C121.156 67.8304 121.567 67.7184 122.005 67.7184C122.789 67.7184 123.401 67.9564 123.839 68.4324C124.278 68.9084 124.497 69.5758 124.497 70.4344V74.6904H123.293V70.5884C123.293 69.9351 123.177 69.4544 122.943 69.1464C122.71 68.8291 122.332 68.6704 121.809 68.6704C121.24 68.6704 120.783 68.8618 120.437 69.2444C120.101 69.6178 119.933 70.0798 119.933 70.6304V74.6904H118.729ZM133.262 74.9004C132.478 74.9004 131.787 74.7651 131.19 74.4944C130.592 74.2238 130.13 73.8364 129.804 73.3324C129.477 72.8191 129.309 72.2218 129.3 71.5404H130.602C130.639 72.2498 130.9 72.8098 131.386 73.2204C131.871 73.6311 132.501 73.8364 133.276 73.8364C134.069 73.8364 134.68 73.6778 135.11 73.3604C135.548 73.0338 135.768 72.5998 135.768 72.0584C135.768 71.6198 135.6 71.2791 135.264 71.0364C134.937 70.7844 134.456 70.5838 133.822 70.4344L132.366 70.0984C131.554 69.9118 130.896 69.5944 130.392 69.1464C129.888 68.6891 129.636 68.1058 129.636 67.3964C129.636 66.8738 129.79 66.4071 130.098 65.9964C130.406 65.5764 130.83 65.2498 131.372 65.0164C131.922 64.7831 132.538 64.6664 133.22 64.6664C134.274 64.6664 135.128 64.9371 135.782 65.4784C136.444 66.0104 136.804 66.7291 136.86 67.6344H135.558C135.511 67.0558 135.273 66.5984 134.844 66.2624C134.424 65.9171 133.873 65.7444 133.192 65.7444C132.557 65.7444 132.03 65.8891 131.61 66.1784C131.19 66.4678 130.98 66.8364 130.98 67.2844C130.98 67.7044 131.12 68.0451 131.4 68.3064C131.68 68.5678 132.109 68.7638 132.688 68.8944L134.424 69.2864C135.254 69.4824 135.908 69.8044 136.384 70.2524C136.869 70.6911 137.112 71.2651 137.112 71.9744C137.112 72.5158 136.953 73.0104 136.636 73.4584C136.328 73.8971 135.884 74.2471 135.306 74.5084C134.727 74.7698 134.046 74.9004 133.262 74.9004ZM138.718 74.6904V64.8904H139.922V68.2784V68.8524C140.108 68.5164 140.388 68.2458 140.762 68.0404C141.135 67.8258 141.546 67.7184 141.994 67.7184C142.778 67.7184 143.389 67.9564 143.828 68.4324C144.266 68.9084 144.486 69.5758 144.486 70.4344V74.6904H143.282V70.5884C143.282 69.9351 143.16 69.4544 142.918 69.1464C142.675 68.8291 142.288 68.6704 141.756 68.6704C141.196 68.6704 140.748 68.8618 140.412 69.2444C140.085 69.6178 139.922 70.0798 139.922 70.6304V74.6904H138.718ZM149.354 74.9004C148.71 74.9004 148.136 74.7511 147.632 74.4524C147.128 74.1538 146.736 73.7338 146.456 73.1924C146.176 72.6418 146.036 72.0118 146.036 71.3024C146.036 70.6118 146.176 69.9958 146.456 69.4544C146.736 68.9038 147.128 68.4791 147.632 68.1804C148.136 67.8724 148.71 67.7184 149.354 67.7184C149.988 67.7184 150.558 67.8724 151.062 68.1804C151.566 68.4791 151.958 68.9038 152.238 69.4544C152.527 69.9958 152.672 70.6118 152.672 71.3024C152.672 72.0118 152.527 72.6418 152.238 73.1924C151.958 73.7338 151.566 74.1538 151.062 74.4524C150.558 74.7511 149.988 74.9004 149.354 74.9004ZM149.354 73.9624C149.988 73.9624 150.492 73.7198 150.866 73.2344C151.239 72.7491 151.426 72.1051 151.426 71.3024C151.426 70.5091 151.234 69.8744 150.852 69.3984C150.478 68.9131 149.979 68.6704 149.354 68.6704C148.728 68.6704 148.224 68.9131 147.842 69.3984C147.468 69.8744 147.282 70.5091 147.282 71.3024C147.282 72.1051 147.468 72.7491 147.842 73.2344C148.215 73.7198 148.719 73.9624 149.354 73.9624ZM154.304 77.6444V67.9424H155.508V68.4324V68.8664C155.713 68.5491 156.016 68.2784 156.418 68.0544C156.819 67.8304 157.258 67.7184 157.734 67.7184C158.368 67.7184 158.919 67.8724 159.386 68.1804C159.862 68.4884 160.221 68.9131 160.464 69.4544C160.716 69.9958 160.842 70.6118 160.842 71.3024C160.842 72.0118 160.711 72.6371 160.45 73.1784C160.188 73.7198 159.82 74.1444 159.344 74.4524C158.868 74.7511 158.322 74.9004 157.706 74.9004C157.23 74.9004 156.8 74.7978 156.418 74.5924C156.035 74.3871 155.732 74.1071 155.508 73.7524V74.3124V77.6444H154.304ZM157.524 73.9624C158.14 73.9624 158.634 73.7198 159.008 73.2344C159.39 72.7398 159.582 72.0958 159.582 71.3024C159.582 70.5184 159.39 69.8838 159.008 69.3984C158.634 68.9131 158.14 68.6704 157.524 68.6704C156.908 68.6704 156.404 68.9131 156.012 69.3984C155.629 69.8744 155.438 70.5091 155.438 71.3024C155.438 72.0958 155.629 72.7398 156.012 73.2344C156.404 73.7198 156.908 73.9624 157.524 73.9624ZM162.368 66.6684V65.2264H163.754V66.6684H162.368ZM162.466 67.9424H163.67V74.6904H162.466V67.9424ZM166.237 74.6904V68.9364H164.963V67.9424H166.237V66.6964C166.237 66.0618 166.424 65.5671 166.797 65.2124C167.171 64.8484 167.628 64.6664 168.169 64.6664C168.44 64.6664 168.669 64.7084 168.855 64.7924V65.8144C168.603 65.7864 168.459 65.7724 168.421 65.7724C168.104 65.7724 167.861 65.8611 167.693 66.0384C167.525 66.2064 167.441 66.4538 167.441 66.7804V67.9424H168.841V68.9364H167.441V74.6904H166.237ZM170.766 77.6444L171.998 74.4524L169.296 67.9424H170.626L172.306 72.2544L172.628 73.0804L172.922 72.2544L174.406 67.9424H175.666L172.04 77.6444H170.766Z" fill="#28313A"/>
<path d="M45 91.4404H55C55.6904 91.4404 56.25 92.0001 56.25 92.6904V102.69C56.25 103.381 55.6904 103.94 55 103.94H45C44.3096 103.94 43.75 103.381 43.75 102.69V92.6904C43.75 92.0001 44.3096 91.4404 45 91.4404Z" stroke="#CE3D96" stroke-width="1.5"/>
<path d="M54.0049 94.6532C53.7446 94.393 53.3226 94.3929 53.0622 94.6532L48.4059 99.3095L46.9379 97.8415C46.6775 97.5813 46.2555 97.5812 45.9953 97.8415C45.735 98.1018 45.735 98.5238 45.9953 98.7841L47.9346 100.723C48.0648 100.853 48.2353 100.919 48.406 100.919C48.5766 100.919 48.7471 100.853 48.8773 100.723L54.0049 95.5958C54.2651 95.3356 54.2651 94.9135 54.0049 94.6532Z" fill="#CE3D96"/>
<path d="M78.362 102.9C77.4287 102.9 76.6073 102.695 75.898 102.284C75.198 101.864 74.652 101.267 74.26 100.492C73.868 99.7084 73.672 98.7891 73.672 97.7344C73.672 96.7358 73.8727 95.8538 74.274 95.0884C74.6847 94.3138 75.2493 93.7164 75.968 93.2964C76.6867 92.8764 77.494 92.6664 78.39 92.6664C79.1647 92.6664 79.8553 92.8158 80.462 93.1144C81.0687 93.4038 81.554 93.8051 81.918 94.3184C82.282 94.8318 82.4967 95.4104 82.562 96.0544H81.162C81.0313 95.3264 80.7233 94.7618 80.238 94.3604C79.7527 93.9498 79.118 93.7444 78.334 93.7444C77.6713 93.7444 77.088 93.9078 76.584 94.2344C76.0893 94.5518 75.702 95.0138 75.422 95.6204C75.1513 96.2178 75.016 96.9224 75.016 97.7344C75.016 98.5558 75.156 99.2791 75.436 99.9044C75.716 100.52 76.108 100.996 76.612 101.332C77.116 101.668 77.69 101.836 78.334 101.836C79.1273 101.836 79.776 101.631 80.28 101.22C80.784 100.8 81.106 100.236 81.246 99.5264H82.576C82.4453 100.572 82.002 101.398 81.246 102.004C80.49 102.602 79.5287 102.9 78.362 102.9ZM84.0415 94.6684V93.2264H85.4275V94.6684H84.0415ZM84.1395 95.9424H85.3435V102.69H84.1395V95.9424ZM87.4071 102.69V95.9424H88.6111V96.4044V96.8524C88.7978 96.5444 89.0778 96.2784 89.4511 96.0544C89.8338 95.8304 90.2444 95.7184 90.6831 95.7184C91.4671 95.7184 92.0784 95.9564 92.5171 96.4324C92.9558 96.9084 93.1751 97.5758 93.1751 98.4344V102.69H91.9711V98.5884C91.9711 97.9351 91.8544 97.4544 91.6211 97.1464C91.3878 96.8291 91.0098 96.6704 90.4871 96.6704C89.9178 96.6704 89.4604 96.8618 89.1151 97.2444C88.7791 97.6178 88.6111 98.0798 88.6111 98.6304V102.69H87.4071ZM98.015 102.9C96.9977 102.9 96.195 102.588 95.607 101.962C95.0284 101.337 94.739 100.446 94.739 99.2884C94.739 98.6071 94.8744 97.9958 95.145 97.4544C95.425 96.9131 95.8077 96.4884 96.293 96.1804C96.7877 95.8724 97.3384 95.7184 97.945 95.7184C98.9344 95.7184 99.6997 96.0404 100.241 96.6844C100.792 97.3284 101.067 98.2011 101.067 99.3024V99.5404H95.943C95.9524 100.287 96.153 100.88 96.545 101.318C96.937 101.748 97.4317 101.962 98.029 101.962C98.4864 101.962 98.8784 101.86 99.205 101.654C99.5317 101.44 99.7324 101.09 99.807 100.604H100.997C100.922 101.258 100.633 101.804 100.129 102.242C99.625 102.681 98.9204 102.9 98.015 102.9ZM99.779 98.6864C99.779 98.0704 99.6157 97.5804 99.289 97.2164C98.9717 96.8524 98.5237 96.6704 97.945 96.6704C97.3944 96.6704 96.9417 96.8618 96.587 97.2444C96.2324 97.6271 96.0317 98.1078 95.985 98.6864H99.779ZM102.72 102.69V95.9424H103.924V96.4744V96.8524C104.138 96.5071 104.414 96.2318 104.75 96.0264C105.095 95.8211 105.478 95.7184 105.898 95.7184C106.355 95.7184 106.756 95.8304 107.102 96.0544C107.456 96.2784 107.732 96.6098 107.928 97.0484C108.17 96.6378 108.478 96.3158 108.852 96.0824C109.234 95.8398 109.659 95.7184 110.126 95.7184C110.835 95.7184 111.404 95.9471 111.834 96.4044C112.272 96.8618 112.492 97.5338 112.492 98.4204V102.69H111.288V98.6584C111.288 97.9958 111.176 97.5011 110.952 97.1744C110.737 96.8384 110.378 96.6704 109.874 96.6704C109.36 96.6704 108.954 96.8664 108.656 97.2584C108.357 97.6411 108.208 98.1124 108.208 98.6724V102.69H107.004V98.7004C107.004 98.0378 106.892 97.5338 106.668 97.1884C106.453 96.8431 106.103 96.6704 105.618 96.6704C105.104 96.6704 104.694 96.8711 104.386 97.2724C104.078 97.6644 103.924 98.1498 103.924 98.7284V102.69H102.72ZM116.395 102.9C115.733 102.9 115.177 102.714 114.729 102.34C114.291 101.967 114.071 101.468 114.071 100.842C114.071 100.236 114.277 99.7644 114.687 99.4284C115.107 99.0831 115.649 98.8544 116.311 98.7424L117.753 98.5184C118.005 98.4811 118.183 98.4111 118.285 98.3084C118.388 98.2058 118.439 98.0518 118.439 97.8464C118.439 97.4824 118.313 97.1978 118.061 96.9924C117.809 96.7778 117.483 96.6704 117.081 96.6704C116.577 96.6704 116.19 96.7964 115.919 97.0484C115.649 97.2911 115.504 97.6271 115.485 98.0564H114.281C114.3 97.6364 114.417 97.2491 114.631 96.8944C114.846 96.5398 115.154 96.2551 115.555 96.0404C115.966 95.8258 116.442 95.7184 116.983 95.7184C117.814 95.7184 118.458 95.9471 118.915 96.4044C119.382 96.8618 119.615 97.4824 119.615 98.2664V102.69H118.467V102.354V101.78C118.299 102.135 118.033 102.41 117.669 102.606C117.315 102.802 116.89 102.9 116.395 102.9ZM116.563 101.962C117.105 101.962 117.553 101.794 117.907 101.458C118.262 101.122 118.439 100.684 118.439 100.142V99.1484C118.365 99.2604 118.117 99.3584 117.697 99.4424L116.717 99.6244C115.784 99.8018 115.317 100.208 115.317 100.842C115.317 101.178 115.434 101.449 115.667 101.654C115.91 101.86 116.209 101.962 116.563 101.962Z" fill="#28313A"/>
<path d="M45 119.44H55C55.6904 119.44 56.25 120 56.25 120.69V130.69C56.25 131.381 55.6904 131.94 55 131.94H45C44.3096 131.94 43.75 131.381 43.75 130.69V120.69C43.75 120 44.3096 119.44 45 119.44Z" stroke="#CE3D96" stroke-width="1.5"/>
<path d="M54.0049 122.653C53.7446 122.393 53.3226 122.393 53.0622 122.653L48.4059 127.309L46.9379 125.841C46.6775 125.581 46.2555 125.581 45.9953 125.842C45.735 126.102 45.735 126.524 45.9953 126.784L47.9346 128.723C48.0648 128.853 48.2353 128.919 48.406 128.919C48.5766 128.919 48.7471 128.853 48.8773 128.723L54.0049 123.596C54.2651 123.336 54.2651 122.914 54.0049 122.653Z" fill="#CE3D96"/>
<path d="M74.26 120.89H75.534V130.69H74.26V120.89ZM77.8505 130.69V123.942H79.0545V124.404V124.852C79.2411 124.544 79.5211 124.278 79.8945 124.054C80.2771 123.83 80.6878 123.718 81.1265 123.718C81.9105 123.718 82.5218 123.956 82.9605 124.432C83.3991 124.908 83.6185 125.576 83.6185 126.434V130.69H82.4145V126.588C82.4145 125.935 82.2978 125.454 82.0645 125.146C81.8311 124.829 81.4531 124.67 80.9305 124.67C80.3611 124.67 79.9038 124.862 79.5585 125.244C79.2225 125.618 79.0545 126.08 79.0545 126.63V130.69H77.8505ZM86.0517 130.69V124.936H84.7777V123.942H86.0517V122.696C86.0517 122.062 86.2384 121.567 86.6117 121.212C86.9851 120.848 87.4424 120.666 87.9837 120.666C88.2544 120.666 88.4831 120.708 88.6697 120.792V121.814C88.4177 121.786 88.2731 121.772 88.2357 121.772C87.9184 121.772 87.6757 121.861 87.5077 122.038C87.3397 122.206 87.2557 122.454 87.2557 122.78V123.942H88.6557V124.936H87.2557V130.69H86.0517ZM89.9017 120.89H91.1057V130.69H89.9017V120.89ZM93.065 122.668V121.226H94.451V122.668H93.065ZM93.163 123.942H94.367V130.69H93.163V123.942ZM99.2445 133.868C98.3579 133.868 97.6439 133.635 97.1025 133.168C96.5705 132.711 96.3045 132.1 96.3045 131.334H97.4945C97.4945 131.82 97.6532 132.207 97.9705 132.496C98.2879 132.786 98.7172 132.93 99.2585 132.93C99.9119 132.93 100.411 132.753 100.757 132.398C101.111 132.044 101.289 131.502 101.289 130.774V129.948V129.5C101.111 129.846 100.822 130.121 100.421 130.326C100.019 130.522 99.5712 130.62 99.0765 130.62C98.4605 130.62 97.9192 130.48 97.4525 130.2C96.9952 129.92 96.6405 129.524 96.3885 129.01C96.1365 128.488 96.0105 127.881 96.0105 127.19C96.0105 126.509 96.1459 125.907 96.4165 125.384C96.6872 124.852 97.0559 124.442 97.5225 124.152C97.9985 123.863 98.5305 123.718 99.1185 123.718C99.6319 123.718 100.071 123.83 100.435 124.054C100.799 124.269 101.083 124.535 101.289 124.852V124.306V123.942H102.493V130.354C102.493 132.697 101.41 133.868 99.2445 133.868ZM99.3145 129.682C99.9212 129.682 100.416 129.454 100.799 128.996C101.181 128.539 101.373 127.937 101.373 127.19C101.373 126.705 101.284 126.271 101.107 125.888C100.929 125.506 100.682 125.207 100.365 124.992C100.057 124.778 99.7065 124.67 99.3145 124.67C98.7079 124.67 98.2132 124.904 97.8305 125.37C97.4479 125.837 97.2565 126.444 97.2565 127.19C97.2565 127.946 97.4432 128.553 97.8165 129.01C98.1992 129.458 98.6985 129.682 99.3145 129.682ZM104.565 130.69V120.89H105.769V124.278V124.852C105.956 124.516 106.236 124.246 106.609 124.04C106.983 123.826 107.393 123.718 107.841 123.718C108.625 123.718 109.237 123.956 109.675 124.432C110.114 124.908 110.333 125.576 110.333 126.434V130.69H109.129V126.588C109.129 125.935 109.008 125.454 108.765 125.146C108.523 124.829 108.135 124.67 107.603 124.67C107.043 124.67 106.595 124.862 106.259 125.244C105.933 125.618 105.769 126.08 105.769 126.63V130.69H104.565ZM114.643 130.76C114.083 130.76 113.621 130.606 113.257 130.298C112.902 129.981 112.725 129.472 112.725 128.772V124.936H111.465V123.942H112.725V121.716H113.929V123.942H115.329V124.936H113.929V128.646C113.929 129.02 114.013 129.286 114.181 129.444C114.358 129.603 114.606 129.682 114.923 129.682C115.063 129.682 115.231 129.668 115.427 129.64V130.676C115.175 130.732 114.914 130.76 114.643 130.76ZM123.048 130.9C122.031 130.9 121.228 130.588 120.64 129.962C120.062 129.337 119.772 128.446 119.772 127.288C119.772 126.607 119.908 125.996 120.178 125.454C120.458 124.913 120.841 124.488 121.326 124.18C121.821 123.872 122.372 123.718 122.978 123.718C123.968 123.718 124.733 124.04 125.274 124.684C125.825 125.328 126.1 126.201 126.1 127.302V127.54H120.976C120.986 128.287 121.186 128.88 121.578 129.318C121.97 129.748 122.465 129.962 123.062 129.962C123.52 129.962 123.912 129.86 124.238 129.654C124.565 129.44 124.766 129.09 124.84 128.604H126.03C125.956 129.258 125.666 129.804 125.162 130.242C124.658 130.681 123.954 130.9 123.048 130.9ZM124.812 126.686C124.812 126.07 124.649 125.58 124.322 125.216C124.005 124.852 123.557 124.67 122.978 124.67C122.428 124.67 121.975 124.862 121.62 125.244C121.266 125.627 121.065 126.108 121.018 126.686H124.812ZM127.753 130.69V123.942H128.957V124.404V124.852C129.143 124.544 129.423 124.278 129.797 124.054C130.179 123.83 130.59 123.718 131.029 123.718C131.813 123.718 132.424 123.956 132.863 124.432C133.301 124.908 133.521 125.576 133.521 126.434V130.69H132.317V126.588C132.317 125.935 132.2 125.454 131.967 125.146C131.733 124.829 131.355 124.67 130.833 124.67C130.263 124.67 129.806 124.862 129.461 125.244C129.125 125.618 128.957 126.08 128.957 126.63V130.69H127.753ZM137.83 130.76C137.27 130.76 136.808 130.606 136.444 130.298C136.09 129.981 135.912 129.472 135.912 128.772V124.936H134.652V123.942H135.912V121.716H137.116V123.942H138.516V124.936H137.116V128.646C137.116 129.02 137.2 129.286 137.368 129.444C137.546 129.603 137.793 129.682 138.11 129.682C138.25 129.682 138.418 129.668 138.614 129.64V130.676C138.362 130.732 138.101 130.76 137.83 130.76ZM142.831 130.9C141.814 130.9 141.011 130.588 140.423 129.962C139.845 129.337 139.555 128.446 139.555 127.288C139.555 126.607 139.691 125.996 139.961 125.454C140.241 124.913 140.624 124.488 141.109 124.18C141.604 123.872 142.155 123.718 142.761 123.718C143.751 123.718 144.516 124.04 145.057 124.684C145.608 125.328 145.883 126.201 145.883 127.302V127.54H140.759C140.769 128.287 140.969 128.88 141.361 129.318C141.753 129.748 142.248 129.962 142.845 129.962C143.303 129.962 143.695 129.86 144.021 129.654C144.348 129.44 144.549 129.09 144.623 128.604H145.813C145.739 129.258 145.449 129.804 144.945 130.242C144.441 130.681 143.737 130.9 142.831 130.9ZM144.595 126.686C144.595 126.07 144.432 125.58 144.105 125.216C143.788 124.852 143.34 124.67 142.761 124.67C142.211 124.67 141.758 124.862 141.403 125.244C141.049 125.627 140.848 126.108 140.801 126.686H144.595ZM147.536 130.69V123.942H148.74V124.236V125.062C148.917 124.661 149.188 124.339 149.552 124.096C149.925 123.844 150.359 123.718 150.854 123.718C150.985 123.718 151.087 123.723 151.162 123.732V124.922C151.031 124.904 150.905 124.894 150.784 124.894C150.121 124.894 149.613 125.081 149.258 125.454C148.913 125.828 148.74 126.383 148.74 127.12V130.69H147.536ZM154.784 130.76C154.224 130.76 153.762 130.606 153.398 130.298C153.043 129.981 152.866 129.472 152.866 128.772V124.936H151.606V123.942H152.866V121.716H154.07V123.942H155.47V124.936H154.07V128.646C154.07 129.02 154.154 129.286 154.322 129.444C154.499 129.603 154.746 129.682 155.064 129.682C155.204 129.682 155.372 129.668 155.568 129.64V130.676C155.316 130.732 155.054 130.76 154.784 130.76ZM158.929 130.9C158.266 130.9 157.711 130.714 157.263 130.34C156.824 129.967 156.605 129.468 156.605 128.842C156.605 128.236 156.81 127.764 157.221 127.428C157.641 127.083 158.182 126.854 158.845 126.742L160.287 126.518C160.539 126.481 160.716 126.411 160.819 126.308C160.921 126.206 160.973 126.052 160.973 125.846C160.973 125.482 160.847 125.198 160.595 124.992C160.343 124.778 160.016 124.67 159.615 124.67C159.111 124.67 158.723 124.796 158.453 125.048C158.182 125.291 158.037 125.627 158.019 126.056H156.815C156.833 125.636 156.95 125.249 157.165 124.894C157.379 124.54 157.687 124.255 158.089 124.04C158.499 123.826 158.975 123.718 159.517 123.718C160.347 123.718 160.991 123.947 161.449 124.404C161.915 124.862 162.149 125.482 162.149 126.266V130.69H161.001V130.354V129.78C160.833 130.135 160.567 130.41 160.203 130.606C159.848 130.802 159.423 130.9 158.929 130.9ZM159.097 129.962C159.638 129.962 160.086 129.794 160.441 129.458C160.795 129.122 160.973 128.684 160.973 128.142V127.148C160.898 127.26 160.651 127.358 160.231 127.442L159.251 127.624C158.317 127.802 157.851 128.208 157.851 128.842C157.851 129.178 157.967 129.449 158.201 129.654C158.443 129.86 158.742 129.962 159.097 129.962ZM164.036 122.668V121.226H165.422V122.668H164.036ZM164.134 123.942H165.338V130.69H164.134V123.942ZM167.401 130.69V123.942H168.605V124.404V124.852C168.792 124.544 169.072 124.278 169.445 124.054C169.828 123.83 170.239 123.718 170.677 123.718C171.461 123.718 172.073 123.956 172.511 124.432C172.95 124.908 173.169 125.576 173.169 126.434V130.69H171.965V126.588C171.965 125.935 171.849 125.454 171.615 125.146C171.382 124.829 171.004 124.67 170.481 124.67C169.912 124.67 169.455 124.862 169.109 125.244C168.773 125.618 168.605 126.08 168.605 126.63V130.69H167.401ZM175.153 130.69V123.942H176.357V124.474V124.852C176.572 124.507 176.847 124.232 177.183 124.026C177.529 123.821 177.911 123.718 178.331 123.718C178.789 123.718 179.19 123.83 179.535 124.054C179.89 124.278 180.165 124.61 180.361 125.048C180.604 124.638 180.912 124.316 181.285 124.082C181.668 123.84 182.093 123.718 182.559 123.718C183.269 123.718 183.838 123.947 184.267 124.404C184.706 124.862 184.925 125.534 184.925 126.42V130.69H183.721V126.658C183.721 125.996 183.609 125.501 183.385 125.174C183.171 124.838 182.811 124.67 182.307 124.67C181.794 124.67 181.388 124.866 181.089 125.258C180.791 125.641 180.641 126.112 180.641 126.672V130.69H179.437V126.7C179.437 126.038 179.325 125.534 179.101 125.188C178.887 124.843 178.537 124.67 178.051 124.67C177.538 124.67 177.127 124.871 176.819 125.272C176.511 125.664 176.357 126.15 176.357 126.728V130.69H175.153ZM189.767 130.9C188.75 130.9 187.947 130.588 187.359 129.962C186.78 129.337 186.491 128.446 186.491 127.288C186.491 126.607 186.626 125.996 186.897 125.454C187.177 124.913 187.56 124.488 188.045 124.18C188.54 123.872 189.09 123.718 189.697 123.718C190.686 123.718 191.452 124.04 191.993 124.684C192.544 125.328 192.819 126.201 192.819 127.302V127.54H187.695C187.704 128.287 187.905 128.88 188.297 129.318C188.689 129.748 189.184 129.962 189.781 129.962C190.238 129.962 190.63 129.86 190.957 129.654C191.284 129.44 191.484 129.09 191.559 128.604H192.749C192.674 129.258 192.385 129.804 191.881 130.242C191.377 130.681 190.672 130.9 189.767 130.9ZM191.531 126.686C191.531 126.07 191.368 125.58 191.041 125.216C190.724 124.852 190.276 124.67 189.697 124.67C189.146 124.67 188.694 124.862 188.339 125.244C187.984 125.627 187.784 126.108 187.737 126.686H191.531ZM194.472 130.69V123.942H195.676V124.404V124.852C195.862 124.544 196.142 124.278 196.516 124.054C196.898 123.83 197.309 123.718 197.748 123.718C198.532 123.718 199.143 123.956 199.582 124.432C200.02 124.908 200.24 125.576 200.24 126.434V130.69H199.036V126.588C199.036 125.935 198.919 125.454 198.686 125.146C198.452 124.829 198.074 124.67 197.552 124.67C196.982 124.67 196.525 124.862 196.18 125.244C195.844 125.618 195.676 126.08 195.676 126.63V130.69H194.472ZM204.549 130.76C203.989 130.76 203.527 130.606 203.163 130.298C202.808 129.981 202.631 129.472 202.631 128.772V124.936H201.371V123.942H202.631V121.716H203.835V123.942H205.235V124.936H203.835V128.646C203.835 129.02 203.919 129.286 204.087 129.444C204.264 129.603 204.512 129.682 204.829 129.682C204.969 129.682 205.137 129.668 205.333 129.64V130.676C205.081 130.732 204.82 130.76 204.549 130.76Z" fill="#28313A"/>
<path d="M45 147.44H55C55.6904 147.44 56.25 148 56.25 148.69V158.69C56.25 159.381 55.6904 159.94 55 159.94H45C44.3096 159.94 43.75 159.381 43.75 158.69V148.69C43.75 148 44.3096 147.44 45 147.44Z" stroke="#CE3D96" stroke-width="1.5"/>
<path d="M54.0049 150.653C53.7446 150.393 53.3226 150.393 53.0622 150.653L48.4059 155.309L46.9379 153.841C46.6775 153.581 46.2555 153.581 45.9953 153.842C45.735 154.102 45.735 154.524 45.9953 154.784L47.9346 156.723C48.0648 156.853 48.2353 156.919 48.406 156.919C48.5766 156.919 48.7471 156.853 48.8773 156.723L54.0049 151.596C54.2651 151.336 54.2651 150.914 54.0049 150.653Z" fill="#CE3D96"/>
<path d="M74.26 148.89H75.534V158.69H74.26V148.89ZM77.8505 158.69V151.942H79.0545V152.404V152.852C79.2411 152.544 79.5211 152.278 79.8945 152.054C80.2771 151.83 80.6878 151.718 81.1265 151.718C81.9105 151.718 82.5218 151.956 82.9605 152.432C83.3991 152.908 83.6185 153.576 83.6185 154.434V158.69H82.4145V154.588C82.4145 153.935 82.2978 153.454 82.0645 153.146C81.8311 152.829 81.4531 152.67 80.9305 152.67C80.3611 152.67 79.9038 152.862 79.5585 153.244C79.2225 153.618 79.0545 154.08 79.0545 154.63V158.69H77.8505ZM89.1024 155.442H85.4624V154.42H89.1024V155.442ZM95.2865 158.9C94.3531 158.9 93.5318 158.681 92.8225 158.242C92.1225 157.804 91.5811 157.202 91.1985 156.436C90.8251 155.662 90.6385 154.798 90.6385 153.846C90.6385 152.764 90.8531 151.83 91.2825 151.046C91.7118 150.262 92.2858 149.67 93.0045 149.268C93.7325 148.867 94.5305 148.666 95.3985 148.666C96.1078 148.666 96.7518 148.797 97.3305 149.058C97.9185 149.32 98.3898 149.684 98.7445 150.15C99.1085 150.608 99.3278 151.135 99.4025 151.732H98.0445C97.9418 151.144 97.6478 150.668 97.1625 150.304C96.6771 149.931 96.0891 149.744 95.3985 149.744C94.7358 149.744 94.1478 149.903 93.6345 150.22C93.1211 150.528 92.7151 150.99 92.4165 151.606C92.1271 152.222 91.9825 152.969 91.9825 153.846C91.9825 154.602 92.1225 155.284 92.4025 155.89C92.6825 156.497 93.0745 156.973 93.5785 157.318C94.0918 157.664 94.6751 157.836 95.3285 157.836C96.2431 157.836 96.9618 157.58 97.4845 157.066C98.0165 156.544 98.2825 155.797 98.2825 154.826V154.644H95.2025V153.566H99.4445V158.69H98.3945V158.256V157.332C98.1238 157.79 97.7038 158.168 97.1345 158.466C96.5745 158.756 95.9585 158.9 95.2865 158.9ZM103.257 158.9C102.594 158.9 102.039 158.714 101.591 158.34C101.152 157.967 100.933 157.468 100.933 156.842C100.933 156.236 101.138 155.764 101.549 155.428C101.969 155.083 102.51 154.854 103.173 154.742L104.615 154.518C104.867 154.481 105.044 154.411 105.147 154.308C105.249 154.206 105.301 154.052 105.301 153.846C105.301 153.482 105.175 153.198 104.923 152.992C104.671 152.778 104.344 152.67 103.943 152.67C103.439 152.67 103.051 152.796 102.781 153.048C102.51 153.291 102.365 153.627 102.347 154.056H101.143C101.161 153.636 101.278 153.249 101.493 152.894C101.707 152.54 102.015 152.255 102.417 152.04C102.827 151.826 103.303 151.718 103.845 151.718C104.675 151.718 105.319 151.947 105.777 152.404C106.243 152.862 106.477 153.482 106.477 154.266V158.69H105.329V158.354V157.78C105.161 158.135 104.895 158.41 104.531 158.606C104.176 158.802 103.751 158.9 103.257 158.9ZM103.425 157.962C103.966 157.962 104.414 157.794 104.769 157.458C105.123 157.122 105.301 156.684 105.301 156.142V155.148C105.226 155.26 104.979 155.358 104.559 155.442L103.579 155.624C102.645 155.802 102.179 156.208 102.179 156.842C102.179 157.178 102.295 157.449 102.529 157.654C102.771 157.86 103.07 157.962 103.425 157.962ZM108.462 158.69V151.942H109.666V152.474V152.852C109.88 152.507 110.156 152.232 110.492 152.026C110.837 151.821 111.22 151.718 111.64 151.718C112.097 151.718 112.498 151.83 112.844 152.054C113.198 152.278 113.474 152.61 113.67 153.048C113.912 152.638 114.22 152.316 114.594 152.082C114.976 151.84 115.401 151.718 115.868 151.718C116.577 151.718 117.146 151.947 117.576 152.404C118.014 152.862 118.234 153.534 118.234 154.42V158.69H117.03V154.658C117.03 153.996 116.918 153.501 116.694 153.174C116.479 152.838 116.12 152.67 115.616 152.67C115.102 152.67 114.696 152.866 114.398 153.258C114.099 153.641 113.95 154.112 113.95 154.672V158.69H112.746V154.7C112.746 154.038 112.634 153.534 112.41 153.188C112.195 152.843 111.845 152.67 111.36 152.67C110.846 152.67 110.436 152.871 110.128 153.272C109.82 153.664 109.666 154.15 109.666 154.728V158.69H108.462ZM123.076 158.9C122.058 158.9 121.256 158.588 120.668 157.962C120.089 157.337 119.8 156.446 119.8 155.288C119.8 154.607 119.935 153.996 120.206 153.454C120.486 152.913 120.868 152.488 121.354 152.18C121.848 151.872 122.399 151.718 123.006 151.718C123.995 151.718 124.76 152.04 125.302 152.684C125.852 153.328 126.128 154.201 126.128 155.302V155.54H121.004C121.013 156.287 121.214 156.88 121.606 157.318C121.998 157.748 122.492 157.962 123.09 157.962C123.547 157.962 123.939 157.86 124.266 157.654C124.592 157.44 124.793 157.09 124.868 156.604H126.058C125.983 157.258 125.694 157.804 125.19 158.242C124.686 158.681 123.981 158.9 123.076 158.9ZM124.84 154.686C124.84 154.07 124.676 153.58 124.35 153.216C124.032 152.852 123.584 152.67 123.006 152.67C122.455 152.67 122.002 152.862 121.648 153.244C121.293 153.627 121.092 154.108 121.046 154.686H124.84Z" fill="#28313A"/>
<path d="M43 176.69C43 174.481 44.7909 172.69 47 172.69H202C204.209 172.69 206 174.481 206 176.69C206 178.9 204.209 180.69 202 180.69H47C44.7909 180.69 43 178.9 43 176.69Z" fill="#EEF1F5"/>
<path d="M43 194.69C43 192.481 44.7909 190.69 47 190.69H139C141.209 190.69 143 192.481 143 194.69C143 196.9 141.209 198.69 139 198.69H47C44.7909 198.69 43 196.9 43 194.69Z" fill="#EEF1F5"/>
<path d="M49.2136 44.3556C48.1362 44.3556 47.1869 44.1209 46.3656 43.6516C45.5549 43.1716 44.9256 42.4889 44.4776 41.6036C44.0296 40.7076 43.8056 39.6516 43.8056 38.4356C43.8056 37.2836 44.0402 36.2703 44.5096 35.3956C44.9896 34.5103 45.6402 33.8276 46.4616 33.3476C47.2936 32.8676 48.2269 32.6276 49.2616 32.6276C50.1576 32.6276 50.9576 32.7983 51.6616 33.1396C52.3656 33.4703 52.9309 33.9396 53.3576 34.5476C53.7949 35.1556 54.0509 35.8489 54.1256 36.6276H52.3016C52.1736 35.8276 51.8429 35.2036 51.3096 34.7556C50.7869 34.2969 50.0936 34.0676 49.2296 34.0676C48.5149 34.0676 47.8802 34.2436 47.3256 34.5956C46.7709 34.9476 46.3389 35.4543 46.0296 36.1156C45.7309 36.7663 45.5816 37.5396 45.5816 38.4356C45.5816 39.3423 45.7362 40.1369 46.0456 40.8196C46.3549 41.4916 46.7816 42.0143 47.3256 42.3876C47.8802 42.7503 48.5096 42.9316 49.2136 42.9316C50.0882 42.9316 50.8029 42.6969 51.3576 42.2276C51.9229 41.7476 52.2749 41.1129 52.4136 40.3236H54.1416C53.9922 41.5609 53.4802 42.5423 52.6056 43.2676C51.7309 43.9929 50.6002 44.3556 49.2136 44.3556ZM59.1917 44.3556C58.4344 44.3556 57.7624 44.1849 57.1757 43.8436C56.589 43.5023 56.1304 43.0223 55.7997 42.4036C55.4797 41.7743 55.3197 41.0489 55.3197 40.2276C55.3197 39.4169 55.485 38.7023 55.8157 38.0836C56.1464 37.4543 56.605 36.9689 57.1917 36.6276C57.7784 36.2756 58.445 36.0996 59.1917 36.0996C59.9384 36.0996 60.605 36.2756 61.1917 36.6276C61.7784 36.9689 62.237 37.4543 62.5677 38.0836C62.8984 38.7023 63.0637 39.4169 63.0637 40.2276C63.0637 41.0489 62.8984 41.7743 62.5677 42.4036C62.237 43.0223 61.7784 43.5023 61.1917 43.8436C60.605 44.1849 59.9384 44.3556 59.1917 44.3556ZM59.1917 43.1076C59.8744 43.1076 60.4184 42.8516 60.8237 42.3396C61.229 41.8169 61.4317 41.1129 61.4317 40.2276C61.4317 39.3529 61.2237 38.6596 60.8077 38.1476C60.4024 37.6249 59.8637 37.3636 59.1917 37.3636C58.5197 37.3636 57.9757 37.6249 57.5597 38.1476C57.1544 38.6596 56.9517 39.3529 56.9517 40.2276C56.9517 41.1129 57.1544 41.8169 57.5597 42.3396C57.965 42.8516 58.509 43.1076 59.1917 43.1076ZM64.8153 44.0996V36.3556H66.3993V36.8196C66.3993 37.0756 66.394 37.2783 66.3833 37.4276C66.5966 37.0436 66.9113 36.7289 67.3273 36.4836C67.754 36.2276 68.2286 36.0996 68.7513 36.0996C69.6366 36.0996 70.3246 36.3769 70.8153 36.9316C71.3166 37.4756 71.5673 38.2329 71.5673 39.2036V44.0996H69.9833V39.4276C69.9833 38.0516 69.4446 37.3636 68.3673 37.3636C67.7806 37.3636 67.306 37.5663 66.9433 37.9716C66.5806 38.3769 66.3993 38.8783 66.3993 39.4756V44.0996H64.8153ZM76.6198 44.2116C75.9051 44.2116 75.3398 44.0196 74.9238 43.6356C74.5078 43.2409 74.2998 42.6329 74.2998 41.8116V37.6356H72.7318V36.3556H74.2998V33.6996H75.8998V36.3556H77.6118V37.6356H75.8998V41.6196C75.8998 42.4409 76.2785 42.8516 77.0358 42.8516C77.2171 42.8516 77.4091 42.8356 77.6118 42.8036V44.0836C77.2918 44.1689 76.9611 44.2116 76.6198 44.2116ZM82.4722 44.3556C81.2882 44.3556 80.3495 43.9929 79.6562 43.2676C78.9735 42.5423 78.6322 41.5183 78.6322 40.1956C78.6322 39.4063 78.7922 38.7023 79.1122 38.0836C79.4429 37.4543 79.8909 36.9689 80.4562 36.6276C81.0322 36.2756 81.6775 36.0996 82.3922 36.0996C83.5442 36.0996 84.4402 36.4729 85.0802 37.2196C85.7202 37.9556 86.0402 38.9583 86.0402 40.2276V40.5636H80.2482C80.2589 41.3423 80.4722 41.9609 80.8882 42.4196C81.3042 42.8783 81.8375 43.1076 82.4882 43.1076C82.9789 43.1076 83.3949 42.9903 83.7362 42.7556C84.0775 42.5209 84.2909 42.1529 84.3762 41.6516H85.9762C85.8909 42.4303 85.5442 43.0756 84.9362 43.5876C84.3282 44.0996 83.5069 44.3556 82.4722 44.3556ZM84.3602 39.4276C84.3602 38.7876 84.1842 38.2756 83.8322 37.8916C83.4802 37.5076 83.0002 37.3156 82.3922 37.3156C81.8055 37.3156 81.3149 37.5129 80.9202 37.9076C80.5362 38.3023 80.3175 38.8089 80.2642 39.4276H84.3602ZM87.8153 44.0996V36.3556H89.3993V36.8196C89.3993 37.0756 89.394 37.2783 89.3833 37.4276C89.5966 37.0436 89.9113 36.7289 90.3273 36.4836C90.754 36.2276 91.2286 36.0996 91.7513 36.0996C92.6366 36.0996 93.3246 36.3769 93.8153 36.9316C94.3166 37.4756 94.5673 38.2329 94.5673 39.2036V44.0996H92.9833V39.4276C92.9833 38.0516 92.4446 37.3636 91.3673 37.3636C90.7806 37.3636 90.306 37.5663 89.9433 37.9716C89.5806 38.3769 89.3993 38.8783 89.3993 39.4756V44.0996H87.8153ZM99.6198 44.2116C98.9051 44.2116 98.3398 44.0196 97.9238 43.6356C97.5078 43.2409 97.2998 42.6329 97.2998 41.8116V37.6356H95.7318V36.3556H97.2998V33.6996H98.8998V36.3556H100.612V37.6356H98.8998V41.6196C98.8998 42.4409 99.2785 42.8516 100.036 42.8516C100.217 42.8516 100.409 42.8356 100.612 42.8036V44.0836C100.292 44.1689 99.9611 44.2116 99.6198 44.2116ZM110.295 44.3556C108.919 44.3556 107.852 43.9663 107.095 43.1876C106.338 42.4089 105.959 41.2676 105.959 39.7636V32.8996H107.655V39.5236C107.655 41.7956 108.535 42.9316 110.295 42.9316C112.066 42.9316 112.951 41.7956 112.951 39.5236V32.8996H114.647V39.7636C114.647 41.2569 114.263 42.3983 113.495 43.1876C112.738 43.9663 111.671 44.3556 110.295 44.3556ZM119.741 44.3556C118.696 44.3556 117.869 44.0996 117.261 43.5876C116.653 43.0756 116.328 42.3823 116.285 41.5076H117.869C117.891 42.0089 118.061 42.4089 118.381 42.7076C118.712 42.9956 119.165 43.1396 119.741 43.1396C120.243 43.1396 120.643 43.0383 120.941 42.8356C121.24 42.6223 121.389 42.3343 121.389 41.9716C121.389 41.6836 121.277 41.4543 121.053 41.2836C120.84 41.1023 120.509 40.9689 120.061 40.8836L118.989 40.6756C118.211 40.5263 117.608 40.2649 117.181 39.8916C116.765 39.5076 116.557 39.0116 116.557 38.4036C116.557 37.9663 116.685 37.5716 116.941 37.2196C117.208 36.8676 117.571 36.5956 118.029 36.4036C118.499 36.2009 119.032 36.0996 119.629 36.0996C120.589 36.0996 121.352 36.3289 121.917 36.7876C122.493 37.2463 122.803 37.8703 122.845 38.6596H121.261C121.219 38.2329 121.048 37.9023 120.749 37.6676C120.451 37.4329 120.056 37.3156 119.565 37.3156C119.139 37.3156 118.792 37.4116 118.525 37.6036C118.269 37.7849 118.141 38.0249 118.141 38.3236C118.141 38.6116 118.243 38.8356 118.445 38.9956C118.648 39.1449 118.979 39.2623 119.437 39.3476L120.541 39.5556C121.309 39.6943 121.901 39.9556 122.317 40.3396C122.744 40.7129 122.957 41.2143 122.957 41.8436C122.957 42.3129 122.824 42.7396 122.557 43.1236C122.301 43.5076 121.928 43.8116 121.437 44.0356C120.957 44.2489 120.392 44.3556 119.741 44.3556ZM126.946 44.3556C126.466 44.3556 126.018 44.2596 125.602 44.0676C125.196 43.8756 124.871 43.5983 124.626 43.2356C124.391 42.8729 124.274 42.4516 124.274 41.9716C124.274 40.6063 125.186 39.7849 127.01 39.5076L128.466 39.2836C128.764 39.2409 128.972 39.1663 129.09 39.0596C129.218 38.9423 129.282 38.7716 129.282 38.5476C129.282 38.1743 129.148 37.8756 128.882 37.6516C128.615 37.4276 128.263 37.3156 127.826 37.3156C127.303 37.3156 126.887 37.4489 126.578 37.7156C126.279 37.9823 126.119 38.3449 126.098 38.8036H124.482C124.514 38.3023 124.663 37.8489 124.93 37.4436C125.196 37.0276 125.564 36.7023 126.034 36.4676C126.514 36.2223 127.074 36.0996 127.714 36.0996C128.748 36.0996 129.527 36.3716 130.05 36.9156C130.583 37.4596 130.85 38.2276 130.85 39.2196V44.0996H129.346V43.7316C129.346 43.5929 129.356 43.3636 129.378 43.0436C129.175 43.4489 128.866 43.7689 128.45 44.0036C128.034 44.2383 127.532 44.3556 126.946 44.3556ZM127.266 43.1396C127.852 43.1396 128.338 42.9583 128.722 42.5956C129.106 42.2223 129.298 41.7369 129.298 41.1396V40.1156C129.18 40.2436 128.887 40.3556 128.418 40.4516L127.49 40.6276C126.434 40.8303 125.906 41.2676 125.906 41.9396C125.906 42.3129 126.034 42.6063 126.29 42.8196C126.546 43.0329 126.871 43.1396 127.266 43.1396ZM136.315 47.6996C135.249 47.6996 134.406 47.4329 133.787 46.8996C133.169 46.3663 132.859 45.6569 132.859 44.7716H134.443C134.454 45.2836 134.625 45.6889 134.955 45.9876C135.297 46.2969 135.755 46.4516 136.331 46.4516C137.003 46.4516 137.531 46.2649 137.915 45.8916C138.299 45.5289 138.491 44.9796 138.491 44.2436V43.3476C138.491 43.1876 138.502 42.9583 138.523 42.6596C138.299 43.0436 137.969 43.3529 137.531 43.5876C137.094 43.8223 136.593 43.9396 136.027 43.9396C135.334 43.9396 134.721 43.7849 134.187 43.4756C133.665 43.1556 133.254 42.7023 132.955 42.1156C132.667 41.5183 132.523 40.8249 132.523 40.0356C132.523 39.2569 132.678 38.5689 132.987 37.9716C133.307 37.3743 133.734 36.9156 134.267 36.5956C134.801 36.2649 135.387 36.0996 136.027 36.0996C137.158 36.0996 137.99 36.5423 138.523 37.4276C138.502 37.1289 138.491 36.8996 138.491 36.7396V36.3556H140.091V43.7636C140.091 45.0756 139.766 46.0569 139.115 46.7076C138.465 47.3689 137.531 47.6996 136.315 47.6996ZM136.379 42.6916C137.03 42.6916 137.563 42.4463 137.979 41.9556C138.395 41.4649 138.603 40.8249 138.603 40.0356C138.603 39.2569 138.395 38.6169 137.979 38.1156C137.563 37.6143 137.03 37.3636 136.379 37.3636C135.718 37.3636 135.179 37.6143 134.763 38.1156C134.358 38.6063 134.155 39.2463 134.155 40.0356C134.155 40.8249 134.358 41.4649 134.763 41.9556C135.179 42.4463 135.718 42.6916 136.379 42.6916ZM145.675 44.3556C144.491 44.3556 143.553 43.9929 142.859 43.2676C142.177 42.5423 141.835 41.5183 141.835 40.1956C141.835 39.4063 141.995 38.7023 142.315 38.0836C142.646 37.4543 143.094 36.9689 143.659 36.6276C144.235 36.2756 144.881 36.0996 145.595 36.0996C146.747 36.0996 147.643 36.4729 148.283 37.2196C148.923 37.9556 149.243 38.9583 149.243 40.2276V40.5636H143.451C143.462 41.3423 143.675 41.9609 144.091 42.4196C144.507 42.8783 145.041 43.1076 145.691 43.1076C146.182 43.1076 146.598 42.9903 146.939 42.7556C147.281 42.5209 147.494 42.1529 147.579 41.6516H149.179C149.094 42.4303 148.747 43.0756 148.139 43.5876C147.531 44.0996 146.71 44.3556 145.675 44.3556ZM147.563 39.4276C147.563 38.7876 147.387 38.2756 147.035 37.8916C146.683 37.5076 146.203 37.3156 145.595 37.3156C145.009 37.3156 144.518 37.5129 144.123 37.9076C143.739 38.3023 143.521 38.8089 143.467 39.4276H147.563Z" fill="#28313A"/>
<path d="M45 63.4404H55C55.6904 63.4404 56.25 64.0001 56.25 64.6904V74.6904C56.25 75.3808 55.6904 75.9404 55 75.9404H45C44.3096 75.9404 43.75 75.3808 43.75 74.6904V64.6904C43.75 64.0001 44.3096 63.4404 45 63.4404Z" stroke="#CE3D96" stroke-width="1.5"/>
<path d="M54.0049 66.6532C53.7446 66.393 53.3226 66.3929 53.0622 66.6532L48.4059 71.3095L46.9379 69.8415C46.6775 69.5813 46.2555 69.5812 45.9953 69.8415C45.735 70.1018 45.735 70.5238 45.9953 70.7841L47.9346 72.7234C48.0648 72.8534 48.2353 72.9186 48.406 72.9186C48.5766 72.9186 48.7471 72.8534 48.8773 72.7234L54.0049 67.5958C54.2651 67.3356 54.2651 66.9135 54.0049 66.6532Z" fill="#CE3D96"/>
<path d="M77.494 74.9004C76.71 74.9004 76.0193 74.7651 75.422 74.4944C74.8247 74.2238 74.3627 73.8364 74.036 73.3324C73.7093 72.8191 73.5413 72.2218 73.532 71.5404H74.834C74.8713 72.2498 75.1327 72.8098 75.618 73.2204C76.1033 73.6311 76.7333 73.8364 77.508 73.8364C78.3013 73.8364 78.9127 73.6778 79.342 73.3604C79.7807 73.0338 80 72.5998 80 72.0584C80 71.6198 79.832 71.2791 79.496 71.0364C79.1693 70.7844 78.6887 70.5838 78.054 70.4344L76.598 70.0984C75.786 69.9118 75.128 69.5944 74.624 69.1464C74.12 68.6891 73.868 68.1058 73.868 67.3964C73.868 66.8738 74.022 66.4071 74.33 65.9964C74.638 65.5764 75.0627 65.2498 75.604 65.0164C76.1547 64.7831 76.7707 64.6664 77.452 64.6664C78.5067 64.6664 79.3607 64.9371 80.014 65.4784C80.6767 66.0104 81.036 66.7291 81.092 67.6344H79.79C79.7433 67.0558 79.5053 66.5984 79.076 66.2624C78.656 65.9171 78.1053 65.7444 77.424 65.7444C76.7893 65.7444 76.262 65.8891 75.842 66.1784C75.422 66.4678 75.212 66.8364 75.212 67.2844C75.212 67.7044 75.352 68.0451 75.632 68.3064C75.912 68.5678 76.3413 68.7638 76.92 68.8944L78.656 69.2864C79.4867 69.4824 80.14 69.8044 80.616 70.2524C81.1013 70.6911 81.344 71.2651 81.344 71.9744C81.344 72.5158 81.1853 73.0104 80.868 73.4584C80.56 73.8971 80.1167 74.2471 79.538 74.5084C78.9593 74.7698 78.278 74.9004 77.494 74.9004ZM85.3441 74.7604C84.7841 74.7604 84.3221 74.6064 83.9581 74.2984C83.6034 73.9811 83.4261 73.4724 83.4261 72.7724V68.9364H82.1661V67.9424H83.4261V65.7164H84.6301V67.9424H86.0301V68.9364H84.6301V72.6464C84.6301 73.0198 84.7141 73.2858 84.8821 73.4444C85.0594 73.6031 85.3067 73.6824 85.6241 73.6824C85.7641 73.6824 85.9321 73.6684 86.1281 73.6404V74.6764C85.8761 74.7324 85.6147 74.7604 85.3441 74.7604ZM90.3731 74.9004C89.7291 74.9004 89.1551 74.7511 88.6511 74.4524C88.1471 74.1538 87.7551 73.7338 87.4751 73.1924C87.1951 72.6418 87.0551 72.0118 87.0551 71.3024C87.0551 70.6118 87.1951 69.9958 87.4751 69.4544C87.7551 68.9038 88.1471 68.4791 88.6511 68.1804C89.1551 67.8724 89.7291 67.7184 90.3731 67.7184C91.0078 67.7184 91.5771 67.8724 92.0811 68.1804C92.5851 68.4791 92.9771 68.9038 93.2571 69.4544C93.5465 69.9958 93.6911 70.6118 93.6911 71.3024C93.6911 72.0118 93.5465 72.6418 93.2571 73.1924C92.9771 73.7338 92.5851 74.1538 92.0811 74.4524C91.5771 74.7511 91.0078 74.9004 90.3731 74.9004ZM90.3731 73.9624C91.0078 73.9624 91.5118 73.7198 91.8851 73.2344C92.2585 72.7491 92.4451 72.1051 92.4451 71.3024C92.4451 70.5091 92.2538 69.8744 91.8711 69.3984C91.4978 68.9131 90.9985 68.6704 90.3731 68.6704C89.7478 68.6704 89.2438 68.9131 88.8611 69.3984C88.4878 69.8744 88.3011 70.5091 88.3011 71.3024C88.3011 72.1051 88.4878 72.7491 88.8611 73.2344C89.2345 73.7198 89.7385 73.9624 90.3731 73.9624ZM95.3231 74.6904V67.9424H96.5271V68.2364V69.0624C96.7044 68.6611 96.9751 68.3391 97.3391 68.0964C97.7124 67.8444 98.1464 67.7184 98.6411 67.7184C98.7718 67.7184 98.8744 67.7231 98.9491 67.7324V68.9224C98.8184 68.9038 98.6924 68.8944 98.5711 68.8944C97.9084 68.8944 97.3998 69.0811 97.0451 69.4544C96.6998 69.8278 96.5271 70.3831 96.5271 71.1204V74.6904H95.3231ZM102.869 74.9004C101.851 74.9004 101.049 74.5878 100.461 73.9624C99.8819 73.3371 99.5926 72.4458 99.5926 71.2884C99.5926 70.6071 99.7279 69.9958 99.9986 69.4544C100.279 68.9131 100.661 68.4884 101.147 68.1804C101.641 67.8724 102.192 67.7184 102.799 67.7184C103.788 67.7184 104.553 68.0404 105.095 68.6844C105.645 69.3284 105.921 70.2011 105.921 71.3024V71.5404H100.797C100.806 72.2871 101.007 72.8798 101.399 73.3184C101.791 73.7478 102.285 73.9624 102.883 73.9624C103.34 73.9624 103.732 73.8598 104.059 73.6544C104.385 73.4398 104.586 73.0898 104.661 72.6044H105.851C105.776 73.2578 105.487 73.8038 104.983 74.2424C104.479 74.6811 103.774 74.9004 102.869 74.9004ZM104.633 70.6864C104.633 70.0704 104.469 69.5804 104.143 69.2164C103.825 68.8524 103.377 68.6704 102.799 68.6704C102.248 68.6704 101.795 68.8618 101.441 69.2444C101.086 69.6271 100.885 70.1078 100.839 70.6864H104.633ZM113.779 74.9004C113.135 74.9004 112.561 74.7511 112.057 74.4524C111.553 74.1538 111.161 73.7338 110.881 73.1924C110.601 72.6418 110.461 72.0118 110.461 71.3024C110.461 70.6118 110.601 69.9958 110.881 69.4544C111.161 68.9038 111.553 68.4791 112.057 68.1804C112.561 67.8724 113.135 67.7184 113.779 67.7184C114.414 67.7184 114.983 67.8724 115.487 68.1804C115.991 68.4791 116.383 68.9038 116.663 69.4544C116.953 69.9958 117.097 70.6118 117.097 71.3024C117.097 72.0118 116.953 72.6418 116.663 73.1924C116.383 73.7338 115.991 74.1538 115.487 74.4524C114.983 74.7511 114.414 74.9004 113.779 74.9004ZM113.779 73.9624C114.414 73.9624 114.918 73.7198 115.291 73.2344C115.665 72.7491 115.851 72.1051 115.851 71.3024C115.851 70.5091 115.66 69.8744 115.277 69.3984C114.904 68.9131 114.405 68.6704 113.779 68.6704C113.154 68.6704 112.65 68.9131 112.267 69.3984C111.894 69.8744 111.707 70.5091 111.707 71.3024C111.707 72.1051 111.894 72.7491 112.267 73.2344C112.641 73.7198 113.145 73.9624 113.779 73.9624ZM118.729 74.6904V67.9424H119.933V68.4044V68.8524C120.12 68.5444 120.4 68.2784 120.773 68.0544C121.156 67.8304 121.567 67.7184 122.005 67.7184C122.789 67.7184 123.401 67.9564 123.839 68.4324C124.278 68.9084 124.497 69.5758 124.497 70.4344V74.6904H123.293V70.5884C123.293 69.9351 123.177 69.4544 122.943 69.1464C122.71 68.8291 122.332 68.6704 121.809 68.6704C121.24 68.6704 120.783 68.8618 120.437 69.2444C120.101 69.6178 119.933 70.0798 119.933 70.6304V74.6904H118.729ZM133.262 74.9004C132.478 74.9004 131.787 74.7651 131.19 74.4944C130.592 74.2238 130.13 73.8364 129.804 73.3324C129.477 72.8191 129.309 72.2218 129.3 71.5404H130.602C130.639 72.2498 130.9 72.8098 131.386 73.2204C131.871 73.6311 132.501 73.8364 133.276 73.8364C134.069 73.8364 134.68 73.6778 135.11 73.3604C135.548 73.0338 135.768 72.5998 135.768 72.0584C135.768 71.6198 135.6 71.2791 135.264 71.0364C134.937 70.7844 134.456 70.5838 133.822 70.4344L132.366 70.0984C131.554 69.9118 130.896 69.5944 130.392 69.1464C129.888 68.6891 129.636 68.1058 129.636 67.3964C129.636 66.8738 129.79 66.4071 130.098 65.9964C130.406 65.5764 130.83 65.2498 131.372 65.0164C131.922 64.7831 132.538 64.6664 133.22 64.6664C134.274 64.6664 135.128 64.9371 135.782 65.4784C136.444 66.0104 136.804 66.7291 136.86 67.6344H135.558C135.511 67.0558 135.273 66.5984 134.844 66.2624C134.424 65.9171 133.873 65.7444 133.192 65.7444C132.557 65.7444 132.03 65.8891 131.61 66.1784C131.19 66.4678 130.98 66.8364 130.98 67.2844C130.98 67.7044 131.12 68.0451 131.4 68.3064C131.68 68.5678 132.109 68.7638 132.688 68.8944L134.424 69.2864C135.254 69.4824 135.908 69.8044 136.384 70.2524C136.869 70.6911 137.112 71.2651 137.112 71.9744C137.112 72.5158 136.953 73.0104 136.636 73.4584C136.328 73.8971 135.884 74.2471 135.306 74.5084C134.727 74.7698 134.046 74.9004 133.262 74.9004ZM138.718 74.6904V64.8904H139.922V68.2784V68.8524C140.108 68.5164 140.388 68.2458 140.762 68.0404C141.135 67.8258 141.546 67.7184 141.994 67.7184C142.778 67.7184 143.389 67.9564 143.828 68.4324C144.266 68.9084 144.486 69.5758 144.486 70.4344V74.6904H143.282V70.5884C143.282 69.9351 143.16 69.4544 142.918 69.1464C142.675 68.8291 142.288 68.6704 141.756 68.6704C141.196 68.6704 140.748 68.8618 140.412 69.2444C140.085 69.6178 139.922 70.0798 139.922 70.6304V74.6904H138.718ZM149.354 74.9004C148.71 74.9004 148.136 74.7511 147.632 74.4524C147.128 74.1538 146.736 73.7338 146.456 73.1924C146.176 72.6418 146.036 72.0118 146.036 71.3024C146.036 70.6118 146.176 69.9958 146.456 69.4544C146.736 68.9038 147.128 68.4791 147.632 68.1804C148.136 67.8724 148.71 67.7184 149.354 67.7184C149.988 67.7184 150.558 67.8724 151.062 68.1804C151.566 68.4791 151.958 68.9038 152.238 69.4544C152.527 69.9958 152.672 70.6118 152.672 71.3024C152.672 72.0118 152.527 72.6418 152.238 73.1924C151.958 73.7338 151.566 74.1538 151.062 74.4524C150.558 74.7511 149.988 74.9004 149.354 74.9004ZM149.354 73.9624C149.988 73.9624 150.492 73.7198 150.866 73.2344C151.239 72.7491 151.426 72.1051 151.426 71.3024C151.426 70.5091 151.234 69.8744 150.852 69.3984C150.478 68.9131 149.979 68.6704 149.354 68.6704C148.728 68.6704 148.224 68.9131 147.842 69.3984C147.468 69.8744 147.282 70.5091 147.282 71.3024C147.282 72.1051 147.468 72.7491 147.842 73.2344C148.215 73.7198 148.719 73.9624 149.354 73.9624ZM154.304 77.6444V67.9424H155.508V68.4324V68.8664C155.713 68.5491 156.016 68.2784 156.418 68.0544C156.819 67.8304 157.258 67.7184 157.734 67.7184C158.368 67.7184 158.919 67.8724 159.386 68.1804C159.862 68.4884 160.221 68.9131 160.464 69.4544C160.716 69.9958 160.842 70.6118 160.842 71.3024C160.842 72.0118 160.711 72.6371 160.45 73.1784C160.188 73.7198 159.82 74.1444 159.344 74.4524C158.868 74.7511 158.322 74.9004 157.706 74.9004C157.23 74.9004 156.8 74.7978 156.418 74.5924C156.035 74.3871 155.732 74.1071 155.508 73.7524V74.3124V77.6444H154.304ZM157.524 73.9624C158.14 73.9624 158.634 73.7198 159.008 73.2344C159.39 72.7398 159.582 72.0958 159.582 71.3024C159.582 70.5184 159.39 69.8838 159.008 69.3984C158.634 68.9131 158.14 68.6704 157.524 68.6704C156.908 68.6704 156.404 68.9131 156.012 69.3984C155.629 69.8744 155.438 70.5091 155.438 71.3024C155.438 72.0958 155.629 72.7398 156.012 73.2344C156.404 73.7198 156.908 73.9624 157.524 73.9624ZM162.368 66.6684V65.2264H163.754V66.6684H162.368ZM162.466 67.9424H163.67V74.6904H162.466V67.9424ZM166.237 74.6904V68.9364H164.963V67.9424H166.237V66.6964C166.237 66.0618 166.424 65.5671 166.797 65.2124C167.171 64.8484 167.628 64.6664 168.169 64.6664C168.44 64.6664 168.669 64.7084 168.855 64.7924V65.8144C168.603 65.7864 168.459 65.7724 168.421 65.7724C168.104 65.7724 167.861 65.8611 167.693 66.0384C167.525 66.2064 167.441 66.4538 167.441 66.7804V67.9424H168.841V68.9364H167.441V74.6904H166.237ZM170.766 77.6444L171.998 74.4524L169.296 67.9424H170.626L172.306 72.2544L172.628 73.0804L172.922 72.2544L174.406 67.9424H175.666L172.04 77.6444H170.766Z" fill="#28313A"/>
<path d="M45 91.4404H55C55.6904 91.4404 56.25 92.0001 56.25 92.6904V102.69C56.25 103.381 55.6904 103.94 55 103.94H45C44.3096 103.94 43.75 103.381 43.75 102.69V92.6904C43.75 92.0001 44.3096 91.4404 45 91.4404Z" stroke="#CE3D96" stroke-width="1.5"/>
<path d="M54.0049 94.6532C53.7446 94.393 53.3226 94.3929 53.0622 94.6532L48.4059 99.3095L46.9379 97.8415C46.6775 97.5813 46.2555 97.5812 45.9953 97.8415C45.735 98.1018 45.735 98.5238 45.9953 98.7841L47.9346 100.723C48.0648 100.853 48.2353 100.919 48.406 100.919C48.5766 100.919 48.7471 100.853 48.8773 100.723L54.0049 95.5958C54.2651 95.3356 54.2651 94.9135 54.0049 94.6532Z" fill="#CE3D96"/>
<path d="M78.362 102.9C77.4287 102.9 76.6073 102.695 75.898 102.284C75.198 101.864 74.652 101.267 74.26 100.492C73.868 99.7084 73.672 98.7891 73.672 97.7344C73.672 96.7358 73.8727 95.8538 74.274 95.0884C74.6847 94.3138 75.2493 93.7164 75.968 93.2964C76.6867 92.8764 77.494 92.6664 78.39 92.6664C79.1647 92.6664 79.8553 92.8158 80.462 93.1144C81.0687 93.4038 81.554 93.8051 81.918 94.3184C82.282 94.8318 82.4967 95.4104 82.562 96.0544H81.162C81.0313 95.3264 80.7233 94.7618 80.238 94.3604C79.7527 93.9498 79.118 93.7444 78.334 93.7444C77.6713 93.7444 77.088 93.9078 76.584 94.2344C76.0893 94.5518 75.702 95.0138 75.422 95.6204C75.1513 96.2178 75.016 96.9224 75.016 97.7344C75.016 98.5558 75.156 99.2791 75.436 99.9044C75.716 100.52 76.108 100.996 76.612 101.332C77.116 101.668 77.69 101.836 78.334 101.836C79.1273 101.836 79.776 101.631 80.28 101.22C80.784 100.8 81.106 100.236 81.246 99.5264H82.576C82.4453 100.572 82.002 101.398 81.246 102.004C80.49 102.602 79.5287 102.9 78.362 102.9ZM84.0415 94.6684V93.2264H85.4275V94.6684H84.0415ZM84.1395 95.9424H85.3435V102.69H84.1395V95.9424ZM87.4071 102.69V95.9424H88.6111V96.4044V96.8524C88.7978 96.5444 89.0778 96.2784 89.4511 96.0544C89.8338 95.8304 90.2444 95.7184 90.6831 95.7184C91.4671 95.7184 92.0784 95.9564 92.5171 96.4324C92.9558 96.9084 93.1751 97.5758 93.1751 98.4344V102.69H91.9711V98.5884C91.9711 97.9351 91.8544 97.4544 91.6211 97.1464C91.3878 96.8291 91.0098 96.6704 90.4871 96.6704C89.9178 96.6704 89.4604 96.8618 89.1151 97.2444C88.7791 97.6178 88.6111 98.0798 88.6111 98.6304V102.69H87.4071ZM98.015 102.9C96.9977 102.9 96.195 102.588 95.607 101.962C95.0284 101.337 94.739 100.446 94.739 99.2884C94.739 98.6071 94.8744 97.9958 95.145 97.4544C95.425 96.9131 95.8077 96.4884 96.293 96.1804C96.7877 95.8724 97.3384 95.7184 97.945 95.7184C98.9344 95.7184 99.6997 96.0404 100.241 96.6844C100.792 97.3284 101.067 98.2011 101.067 99.3024V99.5404H95.943C95.9524 100.287 96.153 100.88 96.545 101.318C96.937 101.748 97.4317 101.962 98.029 101.962C98.4864 101.962 98.8784 101.86 99.205 101.654C99.5317 101.44 99.7324 101.09 99.807 100.604H100.997C100.922 101.258 100.633 101.804 100.129 102.242C99.625 102.681 98.9204 102.9 98.015 102.9ZM99.779 98.6864C99.779 98.0704 99.6157 97.5804 99.289 97.2164C98.9717 96.8524 98.5237 96.6704 97.945 96.6704C97.3944 96.6704 96.9417 96.8618 96.587 97.2444C96.2324 97.6271 96.0317 98.1078 95.985 98.6864H99.779ZM102.72 102.69V95.9424H103.924V96.4744V96.8524C104.138 96.5071 104.414 96.2318 104.75 96.0264C105.095 95.8211 105.478 95.7184 105.898 95.7184C106.355 95.7184 106.756 95.8304 107.102 96.0544C107.456 96.2784 107.732 96.6098 107.928 97.0484C108.17 96.6378 108.478 96.3158 108.852 96.0824C109.234 95.8398 109.659 95.7184 110.126 95.7184C110.835 95.7184 111.404 95.9471 111.834 96.4044C112.272 96.8618 112.492 97.5338 112.492 98.4204V102.69H111.288V98.6584C111.288 97.9958 111.176 97.5011 110.952 97.1744C110.737 96.8384 110.378 96.6704 109.874 96.6704C109.36 96.6704 108.954 96.8664 108.656 97.2584C108.357 97.6411 108.208 98.1124 108.208 98.6724V102.69H107.004V98.7004C107.004 98.0378 106.892 97.5338 106.668 97.1884C106.453 96.8431 106.103 96.6704 105.618 96.6704C105.104 96.6704 104.694 96.8711 104.386 97.2724C104.078 97.6644 103.924 98.1498 103.924 98.7284V102.69H102.72ZM116.395 102.9C115.733 102.9 115.177 102.714 114.729 102.34C114.291 101.967 114.071 101.468 114.071 100.842C114.071 100.236 114.277 99.7644 114.687 99.4284C115.107 99.0831 115.649 98.8544 116.311 98.7424L117.753 98.5184C118.005 98.4811 118.183 98.4111 118.285 98.3084C118.388 98.2058 118.439 98.0518 118.439 97.8464C118.439 97.4824 118.313 97.1978 118.061 96.9924C117.809 96.7778 117.483 96.6704 117.081 96.6704C116.577 96.6704 116.19 96.7964 115.919 97.0484C115.649 97.2911 115.504 97.6271 115.485 98.0564H114.281C114.3 97.6364 114.417 97.2491 114.631 96.8944C114.846 96.5398 115.154 96.2551 115.555 96.0404C115.966 95.8258 116.442 95.7184 116.983 95.7184C117.814 95.7184 118.458 95.9471 118.915 96.4044C119.382 96.8618 119.615 97.4824 119.615 98.2664V102.69H118.467V102.354V101.78C118.299 102.135 118.033 102.41 117.669 102.606C117.315 102.802 116.89 102.9 116.395 102.9ZM116.563 101.962C117.105 101.962 117.553 101.794 117.907 101.458C118.262 101.122 118.439 100.684 118.439 100.142V99.1484C118.365 99.2604 118.117 99.3584 117.697 99.4424L116.717 99.6244C115.784 99.8018 115.317 100.208 115.317 100.842C115.317 101.178 115.434 101.449 115.667 101.654C115.91 101.86 116.209 101.962 116.563 101.962Z" fill="#28313A"/>
<path d="M45 119.44H55C55.6904 119.44 56.25 120 56.25 120.69V130.69C56.25 131.381 55.6904 131.94 55 131.94H45C44.3096 131.94 43.75 131.381 43.75 130.69V120.69C43.75 120 44.3096 119.44 45 119.44Z" stroke="#CE3D96" stroke-width="1.5"/>
<path d="M54.0049 122.653C53.7446 122.393 53.3226 122.393 53.0622 122.653L48.4059 127.309L46.9379 125.841C46.6775 125.581 46.2555 125.581 45.9953 125.842C45.735 126.102 45.735 126.524 45.9953 126.784L47.9346 128.723C48.0648 128.853 48.2353 128.919 48.406 128.919C48.5766 128.919 48.7471 128.853 48.8773 128.723L54.0049 123.596C54.2651 123.336 54.2651 122.914 54.0049 122.653Z" fill="#CE3D96"/>
<path d="M74.26 120.89H75.534V130.69H74.26V120.89ZM77.8505 130.69V123.942H79.0545V124.404V124.852C79.2411 124.544 79.5211 124.278 79.8945 124.054C80.2771 123.83 80.6878 123.718 81.1265 123.718C81.9105 123.718 82.5218 123.956 82.9605 124.432C83.3991 124.908 83.6185 125.576 83.6185 126.434V130.69H82.4145V126.588C82.4145 125.935 82.2978 125.454 82.0645 125.146C81.8311 124.829 81.4531 124.67 80.9305 124.67C80.3611 124.67 79.9038 124.862 79.5585 125.244C79.2225 125.618 79.0545 126.08 79.0545 126.63V130.69H77.8505ZM86.0517 130.69V124.936H84.7777V123.942H86.0517V122.696C86.0517 122.062 86.2384 121.567 86.6117 121.212C86.9851 120.848 87.4424 120.666 87.9837 120.666C88.2544 120.666 88.4831 120.708 88.6697 120.792V121.814C88.4177 121.786 88.2731 121.772 88.2357 121.772C87.9184 121.772 87.6757 121.861 87.5077 122.038C87.3397 122.206 87.2557 122.454 87.2557 122.78V123.942H88.6557V124.936H87.2557V130.69H86.0517ZM89.9017 120.89H91.1057V130.69H89.9017V120.89ZM93.065 122.668V121.226H94.451V122.668H93.065ZM93.163 123.942H94.367V130.69H93.163V123.942ZM99.2445 133.868C98.3579 133.868 97.6439 133.635 97.1025 133.168C96.5705 132.711 96.3045 132.1 96.3045 131.334H97.4945C97.4945 131.82 97.6532 132.207 97.9705 132.496C98.2879 132.786 98.7172 132.93 99.2585 132.93C99.9119 132.93 100.411 132.753 100.757 132.398C101.111 132.044 101.289 131.502 101.289 130.774V129.948V129.5C101.111 129.846 100.822 130.121 100.421 130.326C100.019 130.522 99.5712 130.62 99.0765 130.62C98.4605 130.62 97.9192 130.48 97.4525 130.2C96.9952 129.92 96.6405 129.524 96.3885 129.01C96.1365 128.488 96.0105 127.881 96.0105 127.19C96.0105 126.509 96.1459 125.907 96.4165 125.384C96.6872 124.852 97.0559 124.442 97.5225 124.152C97.9985 123.863 98.5305 123.718 99.1185 123.718C99.6319 123.718 100.071 123.83 100.435 124.054C100.799 124.269 101.083 124.535 101.289 124.852V124.306V123.942H102.493V130.354C102.493 132.697 101.41 133.868 99.2445 133.868ZM99.3145 129.682C99.9212 129.682 100.416 129.454 100.799 128.996C101.181 128.539 101.373 127.937 101.373 127.19C101.373 126.705 101.284 126.271 101.107 125.888C100.929 125.506 100.682 125.207 100.365 124.992C100.057 124.778 99.7065 124.67 99.3145 124.67C98.7079 124.67 98.2132 124.904 97.8305 125.37C97.4479 125.837 97.2565 126.444 97.2565 127.19C97.2565 127.946 97.4432 128.553 97.8165 129.01C98.1992 129.458 98.6985 129.682 99.3145 129.682ZM104.565 130.69V120.89H105.769V124.278V124.852C105.956 124.516 106.236 124.246 106.609 124.04C106.983 123.826 107.393 123.718 107.841 123.718C108.625 123.718 109.237 123.956 109.675 124.432C110.114 124.908 110.333 125.576 110.333 126.434V130.69H109.129V126.588C109.129 125.935 109.008 125.454 108.765 125.146C108.523 124.829 108.135 124.67 107.603 124.67C107.043 124.67 106.595 124.862 106.259 125.244C105.933 125.618 105.769 126.08 105.769 126.63V130.69H104.565ZM114.643 130.76C114.083 130.76 113.621 130.606 113.257 130.298C112.902 129.981 112.725 129.472 112.725 128.772V124.936H111.465V123.942H112.725V121.716H113.929V123.942H115.329V124.936H113.929V128.646C113.929 129.02 114.013 129.286 114.181 129.444C114.358 129.603 114.606 129.682 114.923 129.682C115.063 129.682 115.231 129.668 115.427 129.64V130.676C115.175 130.732 114.914 130.76 114.643 130.76ZM123.048 130.9C122.031 130.9 121.228 130.588 120.64 129.962C120.062 129.337 119.772 128.446 119.772 127.288C119.772 126.607 119.908 125.996 120.178 125.454C120.458 124.913 120.841 124.488 121.326 124.18C121.821 123.872 122.372 123.718 122.978 123.718C123.968 123.718 124.733 124.04 125.274 124.684C125.825 125.328 126.1 126.201 126.1 127.302V127.54H120.976C120.986 128.287 121.186 128.88 121.578 129.318C121.97 129.748 122.465 129.962 123.062 129.962C123.52 129.962 123.912 129.86 124.238 129.654C124.565 129.44 124.766 129.09 124.84 128.604H126.03C125.956 129.258 125.666 129.804 125.162 130.242C124.658 130.681 123.954 130.9 123.048 130.9ZM124.812 126.686C124.812 126.07 124.649 125.58 124.322 125.216C124.005 124.852 123.557 124.67 122.978 124.67C122.428 124.67 121.975 124.862 121.62 125.244C121.266 125.627 121.065 126.108 121.018 126.686H124.812ZM127.753 130.69V123.942H128.957V124.404V124.852C129.143 124.544 129.423 124.278 129.797 124.054C130.179 123.83 130.59 123.718 131.029 123.718C131.813 123.718 132.424 123.956 132.863 124.432C133.301 124.908 133.521 125.576 133.521 126.434V130.69H132.317V126.588C132.317 125.935 132.2 125.454 131.967 125.146C131.733 124.829 131.355 124.67 130.833 124.67C130.263 124.67 129.806 124.862 129.461 125.244C129.125 125.618 128.957 126.08 128.957 126.63V130.69H127.753ZM137.83 130.76C137.27 130.76 136.808 130.606 136.444 130.298C136.09 129.981 135.912 129.472 135.912 128.772V124.936H134.652V123.942H135.912V121.716H137.116V123.942H138.516V124.936H137.116V128.646C137.116 129.02 137.2 129.286 137.368 129.444C137.546 129.603 137.793 129.682 138.11 129.682C138.25 129.682 138.418 129.668 138.614 129.64V130.676C138.362 130.732 138.101 130.76 137.83 130.76ZM142.831 130.9C141.814 130.9 141.011 130.588 140.423 129.962C139.845 129.337 139.555 128.446 139.555 127.288C139.555 126.607 139.691 125.996 139.961 125.454C140.241 124.913 140.624 124.488 141.109 124.18C141.604 123.872 142.155 123.718 142.761 123.718C143.751 123.718 144.516 124.04 145.057 124.684C145.608 125.328 145.883 126.201 145.883 127.302V127.54H140.759C140.769 128.287 140.969 128.88 141.361 129.318C141.753 129.748 142.248 129.962 142.845 129.962C143.303 129.962 143.695 129.86 144.021 129.654C144.348 129.44 144.549 129.09 144.623 128.604H145.813C145.739 129.258 145.449 129.804 144.945 130.242C144.441 130.681 143.737 130.9 142.831 130.9ZM144.595 126.686C144.595 126.07 144.432 125.58 144.105 125.216C143.788 124.852 143.34 124.67 142.761 124.67C142.211 124.67 141.758 124.862 141.403 125.244C141.049 125.627 140.848 126.108 140.801 126.686H144.595ZM147.536 130.69V123.942H148.74V124.236V125.062C148.917 124.661 149.188 124.339 149.552 124.096C149.925 123.844 150.359 123.718 150.854 123.718C150.985 123.718 151.087 123.723 151.162 123.732V124.922C151.031 124.904 150.905 124.894 150.784 124.894C150.121 124.894 149.613 125.081 149.258 125.454C148.913 125.828 148.74 126.383 148.74 127.12V130.69H147.536ZM154.784 130.76C154.224 130.76 153.762 130.606 153.398 130.298C153.043 129.981 152.866 129.472 152.866 128.772V124.936H151.606V123.942H152.866V121.716H154.07V123.942H155.47V124.936H154.07V128.646C154.07 129.02 154.154 129.286 154.322 129.444C154.499 129.603 154.746 129.682 155.064 129.682C155.204 129.682 155.372 129.668 155.568 129.64V130.676C155.316 130.732 155.054 130.76 154.784 130.76ZM158.929 130.9C158.266 130.9 157.711 130.714 157.263 130.34C156.824 129.967 156.605 129.468 156.605 128.842C156.605 128.236 156.81 127.764 157.221 127.428C157.641 127.083 158.182 126.854 158.845 126.742L160.287 126.518C160.539 126.481 160.716 126.411 160.819 126.308C160.921 126.206 160.973 126.052 160.973 125.846C160.973 125.482 160.847 125.198 160.595 124.992C160.343 124.778 160.016 124.67 159.615 124.67C159.111 124.67 158.723 124.796 158.453 125.048C158.182 125.291 158.037 125.627 158.019 126.056H156.815C156.833 125.636 156.95 125.249 157.165 124.894C157.379 124.54 157.687 124.255 158.089 124.04C158.499 123.826 158.975 123.718 159.517 123.718C160.347 123.718 160.991 123.947 161.449 124.404C161.915 124.862 162.149 125.482 162.149 126.266V130.69H161.001V130.354V129.78C160.833 130.135 160.567 130.41 160.203 130.606C159.848 130.802 159.423 130.9 158.929 130.9ZM159.097 129.962C159.638 129.962 160.086 129.794 160.441 129.458C160.795 129.122 160.973 128.684 160.973 128.142V127.148C160.898 127.26 160.651 127.358 160.231 127.442L159.251 127.624C158.317 127.802 157.851 128.208 157.851 128.842C157.851 129.178 157.967 129.449 158.201 129.654C158.443 129.86 158.742 129.962 159.097 129.962ZM164.036 122.668V121.226H165.422V122.668H164.036ZM164.134 123.942H165.338V130.69H164.134V123.942ZM167.401 130.69V123.942H168.605V124.404V124.852C168.792 124.544 169.072 124.278 169.445 124.054C169.828 123.83 170.239 123.718 170.677 123.718C171.461 123.718 172.073 123.956 172.511 124.432C172.95 124.908 173.169 125.576 173.169 126.434V130.69H171.965V126.588C171.965 125.935 171.849 125.454 171.615 125.146C171.382 124.829 171.004 124.67 170.481 124.67C169.912 124.67 169.455 124.862 169.109 125.244C168.773 125.618 168.605 126.08 168.605 126.63V130.69H167.401ZM175.153 130.69V123.942H176.357V124.474V124.852C176.572 124.507 176.847 124.232 177.183 124.026C177.529 123.821 177.911 123.718 178.331 123.718C178.789 123.718 179.19 123.83 179.535 124.054C179.89 124.278 180.165 124.61 180.361 125.048C180.604 124.638 180.912 124.316 181.285 124.082C181.668 123.84 182.093 123.718 182.559 123.718C183.269 123.718 183.838 123.947 184.267 124.404C184.706 124.862 184.925 125.534 184.925 126.42V130.69H183.721V126.658C183.721 125.996 183.609 125.501 183.385 125.174C183.171 124.838 182.811 124.67 182.307 124.67C181.794 124.67 181.388 124.866 181.089 125.258C180.791 125.641 180.641 126.112 180.641 126.672V130.69H179.437V126.7C179.437 126.038 179.325 125.534 179.101 125.188C178.887 124.843 178.537 124.67 178.051 124.67C177.538 124.67 177.127 124.871 176.819 125.272C176.511 125.664 176.357 126.15 176.357 126.728V130.69H175.153ZM189.767 130.9C188.75 130.9 187.947 130.588 187.359 129.962C186.78 129.337 186.491 128.446 186.491 127.288C186.491 126.607 186.626 125.996 186.897 125.454C187.177 124.913 187.56 124.488 188.045 124.18C188.54 123.872 189.09 123.718 189.697 123.718C190.686 123.718 191.452 124.04 191.993 124.684C192.544 125.328 192.819 126.201 192.819 127.302V127.54H187.695C187.704 128.287 187.905 128.88 188.297 129.318C188.689 129.748 189.184 129.962 189.781 129.962C190.238 129.962 190.63 129.86 190.957 129.654C191.284 129.44 191.484 129.09 191.559 128.604H192.749C192.674 129.258 192.385 129.804 191.881 130.242C191.377 130.681 190.672 130.9 189.767 130.9ZM191.531 126.686C191.531 126.07 191.368 125.58 191.041 125.216C190.724 124.852 190.276 124.67 189.697 124.67C189.146 124.67 188.694 124.862 188.339 125.244C187.984 125.627 187.784 126.108 187.737 126.686H191.531ZM194.472 130.69V123.942H195.676V124.404V124.852C195.862 124.544 196.142 124.278 196.516 124.054C196.898 123.83 197.309 123.718 197.748 123.718C198.532 123.718 199.143 123.956 199.582 124.432C200.02 124.908 200.24 125.576 200.24 126.434V130.69H199.036V126.588C199.036 125.935 198.919 125.454 198.686 125.146C198.452 124.829 198.074 124.67 197.552 124.67C196.982 124.67 196.525 124.862 196.18 125.244C195.844 125.618 195.676 126.08 195.676 126.63V130.69H194.472ZM204.549 130.76C203.989 130.76 203.527 130.606 203.163 130.298C202.808 129.981 202.631 129.472 202.631 128.772V124.936H201.371V123.942H202.631V121.716H203.835V123.942H205.235V124.936H203.835V128.646C203.835 129.02 203.919 129.286 204.087 129.444C204.264 129.603 204.512 129.682 204.829 129.682C204.969 129.682 205.137 129.668 205.333 129.64V130.676C205.081 130.732 204.82 130.76 204.549 130.76Z" fill="#28313A"/>
<path d="M45 147.44H55C55.6904 147.44 56.25 148 56.25 148.69V158.69C56.25 159.381 55.6904 159.94 55 159.94H45C44.3096 159.94 43.75 159.381 43.75 158.69V148.69C43.75 148 44.3096 147.44 45 147.44Z" stroke="#CE3D96" stroke-width="1.5"/>
<path d="M54.0049 150.653C53.7446 150.393 53.3226 150.393 53.0622 150.653L48.4059 155.309L46.9379 153.841C46.6775 153.581 46.2555 153.581 45.9953 153.842C45.735 154.102 45.735 154.524 45.9953 154.784L47.9346 156.723C48.0648 156.853 48.2353 156.919 48.406 156.919C48.5766 156.919 48.7471 156.853 48.8773 156.723L54.0049 151.596C54.2651 151.336 54.2651 150.914 54.0049 150.653Z" fill="#CE3D96"/>
<path d="M74.26 148.89H75.534V158.69H74.26V148.89ZM77.8505 158.69V151.942H79.0545V152.404V152.852C79.2411 152.544 79.5211 152.278 79.8945 152.054C80.2771 151.83 80.6878 151.718 81.1265 151.718C81.9105 151.718 82.5218 151.956 82.9605 152.432C83.3991 152.908 83.6185 153.576 83.6185 154.434V158.69H82.4145V154.588C82.4145 153.935 82.2978 153.454 82.0645 153.146C81.8311 152.829 81.4531 152.67 80.9305 152.67C80.3611 152.67 79.9038 152.862 79.5585 153.244C79.2225 153.618 79.0545 154.08 79.0545 154.63V158.69H77.8505ZM89.1024 155.442H85.4624V154.42H89.1024V155.442ZM95.2865 158.9C94.3531 158.9 93.5318 158.681 92.8225 158.242C92.1225 157.804 91.5811 157.202 91.1985 156.436C90.8251 155.662 90.6385 154.798 90.6385 153.846C90.6385 152.764 90.8531 151.83 91.2825 151.046C91.7118 150.262 92.2858 149.67 93.0045 149.268C93.7325 148.867 94.5305 148.666 95.3985 148.666C96.1078 148.666 96.7518 148.797 97.3305 149.058C97.9185 149.32 98.3898 149.684 98.7445 150.15C99.1085 150.608 99.3278 151.135 99.4025 151.732H98.0445C97.9418 151.144 97.6478 150.668 97.1625 150.304C96.6771 149.931 96.0891 149.744 95.3985 149.744C94.7358 149.744 94.1478 149.903 93.6345 150.22C93.1211 150.528 92.7151 150.99 92.4165 151.606C92.1271 152.222 91.9825 152.969 91.9825 153.846C91.9825 154.602 92.1225 155.284 92.4025 155.89C92.6825 156.497 93.0745 156.973 93.5785 157.318C94.0918 157.664 94.6751 157.836 95.3285 157.836C96.2431 157.836 96.9618 157.58 97.4845 157.066C98.0165 156.544 98.2825 155.797 98.2825 154.826V154.644H95.2025V153.566H99.4445V158.69H98.3945V158.256V157.332C98.1238 157.79 97.7038 158.168 97.1345 158.466C96.5745 158.756 95.9585 158.9 95.2865 158.9ZM103.257 158.9C102.594 158.9 102.039 158.714 101.591 158.34C101.152 157.967 100.933 157.468 100.933 156.842C100.933 156.236 101.138 155.764 101.549 155.428C101.969 155.083 102.51 154.854 103.173 154.742L104.615 154.518C104.867 154.481 105.044 154.411 105.147 154.308C105.249 154.206 105.301 154.052 105.301 153.846C105.301 153.482 105.175 153.198 104.923 152.992C104.671 152.778 104.344 152.67 103.943 152.67C103.439 152.67 103.051 152.796 102.781 153.048C102.51 153.291 102.365 153.627 102.347 154.056H101.143C101.161 153.636 101.278 153.249 101.493 152.894C101.707 152.54 102.015 152.255 102.417 152.04C102.827 151.826 103.303 151.718 103.845 151.718C104.675 151.718 105.319 151.947 105.777 152.404C106.243 152.862 106.477 153.482 106.477 154.266V158.69H105.329V158.354V157.78C105.161 158.135 104.895 158.41 104.531 158.606C104.176 158.802 103.751 158.9 103.257 158.9ZM103.425 157.962C103.966 157.962 104.414 157.794 104.769 157.458C105.123 157.122 105.301 156.684 105.301 156.142V155.148C105.226 155.26 104.979 155.358 104.559 155.442L103.579 155.624C102.645 155.802 102.179 156.208 102.179 156.842C102.179 157.178 102.295 157.449 102.529 157.654C102.771 157.86 103.07 157.962 103.425 157.962ZM108.462 158.69V151.942H109.666V152.474V152.852C109.88 152.507 110.156 152.232 110.492 152.026C110.837 151.821 111.22 151.718 111.64 151.718C112.097 151.718 112.498 151.83 112.844 152.054C113.198 152.278 113.474 152.61 113.67 153.048C113.912 152.638 114.22 152.316 114.594 152.082C114.976 151.84 115.401 151.718 115.868 151.718C116.577 151.718 117.146 151.947 117.576 152.404C118.014 152.862 118.234 153.534 118.234 154.42V158.69H117.03V154.658C117.03 153.996 116.918 153.501 116.694 153.174C116.479 152.838 116.12 152.67 115.616 152.67C115.102 152.67 114.696 152.866 114.398 153.258C114.099 153.641 113.95 154.112 113.95 154.672V158.69H112.746V154.7C112.746 154.038 112.634 153.534 112.41 153.188C112.195 152.843 111.845 152.67 111.36 152.67C110.846 152.67 110.436 152.871 110.128 153.272C109.82 153.664 109.666 154.15 109.666 154.728V158.69H108.462ZM123.076 158.9C122.058 158.9 121.256 158.588 120.668 157.962C120.089 157.337 119.8 156.446 119.8 155.288C119.8 154.607 119.935 153.996 120.206 153.454C120.486 152.913 120.868 152.488 121.354 152.18C121.848 151.872 122.399 151.718 123.006 151.718C123.995 151.718 124.76 152.04 125.302 152.684C125.852 153.328 126.128 154.201 126.128 155.302V155.54H121.004C121.013 156.287 121.214 156.88 121.606 157.318C121.998 157.748 122.492 157.962 123.09 157.962C123.547 157.962 123.939 157.86 124.266 157.654C124.592 157.44 124.793 157.09 124.868 156.604H126.058C125.983 157.258 125.694 157.804 125.19 158.242C124.686 158.681 123.981 158.9 123.076 158.9ZM124.84 154.686C124.84 154.07 124.676 153.58 124.35 153.216C124.032 152.852 123.584 152.67 123.006 152.67C122.455 152.67 122.002 152.862 121.648 153.244C121.293 153.627 121.092 154.108 121.046 154.686H124.84Z" fill="#28313A"/>
<path d="M43 176.69C43 174.481 44.7909 172.69 47 172.69H202C204.209 172.69 206 174.481 206 176.69C206 178.9 204.209 180.69 202 180.69H47C44.7909 180.69 43 178.9 43 176.69Z" fill="#EEF1F5"/>
<path d="M43 194.69C43 192.481 44.7909 190.69 47 190.69H139C141.209 190.69 143 192.481 143 194.69C143 196.9 141.209 198.69 139 198.69H47C44.7909 198.69 43 196.9 43 194.69Z" fill="#EEF1F5"/>
<path d="M43 212.69C43 210.481 44.7909 208.69 47 208.69H139C141.209 208.69 143 210.481 143 212.69C143 214.9 141.209 216.69 139 216.69H47C44.7909 216.69 43 214.9 43 212.69Z" fill="#EEF1F5"/>
<path d="M43 230.69C43 228.481 44.7909 226.69 47 226.69H117C119.209 226.69 121 228.481 121 230.69C121 232.9 119.209 234.69 117 234.69H47C44.7909 234.69 43 232.9 43 230.69Z" fill="#EEF1F5"/>
</g>
<defs>
<filter id="filter0_d_224_2193" x="0" y="0" width="254" height="282" filterUnits="userSpaceOnUse" color-interpolation-filters="sRGB">
<feFlood flood-opacity="0" result="BackgroundImageFix"/>
<feColorMatrix in="SourceAlpha" type="matrix" values="0 0 0 0 0 0 0 0 0 0 0 0 0 0 0 0 0 0 127 0" result="hardAlpha"/>
<feOffset dy="4"/>
<feGaussianBlur stdDeviation="11"/>
<feComposite in2="hardAlpha" operator="out"/>
<feColorMatrix type="matrix" values="0 0 0 0 0.866667 0 0 0 0 0.890196 0 0 0 0 0.921569 0 0 0 1 0"/>
<feBlend mode="normal" in2="BackgroundImageFix" result="effect1_dropShadow_224_2193"/>
<feBlend mode="normal" in="SourceGraphic" in2="effect1_dropShadow_224_2193" result="shape"/>
</filter>
</defs>
</svg>
