<svg width="254" height="126" viewBox="0 0 254 126" fill="none" xmlns="http://www.w3.org/2000/svg">
<path d="M0 16C0 7.16344 7.16344 0 16 0H238C246.837 0 254 7.16344 254 16V110C254 118.837 246.837 126 238 126H16C7.16344 126 0 118.837 0 110V16Z" fill="white"/>
<path d="M11 75C11 70.5817 14.5817 67 19 67H52C56.4183 67 60 70.5817 60 75V108C60 112.418 56.4183 116 52 116H19C14.5817 116 11 112.418 11 108V75Z" fill="#E8BAEC"/>
<path d="M74 83.0405C74 81.3613 75.3613 80 77.0405 80H235.959C237.639 80 239 81.3613 239 83.0405C239 84.7198 237.639 86.0811 235.959 86.0811H77.0405C75.3613 86.0811 74 84.7198 74 83.0405Z" fill="#EEF1F5"/>
<path d="M74.7471 95.2026C74.7471 93.5234 76.1084 92.1621 77.7876 92.1621H172.367C174.046 92.1621 175.407 93.5234 175.407 95.2026C175.407 96.8819 174.046 98.2432 172.367 98.2432H77.7876C76.1084 98.2432 74.7471 96.8819 74.7471 95.2026Z" fill="#EEF1F5"/>
<path d="M74 71.0405C74 69.3613 75.3613 68 77.0405 68H235.959C237.639 68 239 69.3613 239 71.0405C239 72.7198 237.639 74.0811 235.959 74.0811H77.0405C75.3613 74.0811 74 72.7198 74 71.0405Z" fill="#DDE3EB"/>
<path d="M11 18C11 13.5817 14.5817 10 19 10H52C56.4183 10 60 13.5817 60 18V51C60 55.4183 56.4183 59 52 59H19C14.5817 59 11 55.4183 11 51V18Z" fill="#E8BAEC"/>
<path d="M74 26C74 24.3431 75.3431 23 77 23H236C237.657 23 239 24.3431 239 26C239 27.6569 237.657 29 236 29H77C75.3431 29 74 27.6569 74 26Z" fill="#EEF1F5"/>
<path d="M75 38C75 36.3431 76.3431 35 78 35H172C173.657 35 175 36.3431 175 38C175 39.6569 173.657 41 172 41H78C76.3431 41 75 39.6569 75 38Z" fill="#EEF1F5"/>
<path d="M74 14C74 12.3431 75.3431 11 77 11H236C237.657 11 239 12.3431 239 14C239 15.6569 237.657 17 236 17H77C75.3431 17 74 15.6569 74 14Z" fill="#DDE3EB"/>
</svg>
