<svg preserveAspectRatio="none" width="100%" height="100%" overflow="visible" style="display: block;" viewBox="0 0 160 45" fill="none" xmlns="http://www.w3.org/2000/svg">
<g id="Group">
<g id="Group_2">
<path id="Vector" d="M57.6658 32.7482L57.6405 13.3926H60.2307V22.4603H70.6084V13.3926H73.1944V32.7482H70.6084V23.413H60.2307L60.256 32.7482H57.6658Z" fill="var(--fill-0, #9C1E5A)"/>
<path id="Vector_2" d="M89.6859 17.8972V32.7482H87.1252V28.2937C86.671 29.8858 85.952 31.0767 84.9639 31.8456C83.9757 32.6395 82.8026 33.0407 81.4696 33.0407C79.5732 33.0407 78.1898 32.4557 77.2521 31.3191C76.3186 30.1783 75.8645 28.6949 75.8645 26.8646V17.9014H78.4253V26.1459C78.4253 27.5499 78.7448 28.6907 79.384 29.5682C80.0231 30.4457 81.0912 30.8928 82.6133 30.8928C83.8958 30.8928 84.9344 30.4666 85.7334 29.5933C86.5323 28.7199 86.9864 27.4454 87.0957 25.7238V17.9014H89.6859V17.8972Z" fill="var(--fill-0, #9C1E5A)"/>
<path id="Vector_3" d="M91.7926 25.4021C91.7926 24.9508 91.8178 24.4744 91.8977 24.0231C91.9776 23.5718 92.0827 23.1498 92.2173 22.7236C92.3518 22.2973 92.5116 21.9004 92.6966 21.5034C92.8817 21.1064 93.1255 20.7596 93.3905 20.4169C93.6554 20.0743 93.9497 19.7525 94.2693 19.4642C94.5888 19.1759 94.9378 18.9335 95.3373 18.6953C95.7115 18.4571 96.111 18.2691 96.5651 18.1103C96.994 17.9515 97.444 17.8178 97.9528 17.7384C98.4321 17.659 98.9409 17.6047 99.4749 17.6047C100.089 17.6047 100.648 17.659 101.182 17.7384C101.691 17.8429 102.195 17.9766 102.65 18.1646C103.104 18.3485 103.528 18.5909 103.903 18.829C104.277 19.0923 104.622 19.3848 104.916 19.7316C105.21 20.0743 105.475 20.4211 105.715 20.8181C105.955 21.2151 106.144 21.612 106.304 22.0633C106.438 22.5146 106.569 22.9659 106.648 23.4674C106.728 23.973 106.754 24.4744 106.754 24.98V25.2976C106.754 25.4313 106.754 25.5358 106.728 25.6695H94.3197C94.345 27.1822 94.7991 28.4274 95.6821 29.3551C96.5357 30.2828 97.7888 30.7591 99.4455 30.7591C100.753 30.7591 101.767 30.4666 102.54 29.9109C103.289 29.3551 103.823 28.5862 104.168 27.6042L106.543 28.4776C106.064 29.7771 105.236 30.8636 104.088 31.7119C102.94 32.5852 101.418 33.0114 99.5254 33.0114C98.8568 33.0114 98.2429 32.9571 97.6836 32.8526C97.1244 32.7732 96.5904 32.6144 96.111 32.4264C95.6317 32.2384 95.1775 32.0002 94.7781 31.7369C94.3786 31.4737 94.0044 31.1519 93.71 30.8093C93.3904 30.4624 93.1213 30.0947 92.8817 29.6936C92.642 29.2966 92.4275 28.8453 92.2677 28.394C92.108 27.9427 92.0028 27.4413 91.9229 26.9356C91.8431 26.43 91.7884 25.9286 91.7884 25.3979L91.7926 25.4021ZM99.4791 19.8612C97.9065 19.8612 96.7039 20.3125 95.8251 21.2401C94.9463 22.1678 94.4375 23.3629 94.3323 24.792H104.231C104.205 23.3336 103.802 22.1385 103.028 21.2109C102.254 20.3083 101.052 19.857 99.4791 19.857V19.8612Z" fill="var(--fill-0, #9C1E5A)"/>
<path id="Vector_4" d="M115.781 17.6883C116.395 17.6883 116.955 17.7677 117.463 17.9265C117.972 18.0852 118.422 18.2984 118.771 18.5365L117.838 20.9769C117.409 20.6342 116.984 20.3919 116.53 20.2331C116.076 20.0994 115.542 20.02 114.928 20.02C113.994 20.02 113.166 20.3626 112.447 21.0521C111.728 21.7666 111.324 22.9367 111.219 24.604V32.744H108.629V17.893H111.19V22.3224C111.484 20.7303 111.989 19.5645 112.762 18.7956C113.536 18.0267 114.524 17.6799 115.777 17.6799L115.781 17.6883Z" fill="var(--fill-0, #9C1E5A)"/>
<path id="Vector_5" d="M127.362 17.6883C127.976 17.6883 128.535 17.7677 129.044 17.9265C129.552 18.0852 130.002 18.2984 130.351 18.5365L129.418 20.9769C128.989 20.6342 128.564 20.3919 128.11 20.2331C127.656 20.0994 127.122 20.02 126.508 20.02C125.575 20.02 124.746 20.3626 124.027 21.0521C123.308 21.7666 122.905 22.9367 122.799 24.604V32.744H120.209V17.893H122.77V22.3224C123.064 20.7303 123.569 19.5645 124.343 18.7956C125.116 18.0267 126.104 17.6799 127.357 17.6799L127.362 17.6883Z" fill="var(--fill-0, #9C1E5A)"/>
<path id="Vector_6" d="M130.351 29.539C130.351 28.8244 130.511 28.1851 130.805 27.6836C131.1 27.1822 131.525 26.756 132.088 26.4091C132.727 25.9829 133.53 25.6403 134.464 25.4021C135.397 25.1639 136.465 24.8965 137.664 24.6583C138.837 24.4201 139.8 24.1527 140.519 23.8643C141.238 23.5718 141.587 23.1205 141.557 22.5104C141.557 21.7959 141.292 21.1315 140.729 20.5757C140.166 20.02 139.207 19.7525 137.819 19.7525C136.617 19.7525 135.603 20.0158 134.779 20.5465C133.955 21.0772 133.312 21.9004 132.803 23.0119L130.536 21.9505C131.255 20.5465 132.244 19.46 133.497 18.7162C134.724 17.9724 136.192 17.6005 137.899 17.6005C139.901 17.6005 141.423 18.0518 142.461 18.9795C143.5 19.9071 144.009 21.2067 144.009 22.8489V29.1336C144.009 29.7688 144.114 30.195 144.328 30.4332C144.543 30.6714 144.862 30.7758 145.317 30.7758C145.531 30.7758 145.716 30.7508 145.876 30.7215C146.01 30.6964 146.141 30.6421 146.275 30.5627V32.6061C146.09 32.7106 145.846 32.79 145.527 32.8693C145.178 32.9487 144.833 32.9738 144.484 32.9738C143.496 32.9738 142.752 32.7106 142.268 32.1799C141.759 31.6743 141.52 30.826 141.549 29.6601V27.9093C141.015 29.3927 140.136 30.6129 138.934 31.5698C137.706 32.5518 136.343 33.0281 134.851 33.0281C133.278 33.0281 132.155 32.6855 131.436 32.0211C130.717 31.3567 130.343 30.5084 130.343 29.5264L130.351 29.539ZM141.612 25.6152V23.9437C141.318 24.3407 140.838 24.6332 140.145 24.8714C139.451 25.1096 138.597 25.3227 137.584 25.5609C136.141 25.8534 135.023 26.196 134.195 26.6222C133.366 27.0735 132.967 27.763 132.942 28.7158C132.967 29.3802 133.236 29.9109 133.77 30.3329C134.304 30.7591 135.103 30.9681 136.171 30.9681C136.491 30.9681 136.81 30.943 137.13 30.8887C137.449 30.8343 137.769 30.7549 138.063 30.6254C138.357 30.5209 138.652 30.3872 138.942 30.1992C139.207 30.0404 139.476 29.8565 139.716 29.6142C139.955 29.3718 140.195 29.1378 140.409 28.8453C140.594 28.582 140.784 28.2895 140.969 27.9427C141.128 27.6001 141.263 27.2532 141.368 26.8563C141.473 26.4593 141.553 26.0623 141.608 25.611L141.612 25.6152Z" fill="var(--fill-0, #9C1E5A)"/>
<path id="Vector_7" d="M144.867 17.8972H147.537L151.885 28.1851L152.364 29.5891L152.873 28.1558L157.355 17.893H159.996L150.762 38.4688H148.092L151.027 32.1297L144.862 17.8888L144.867 17.8972Z" fill="var(--fill-0, #9C1E5A)"/>
</g>
<path id="Vector_8" d="M18.8925 16.1255C18.8337 16.1631 18.7706 16.1965 18.7075 16.2299C18.6487 16.2675 18.5898 16.3093 18.5309 16.3469L18.4426 16.4054C18.4132 16.4263 18.3837 16.443 18.3543 16.4639L9.54929 4.1118C9.63759 4.04494 9.72589 3.98644 9.8184 3.92794L10.0917 3.74826C10.2725 3.63126 10.4533 3.5059 10.6384 3.39307L11.1976 3.05878C11.3868 2.95013 11.5718 2.83731 11.7653 2.73702L19.0776 16.0168C19.0145 16.0461 18.9556 16.0878 18.8925 16.1213V16.1255Z" fill="var(--fill-0, #8F4098)"/>
<path id="Vector_9" d="M18.1104 16.6478C18.081 16.6687 18.0558 16.6938 18.0305 16.7146C17.9759 16.7606 17.9254 16.8024 17.8708 16.8442C17.8161 16.886 17.7656 16.9361 17.7152 16.9821C17.6647 17.028 17.6143 17.074 17.5596 17.12L7.08943 6.11756L7.56458 5.69134C7.72437 5.54926 7.87995 5.40719 8.04815 5.27347L8.54432 4.87232C8.62842 4.80546 8.70831 4.7386 8.79661 4.67592L9.05311 4.4837L18.1987 16.5893L18.1146 16.6478H18.1104Z" fill="var(--fill-0, #954098)"/>
<path id="Vector_10" d="M17.3325 17.3414L17.2947 17.3749L17.261 17.4125C17.2148 17.4626 17.1685 17.5128 17.1223 17.5629L17.0508 17.6381L16.9877 17.7175C16.9457 17.7718 16.8994 17.822 16.8574 17.8721L4.94074 8.44507L5.3402 7.96453L5.54204 7.72634L5.75228 7.49652L6.17277 7.03687L6.27789 6.92404L6.38722 6.8154L6.61008 6.59393L17.404 17.2746L17.3325 17.3456V17.3414Z" fill="var(--fill-0, #A64198)"/>
<path id="Vector_11" d="M16.5967 18.2231C16.5588 18.2775 16.5252 18.336 16.4873 18.3903C16.4075 18.4989 16.3444 18.6159 16.2729 18.7288L3.14525 11.04C3.3555 10.6932 3.56154 10.3422 3.79701 10.0121L4.14181 9.50645C4.25955 9.33931 4.38149 9.18052 4.50343 9.01755L16.7186 18.0644C16.6808 18.1187 16.6345 18.1688 16.5967 18.2231Z" fill="var(--fill-0, #A54098)"/>
<path id="Vector_12" d="M16.0458 19.1216C16.0206 19.1801 15.9912 19.2386 15.9617 19.3012L15.9197 19.389L15.8987 19.4308C15.8987 19.4308 15.886 19.46 15.8818 19.4767C15.8566 19.5394 15.8314 19.5979 15.8062 19.6564L1.73241 13.8564L1.96789 13.309L2.02675 13.1711L2.08983 13.0374L2.22018 12.77L2.48088 12.2351C2.57339 12.0596 2.6701 11.8841 2.76261 11.7128L16.1425 18.9544L16.0458 19.1257V19.1216Z" fill="var(--fill-0, #A03F97)"/>
<path id="Vector_13" d="M15.6338 20.091L15.5791 20.2749C15.5623 20.3375 15.537 20.396 15.5202 20.4587C15.5034 20.5214 15.4908 20.5841 15.474 20.6426L0.72324 16.84L0.874616 16.2759C0.929279 16.0878 0.988147 15.904 1.04702 15.7201C1.10588 15.5363 1.16475 15.3482 1.22783 15.1644L1.42966 14.617L15.701 19.9071C15.68 19.9656 15.6548 20.0283 15.6338 20.0868V20.091Z" fill="var(--fill-0, #A33F97)"/>
<path id="Vector_14" d="M15.3604 21.1064C15.3478 21.1691 15.3436 21.2276 15.331 21.2903C15.3226 21.353 15.31 21.4115 15.2974 21.4741L15.2763 21.658L0.147171 19.9406C0.168195 19.7525 0.18922 19.5645 0.214449 19.3723L0.306956 18.8082C0.340596 18.6201 0.365825 18.4321 0.403669 18.2482L0.521405 17.6924L15.4025 20.9226C15.3899 20.9852 15.3773 21.0437 15.3604 21.1064Z" fill="var(--fill-0, #CA4097)"/>
<path id="Vector_15" d="M15.2385 22.1385V22.1845C15.2385 22.1845 15.2385 22.2138 15.2385 22.2305V22.3224C15.2385 22.3809 15.2385 22.4436 15.2343 22.5021V22.5481V22.594V22.686L0.00840977 23.0955L0 22.8155V22.6776V22.5397L0.00840977 21.9798V21.6998C0.0168195 21.6538 0.0168195 21.6079 0.0168195 21.5619L0.0252293 21.424L0.0588684 20.8682L15.2511 21.963C15.2511 22.0215 15.2427 22.0842 15.2385 22.1427V22.1385Z" fill="var(--fill-0, #CD4097)"/>
<path id="Vector_16" d="M15.3352 23.7055L0.315366 26.242C0.193425 25.5233 0.105122 24.8004 0.0546635 24.0774L15.2511 23.0035C15.2679 23.2375 15.2974 23.4715 15.3352 23.7055Z" fill="var(--fill-0, #CE3D96)"/>
<path id="Vector_17" d="M15.4824 24.3741C15.516 24.487 15.5497 24.5998 15.5791 24.7126L1.06384 29.3049C0.962918 28.9665 0.862001 28.628 0.765289 28.2854C0.676986 27.9427 0.597093 27.5959 0.512996 27.2532L15.3983 24.0357C15.4277 24.1485 15.4529 24.2613 15.4782 24.3741H15.4824Z" fill="var(--fill-0, #EF517E)"/>
<path id="Vector_18" d="M15.7305 25.1305L15.7641 25.2099C15.7851 25.2642 15.8062 25.3185 15.8272 25.3687C15.8398 25.3937 15.8482 25.423 15.8608 25.448L15.8987 25.5233C15.9239 25.5734 15.9491 25.6277 15.9701 25.6779L2.22859 32.2133L2.00993 31.7453L1.90061 31.5113C1.86276 31.4319 1.83333 31.3525 1.79969 31.2731L1.60206 30.7967L1.50535 30.5585C1.47171 30.4792 1.44227 30.3998 1.41284 30.3162L15.6926 25.0469C15.701 25.0761 15.7136 25.1012 15.7263 25.1263L15.7305 25.1305Z" fill="var(--fill-0, #F15F74)"/>
<path id="Vector_19" d="M16.3065 26.3005C16.336 26.3465 16.3612 26.3966 16.3906 26.4426C16.4243 26.4885 16.4537 26.5345 16.4831 26.5805L3.79701 34.9629L3.51528 34.5408C3.42277 34.3987 3.33868 34.2525 3.25037 34.1062C3.07797 33.8137 2.90137 33.5296 2.74579 33.2287L16.1383 26.0163C16.1846 26.1166 16.2477 26.2086 16.3023 26.3047L16.3065 26.3005Z" fill="var(--fill-0, #F26F6B)"/>
<path id="Vector_20" d="M16.7985 27.0234C16.8321 27.0652 16.87 27.1028 16.9036 27.1446C16.9373 27.1864 16.9709 27.2282 17.0045 27.2699C17.0214 27.2908 17.0382 27.3117 17.0592 27.3284L17.1139 27.3869L5.74387 37.4617L5.57988 37.2778C5.52522 37.2152 5.47055 37.1567 5.41589 37.0898L5.10052 36.7095L4.78936 36.3251C4.68844 36.1956 4.59173 36.0618 4.49081 35.9281L16.7102 26.8897L16.8027 27.0192L16.7985 27.0234Z" fill="var(--fill-0, #F2706B)"/>
<path id="Vector_21" d="M17.5007 27.7965C17.5007 27.7965 17.5386 27.8341 17.5596 27.8508L17.6185 27.9009C17.6563 27.9343 17.6984 27.972 17.7362 28.0054C17.7572 28.0221 17.774 28.043 17.7951 28.0597L17.8581 28.1099L8.02292 39.668L7.8379 39.5134C7.77903 39.4591 7.71596 39.409 7.65709 39.3546L7.29968 39.0329L7.12307 38.8699C7.0642 38.8156 7.00534 38.7613 6.94647 38.7069L6.60167 38.3685L17.3956 27.6878C17.4334 27.7254 17.4713 27.763 17.5049 27.8006L17.5007 27.7965Z" fill="var(--fill-0, #F4806B)"/>
<path id="Vector_22" d="M18.4342 28.5486L18.5604 28.6364C18.6024 28.6656 18.6445 28.6949 18.6907 28.7199L10.5753 41.5317C10.4407 41.4523 10.3104 41.3646 10.18 41.2768L9.78897 41.0177C9.52827 40.8464 9.28018 40.6584 9.02788 40.4703L18.1819 28.3689C18.266 28.4274 18.3417 28.4943 18.43 28.5486H18.4342Z" fill="var(--fill-0, #F5845E)"/>
<path id="Vector_23" d="M19.2079 29.0124C19.2289 29.025 19.25 29.0375 19.2752 29.05L19.3425 29.0793C19.435 29.1211 19.5233 29.1671 19.6158 29.2088L13.3673 43.0151C13.0898 42.8898 12.8165 42.7561 12.5432 42.6265L12.3371 42.5262C12.2698 42.4928 12.2026 42.4552 12.1353 42.4218L11.7358 42.2045L19.0776 28.9372L19.2079 29.0083V29.0124Z" fill="var(--fill-0, #F5874F)"/>
<path id="Vector_24" d="M20.1792 29.4345L20.2465 29.4596C20.2675 29.4679 20.2928 29.4721 20.318 29.4805C20.4105 29.5097 20.503 29.539 20.5955 29.5682L16.3402 44.1058C16.0584 44.018 15.7767 43.9303 15.495 43.8425C15.4235 43.8174 15.352 43.7965 15.2847 43.7757L15.0745 43.7004L14.6582 43.55L20.0405 29.3885L20.1792 29.4387V29.4345Z" fill="var(--fill-0, #F68C54)"/>
<path id="Vector_25" d="M21.1968 29.7145C21.2431 29.7228 21.2893 29.7395 21.3356 29.7437C21.4281 29.7562 21.5206 29.773 21.6131 29.7897L19.4392 44.7744C19.1532 44.7284 18.8715 44.6824 18.5898 44.6365C18.4468 44.6156 18.3081 44.5821 18.1651 44.5529L17.7446 44.4651L21.0581 29.6894L21.1968 29.7186V29.7145Z" fill="var(--fill-0, #F79555)"/>
<path id="Vector_26" d="M22.37 29.8607C22.4625 29.8607 22.5508 29.8607 22.6433 29.8607L22.6097 45C22.3321 45 22.0504 44.9916 21.7729 44.9833C21.4954 44.9707 21.2136 44.9499 20.9361 44.9331L22.1009 29.8398C22.1934 29.844 22.2817 29.8524 22.3742 29.8565L22.37 29.8607Z" fill="var(--fill-0, #F89E53)"/>
<path id="Vector_27" d="M23.4128 29.8273C23.4548 29.8273 23.5011 29.8147 23.5431 29.8106L23.6735 29.7939L25.7843 44.7869L25.3807 44.8412C25.2461 44.8579 25.1116 44.8788 24.977 44.8872C24.7079 44.9122 24.4388 44.9331 24.1697 44.954L23.1521 29.8482C23.2404 29.8398 23.3287 29.8315 23.4128 29.8273Z" fill="var(--fill-0, #FAA753)"/>
<path id="Vector_28" d="M24.4388 29.6434L24.5019 29.6309C24.5019 29.6309 24.5439 29.6225 24.5649 29.6142L24.6869 29.5766L28.8833 44.1308L28.5091 44.2395C28.446 44.2562 28.383 44.2729 28.3199 44.2896L28.1307 44.3356C27.8784 44.3983 27.6219 44.4568 27.3696 44.5153L24.1907 29.7103C24.2748 29.6894 24.3589 29.6685 24.4388 29.6518V29.6434Z" fill="var(--fill-0, #FCB653)"/>
<path id="Vector_29" d="M25.2713 29.3885L25.3302 29.3634L25.448 29.3133L25.5657 29.2673L25.6246 29.2464C25.6246 29.2464 25.6624 29.2297 25.6792 29.2214L31.8562 43.0611C31.7973 43.0862 31.7427 43.1154 31.6838 43.1363L31.5114 43.2074L31.1624 43.3494L30.8134 43.4873L30.6368 43.5584L30.4602 43.621L25.2167 29.4094L25.2756 29.3885H25.2713Z" fill="var(--fill-0, #FCB554)"/>
<path id="Vector_30" d="M26.2931 28.9205C26.3268 28.9038 26.3604 28.8787 26.394 28.8578C26.4613 28.816 26.5286 28.7784 26.6001 28.7367L34.6566 41.586C34.4464 41.7114 34.2362 41.8368 34.0259 41.9579C33.9208 42.0206 33.8157 42.0833 33.7105 42.1418L33.3868 42.3131L26.1838 28.9748L26.2889 28.9205H26.2931Z" fill="var(--fill-0, #FCB857)"/>
<path id="Vector_31" d="M27.1635 28.348C27.193 28.3271 27.2266 28.3062 27.2561 28.277C27.3149 28.2269 27.3738 28.1809 27.4327 28.1307L37.23 39.7224C37.0492 39.8728 36.8642 40.019 36.6834 40.1695C36.5909 40.2447 36.4984 40.3157 36.4017 40.3826L36.1157 40.5915L27.071 28.4107L27.1635 28.3439V28.348Z" fill="var(--fill-0, #FCB651)"/>
<path id="Vector_32" d="M28.0255 27.5833C28.076 27.529 28.1223 27.4747 28.1727 27.4204L39.5091 37.5327L39.0507 38.03C38.891 38.193 38.7312 38.3518 38.5714 38.5105L27.8658 27.738C27.9162 27.6836 27.9709 27.6335 28.0255 27.5833Z" fill="var(--fill-0, #FCB554)"/>
<path id="Vector_33" d="M28.6941 26.781C28.7362 26.7225 28.774 26.664 28.8119 26.6055L41.4601 35.0422C41.3382 35.2219 41.2163 35.4016 41.0901 35.5771L40.6991 36.0994L28.5596 26.9524C28.6016 26.8939 28.6437 26.8395 28.6899 26.781H28.6941Z" fill="var(--fill-0, #FCB455)"/>
<path id="Vector_34" d="M29.245 25.891C29.2618 25.8617 29.2786 25.8325 29.2912 25.7991L29.3375 25.7071L43.0412 32.3136L42.9024 32.5936C42.8562 32.6855 42.8099 32.7816 42.7595 32.8693L42.4609 33.4168L29.144 26.0665C29.1777 26.008 29.2113 25.9453 29.245 25.8868V25.891Z" fill="var(--fill-0, #FCB766)"/>
<path id="Vector_35" d="M29.7243 24.7419L44.2228 29.3927C44.105 29.773 43.962 30.1449 43.8233 30.5209L29.594 25.1138C29.636 24.9884 29.6907 24.8672 29.7243 24.7419Z" fill="var(--fill-0, #FCB766)"/>
<path id="Vector_36" d="M29.9388 23.9187C29.9472 23.8894 29.9556 23.856 29.9598 23.8267L29.9724 23.7348L44.9796 26.3339L44.9334 26.6181C44.9166 26.71 44.8955 26.8061 44.8745 26.898L44.7526 27.458L29.8967 24.1025C29.9093 24.0398 29.9219 23.9813 29.9346 23.9187H29.9388Z" fill="var(--fill-0, #FDC88A)"/>
<path id="Vector_37" d="M30.0733 22.8907C30.0733 22.8322 30.0859 22.7737 30.0817 22.711L45.3076 23.1916C45.3076 23.3754 45.295 23.5551 45.2824 23.739L45.2445 24.2864L30.0607 23.0662C30.0607 23.0077 30.0691 22.9492 30.0733 22.8865V22.8907Z" fill="var(--fill-0, #F9C389)"/>
<path id="Vector_38" d="M30.0439 21.6872L45.1857 20.0367C45.2193 20.3835 45.2487 20.7303 45.274 21.0772L30.0691 22.0257C30.0565 21.9129 30.0481 21.8001 30.0397 21.6872H30.0439Z" fill="var(--fill-0, #FECA8B)"/>
<path id="Vector_39" d="M29.8547 20.676L44.6138 16.9319C44.6937 17.2537 44.7694 17.5754 44.8409 17.8972L29.9304 20.9936C29.9051 20.8891 29.8757 20.7847 29.8547 20.676Z" fill="var(--fill-0, #FAC779)"/>
<path id="Vector_40" d="M43.7981 14.3829C43.8275 14.454 43.8569 14.525 43.8822 14.6002L43.962 14.8217L29.6402 19.9782L29.615 19.903C29.6066 19.8779 29.594 19.8528 29.5856 19.8319L29.5267 19.6857L43.6257 13.9525L43.8023 14.3871L43.7981 14.3829Z" fill="var(--fill-0, #FCB766)"/>
<path id="Vector_41" d="M29.0599 18.7538L42.2212 11.1278C42.2969 11.2573 42.3726 11.3827 42.4441 11.5122L42.6543 11.905L29.2029 19.0087L29.1356 18.8792C29.1146 18.8374 29.0852 18.7956 29.0599 18.7538Z" fill="var(--fill-0, #FCB766)"/>
<path id="Vector_42" d="M28.5638 18.01L28.5259 17.9557C28.5259 17.9557 28.4965 17.9223 28.4839 17.9014L40.4342 8.51193C40.4762 8.56625 40.5225 8.62058 40.5645 8.6749L40.6906 8.84205L40.9429 9.18052L28.6479 18.1187L28.568 18.01H28.5638Z" fill="var(--fill-0, #FCB958)"/>
<path id="Vector_43" d="M27.7859 17.145L38.2897 6.18024C38.4789 6.3641 38.6639 6.54796 38.8489 6.736L27.9667 17.3289C27.9036 17.2704 27.8447 17.2077 27.7859 17.1492V17.145Z" fill="var(--fill-0, #FCB857)"/>
<path id="Vector_44" d="M26.9869 16.4848L35.8424 4.16612C36.04 4.31238 36.2377 4.45445 36.4353 4.60488L27.1804 16.6311C27.1173 16.5851 27.05 16.535 26.9869 16.4848Z" fill="var(--fill-0, #FCB653)"/>
<path id="Vector_45" d="M25.1368 15.5321L30.2415 1.26613L30.8344 1.48342L25.3344 15.6031C25.2671 15.578 25.2041 15.5572 25.1368 15.5321Z" fill="var(--fill-0, #F37667)"/>
<path id="Vector_46" d="M24.1318 15.2521L27.1846 0.422045L27.7522 0.543226L24.3168 15.2897C24.2538 15.2772 24.1907 15.2646 24.1318 15.2521Z" fill="var(--fill-0, #F16671)"/>
<path id="Vector_47" d="M23.1058 15.1184L24.0393 0.00835732L24.5691 0.0459653L23.2782 15.1309C23.2194 15.1309 23.1647 15.1268 23.1058 15.1226V15.1184Z" fill="var(--fill-0, #F16570)"/>
<path id="Vector_48" d="M22.0714 15.1268L20.8604 0.0376079L21.3356 0L22.227 15.1142C22.1766 15.1184 22.1261 15.1268 22.0714 15.1309V15.1268Z" fill="var(--fill-0, #D43F96)"/>
<path id="Vector_49" d="M21.0496 15.2814L17.7152 0.509797C17.8539 0.476367 17.9927 0.442938 18.1315 0.417866L21.1842 15.2479C21.1379 15.2521 21.0917 15.2688 21.0496 15.2772V15.2814Z" fill="var(--fill-0, #B14499)"/>
<path id="Vector_50" d="M15.0325 1.28285L20.1624 15.5363L20.0447 15.5739C19.9774 15.6031 19.9101 15.6324 19.8386 15.6574L19.7335 15.6992L19.6831 15.7201L19.6326 15.7452C19.5653 15.7786 19.5022 15.8079 19.435 15.8371L19.3341 15.8831L19.2373 15.9374L12.2656 2.47795L12.56 2.32751L12.8585 2.18544L13.4598 1.90965L13.6112 1.84279L13.7626 1.78011L14.0695 1.65475L14.6835 1.41239L15.0325 1.29121V1.28285Z" fill="var(--fill-0, #983F98)"/>
<path id="Vector_51" d="M26.0955 15.9458L33.1429 2.52391L33.7442 2.84985L26.2931 16.0544C26.2259 16.021 26.1586 15.9834 26.0955 15.9458Z" fill="var(--fill-0, #F89E53)"/>
</g>
</svg>
