<svg preserveAspectRatio="none" width="100%" height="100%" overflow="visible" style="display: block;" viewBox="0 0 339 474" fill="none" xmlns="http://www.w3.org/2000/svg">
<g id="Isolation_Mode" clip-path="url(#clip0_91_7017)">
<path id="Vector" d="M213.592 312.769L241.672 319.939L263.492 300.879L265.352 329.799L290.222 344.659L263.292 355.359L256.842 383.609L238.342 361.309L209.482 363.899L224.982 339.419L213.592 312.769Z" fill="var(--fill-0, #40B4F4)"/>
<path id="Vector_2" d="M361.682 423.589C357.492 430.899 353.062 438.079 349.182 445.539C344.102 455.319 338.982 465.099 336.182 475.889C333.242 487.229 333.522 498.409 337.642 509.359C339.802 515.099 343.052 520.229 348.632 523.419C348.962 523.609 349.302 523.819 349.382 524.439C347.612 526.579 345.042 527.839 342.702 529.379C341.612 530.099 340.862 529.119 340.212 528.439C337.312 525.379 334.522 522.209 332.412 518.549C321.952 500.379 320.042 481.369 326.772 461.479C328.872 455.269 331.592 449.349 334.432 443.439C338.902 434.159 344.392 425.469 349.442 416.529C353.522 418.879 357.592 421.239 361.672 423.589H361.682Z" fill="var(--fill-0, #FBAF6F)"/>
<path id="Vector_3" d="M320.782 31.2989C319.812 27.7189 318.292 24.3689 316.452 21.1889C314.342 17.5689 312.112 13.9889 309.152 10.9589C306.642 8.40891 304.142 8.07891 301.132 9.91891C300.242 10.4589 299.392 11.0789 298.542 11.6889C296.762 12.9589 295.052 14.3389 293.202 15.4889C290.702 17.0189 288.212 16.5589 286.452 14.2389C285.572 13.0689 284.802 11.8089 284.312 10.3589C282.702 5.52891 281.752 0.548909 280.812 -4.43109C280.072 -8.39109 279.382 -12.3611 278.282 -16.2311C277.512 -18.9211 278.082 -19.1611 275.102 -17.8411C273.662 -17.2011 272.202 -16.5911 270.792 -15.9111C268.902 -14.9911 267.002 -14.1911 264.892 -14.7811C264.512 -13.8811 264.782 -13.2011 265.012 -12.5711C266.352 -8.87109 267.712 -5.18109 269.082 -1.49109C271.002 3.66891 272.952 8.81891 274.862 13.9889C275.662 16.1389 276.662 18.1789 277.992 20.0389C280.272 23.2289 283.562 23.8689 287.112 23.0289C290.522 22.2189 293.892 22.6189 297.282 22.8589C298.182 22.9189 298.922 23.3589 299.652 23.8789C302.572 25.9489 303.752 29.0489 304.652 32.2689C305.562 35.5589 306.032 38.9389 306.422 42.3389C306.652 44.3089 306.792 46.3189 307.722 48.5389C311.892 44.0189 315.762 39.7589 319.722 35.5589C320.932 34.2789 321.242 32.9889 320.782 31.2889V31.2989Z" fill="var(--fill-0, #A1E2FF)"/>
<path id="Vector_4" d="M392.362 225.319C391.472 229.199 391.552 233.159 391.412 237.109C391.262 241.189 390.912 245.269 388.932 249.029C387.252 252.229 384.832 254.749 382.052 256.909C374.602 262.709 367.062 268.399 359.532 274.099C356.782 276.179 353.942 278.119 350.802 279.599C347.522 281.149 347.082 281.099 344.622 278.799C340.832 275.249 336.882 271.859 333.012 268.379C332.532 267.949 331.942 267.589 331.772 266.909C331.962 266.529 332.292 266.409 332.662 266.329C339.372 264.959 345.402 261.969 351.132 258.359C356.672 254.879 362.502 252.009 368.452 249.329C372.652 247.429 376.862 245.459 380.462 242.499C384.992 238.759 387.132 234.069 385.872 228.129C385.672 227.199 385.502 226.269 385.312 225.339H392.362V225.319Z" fill="var(--fill-0, #FBAF6F)"/>
<path id="Vector_5" d="M180.752 423.589C176.562 430.899 172.132 438.079 168.252 445.539C163.172 455.319 158.052 465.099 155.252 475.889C152.312 487.229 152.592 498.409 156.712 509.359C158.872 515.099 162.122 520.229 167.702 523.419C168.032 523.609 168.372 523.819 168.452 524.439C166.682 526.579 164.112 527.839 161.772 529.379C160.682 530.099 159.932 529.119 159.282 528.439C156.382 525.379 153.592 522.209 151.482 518.549C141.022 500.379 139.112 481.369 145.842 461.479C147.942 455.269 150.662 449.349 153.502 443.439C157.972 434.159 163.462 425.469 168.512 416.529C172.592 418.879 176.662 421.239 180.742 423.589H180.752Z" fill="var(--fill-0, #A1E2FF)"/>
<path id="Vector_6" d="M288.072 86.1589C291.042 87.3589 293.642 89.3189 296.492 90.7889C296.922 91.0089 297.312 91.3689 297.762 91.5189C301.042 92.6689 302.212 94.8489 302.112 98.3889C301.832 107.869 301.942 117.379 300.162 126.739C298.862 133.589 296.762 140.189 293.252 146.269C288.642 154.289 281.802 159.789 273.532 163.659C267.502 166.489 261.192 168.639 255.002 171.089C247.282 174.149 240.232 178.259 234.122 183.929C232.562 185.379 232.512 185.339 230.832 183.949C228.642 182.139 226.462 180.319 224.272 178.519C221.912 176.579 221.912 176.589 224.412 174.599C229.352 170.669 234.812 167.659 240.642 165.249C247.062 162.589 253.662 160.399 260.022 157.569C272.332 152.119 279.782 142.599 283.752 130.029C286.672 120.799 287.542 111.289 287.662 101.659C287.722 96.9689 287.822 92.2789 287.632 87.5989C287.612 87.1189 287.632 86.6189 288.062 86.1389L288.072 86.1589Z" fill="var(--fill-0, #C47DE2)"/>
<path id="Vector_7" d="M396.992 352.759C393.922 350.669 390.592 349.109 387.132 347.899C383.172 346.519 379.152 345.249 374.932 344.879C371.372 344.569 369.252 345.949 368.162 349.309C367.842 350.299 367.602 351.329 367.342 352.339C366.812 354.459 366.422 356.619 365.752 358.699C364.852 361.489 362.652 362.759 359.812 362.139C358.382 361.829 356.972 361.369 355.662 360.579C351.302 357.959 347.332 354.799 343.382 351.619C340.242 349.099 337.142 346.519 333.792 344.299C331.462 342.749 331.732 342.199 330.332 345.149C329.652 346.569 328.942 347.979 328.312 349.429C327.472 351.359 326.552 353.199 324.572 354.129C324.872 355.059 325.512 355.399 326.102 355.729C329.522 357.669 332.962 359.589 336.402 361.489C341.222 364.159 346.052 366.809 350.862 369.479C352.862 370.589 354.962 371.489 357.172 372.039C360.982 372.979 363.892 371.319 366.042 368.369C368.112 365.539 370.922 363.649 373.652 361.629C374.372 361.089 375.222 360.949 376.112 360.859C379.672 360.529 382.592 362.119 385.372 363.979C388.202 365.879 390.762 368.149 393.262 370.479C394.712 371.829 396.132 373.259 398.282 374.339C398.512 368.199 398.682 362.439 398.962 356.679C399.052 354.909 398.442 353.739 396.992 352.739V352.759Z" fill="var(--fill-0, #0071BC)"/>
<path id="Vector_8" d="M390.812 -3.96109C390.572 -3.57109 390.292 -3.18109 390.082 -2.76109C386.332 4.48891 382.112 11.5389 377.462 18.4189C374.192 23.2589 370.782 28.0189 367.222 32.6789C364.052 36.8289 360.942 41.0089 358.522 45.5689C354.192 53.6889 353.772 60.9989 357.192 67.4589C357.982 68.9589 358.962 70.3989 360.372 71.3989C363.812 73.8389 368.012 74.6689 372.662 74.6089C375.122 74.5789 377.582 74.5689 379.862 75.1189C381.532 75.5189 382.562 76.5289 382.572 78.4389C382.572 79.6389 382.542 80.8489 382.372 82.0889C381.722 86.8689 379.732 91.4689 377.262 96.0189C374.422 101.239 371.062 106.229 367.822 111.259C362.262 119.909 356.582 128.509 352.052 137.599C348.062 145.609 345.352 153.619 344.782 161.819C344.222 169.849 345.492 177.029 348.542 183.489C349.702 185.949 351.462 187.919 353.042 190.039C353.442 190.569 353.952 191.309 354.922 190.579C356.772 189.189 358.742 187.939 360.462 186.139C359.812 185.599 359.332 184.979 358.662 184.689C357.052 183.979 356.272 182.479 355.442 181.099C352.592 176.379 351.962 170.629 352.472 164.479C353.042 157.639 355.562 150.859 358.882 144.159C362.562 136.719 367.112 129.629 371.662 122.539C376.642 114.769 381.942 107.139 385.882 98.9289C389.052 92.3389 390.832 85.8289 390.152 79.3989C389.522 73.4289 386.712 69.2289 381.762 66.7989C379.092 65.4889 375.882 65.2889 372.672 65.1989C370.312 65.1289 367.932 65.1189 365.652 64.7789C363.492 64.4589 362.532 63.1989 362.662 60.9289C362.712 60.0689 362.752 59.1889 362.952 58.3089C363.622 55.3289 364.912 52.4689 366.632 49.6789C370.032 44.1689 374.272 39.1489 378.112 33.8989C384.102 25.7189 389.462 17.2689 394.352 8.57891C395.052 7.33891 395.152 6.34891 394.712 5.28891C393.612 2.57891 392.632 -0.21109 391.582 -2.95109C391.432 -3.33109 391.582 -3.99109 390.822 -3.95109L390.812 -3.96109Z" fill="var(--fill-0, #0071BC)"/>
<path id="Vector_9" d="M294.982 404.319C294.092 408.199 294.172 412.159 294.032 416.109C293.882 420.189 293.532 424.269 291.552 428.029C289.872 431.229 287.452 433.749 284.672 435.909C277.222 441.709 269.682 447.399 262.152 453.099C259.402 455.179 256.562 457.119 253.422 458.599C250.142 460.149 249.702 460.099 247.242 457.799C243.452 454.249 239.502 450.859 235.632 447.379C235.152 446.949 234.562 446.589 234.392 445.909C234.582 445.529 234.912 445.409 235.282 445.329C241.992 443.959 248.022 440.969 253.752 437.359C259.292 433.879 265.122 431.009 271.072 428.329C275.272 426.429 279.482 424.459 283.082 421.499C287.612 417.759 289.752 413.069 288.492 407.129C288.292 406.199 288.122 405.269 287.932 404.339H294.982V404.319Z" fill="var(--fill-0, #FF8A33)"/>
<path id="Vector_10" d="M170.202 332.389C168.672 331.299 167.102 330.269 165.602 329.149C164.472 328.309 163.542 328.309 162.692 329.509C162.332 330.019 161.912 330.489 161.532 330.979C152.592 342.269 144.322 354.029 136.832 366.329C135.642 368.279 134.322 370.189 132.862 371.939C131.142 373.989 130.002 374.079 127.642 372.839C126.252 372.099 125.062 371.089 123.872 370.069C120.352 367.069 117.812 363.209 114.902 359.689C111.622 355.729 108.102 352.059 103.902 349.119C96.942 344.229 89.222 342.249 80.762 343.769C70.442 345.629 62.602 352.809 62.112 364.469C61.922 368.879 62.372 373.209 62.912 377.559C63.362 381.179 63.992 384.789 63.922 388.449C63.862 391.489 63.562 394.489 62.072 397.239C60.482 400.179 59.002 400.979 55.712 400.509C52.812 400.089 49.972 399.389 47.322 398.099C40.942 394.999 34.592 391.859 28.232 388.729C23.462 386.379 18.672 384.059 13.932 381.659C12.662 381.019 11.832 381.139 11.102 382.409C9.95198 384.379 8.38198 386.099 7.28198 388.569C11.372 390.599 15.272 392.579 19.202 394.489C26.792 398.179 34.212 402.249 42.042 405.439C47.732 407.759 53.592 408.969 59.772 408.039C68.452 406.729 74.602 400.199 75.422 391.449C75.762 387.789 75.602 384.159 75.182 380.529C74.662 376.079 73.972 371.639 73.822 367.149C73.712 363.879 74.002 360.669 75.242 357.629C77.252 352.679 81.522 350.369 86.782 351.219C91.292 351.949 94.872 354.379 98.222 357.289C102.992 361.409 106.442 366.669 110.502 371.409C113.162 374.519 116.062 377.369 119.762 379.209C126.442 382.549 133.102 382.389 139.362 378.259C142.502 376.189 144.812 373.169 146.822 369.939C150.232 364.449 153.692 358.989 157.372 353.669C161.642 347.489 166.032 341.419 170.632 335.479C172.022 333.679 171.992 333.649 170.242 332.399L170.202 332.389Z" fill="var(--fill-0, #CAEF6F)"/>
<path id="Vector_11" d="M173.902 243.489L217.622 252.299L193.312 284.199L173.902 243.489Z" fill="var(--fill-0, #FFF685)"/>
<path id="Vector_12" d="M87.942 439.269L79.922 494.199L38.652 466.109L87.942 439.269Z" fill="var(--fill-0, #FF8A33)"/>
<path id="Vector_13" d="M260.492 264.039C273.432 264.039 283.922 253.549 283.922 240.609C283.922 227.669 273.432 217.179 260.492 217.179C247.552 217.179 237.062 227.669 237.062 240.609C237.062 253.549 247.552 264.039 260.492 264.039Z" fill="var(--fill-0, #FBAF6F)"/>
</g>
<defs>
<clipPath id="clip0_91_7017">
<rect width="338.077" height="473.184" fill="white"/>
</clipPath>
</defs>
</svg>
