<svg xmlns="http://www.w3.org/2000/svg" width="512" height="512" fill="none" viewBox="0 0 512 512"><g clip-path="url(#a)"><path fill="#FFDA44" d="M15.923 345.044C52.093 442.528 145.929 512.001 256 512.001s203.906-69.473 240.077-166.957L256 322.784z"/><path fill="#000" d="M256 .001C145.929.001 52.094 69.473 15.923 166.958L256 189.218l240.077-22.261C459.906 69.473 366.071.001 256 .001"/><path fill="#D80027" d="M15.923 166.958C5.633 194.691 0 224.687 0 256.001s5.633 61.31 15.923 89.043h480.155C506.368 317.311 512 287.315 512 256.001s-5.632-61.31-15.923-89.043z"/></g><defs><clipPath id="a"><path fill="#fff" d="M0 .001h512v512H0z"/></clipPath></defs></svg>