<svg xmlns="http://www.w3.org/2000/svg" width="42" height="42" fill="none" viewBox="0 0 42 42"><g clip-path="url(#a)"><path fill="#F0F0F0" d="M21 42c11.598 0 21-9.402 21-21S32.598 0 21 0 0 9.402 0 21s9.402 21 21 21"/><path fill="#000" d="M21 0C12.675 0 5.48 4.845 2.084 11.87h37.832C36.52 4.845 29.326 0 21 0"/><path fill="#496E2D" d="M21 42c-8.325 0-15.52-4.845-18.916-11.87h37.832C36.52 37.155 29.326 42 21 42"/><path fill="#A2001D" d="M41.008 14.609H.992A21 21 0 0 0 0 20.999c0 2.23.348 4.377.992 6.392h40.016A21 21 0 0 0 42 21c0-2.229-.348-4.376-.992-6.391"/><path fill="#F0F0F0" d="m27.54 9.704-2.488-1.147L21 17.732l-4.052-9.175-2.487 1.147L19.49 21l-5.03 11.296 2.487 1.148L21 24.268l4.052 9.176 2.487-1.148L22.51 21z"/><path fill="#F0F0F0" d="M22.689 10.786c-.963-1.051-1.69-1.656-1.69-1.656s-.726.605-1.688 1.656v20.428C20.273 32.265 21 32.87 21 32.87s.726-.605 1.689-1.656z"/><path fill="#A2001D" d="M16.435 14.704v12.592c1.017 1.803 2.262 3.28 3.195 4.26V10.444c-.933.98-2.178 2.457-3.195 4.26M25.565 14.704c-1.018-1.803-2.263-3.28-3.196-4.26v21.112c.933-.98 2.178-2.457 3.196-4.26z"/><path fill="#000" d="M25.565 14.704v12.592c1.03-1.825 1.826-3.983 1.826-6.296s-.796-4.471-1.826-6.296M16.435 14.704v12.592c-1.03-1.825-1.827-3.983-1.827-6.296s.797-4.471 1.826-6.296"/></g><defs><clipPath id="a"><path fill="#fff" d="M0 0h42v42H0z"/></clipPath></defs></svg>