<svg xmlns="http://www.w3.org/2000/svg" width="42" height="42" fill="none" viewBox="0 0 42 42"><g clip-path="url(#a)"><path fill="#FFDA44" d="M0 21c0 3.638.926 7.06 2.553 10.044L21 32.87l18.447-1.826A20.9 20.9 0 0 0 42 21l-21-1.826z"/><path fill="#338AF3" d="M39.447 10.957C35.885 4.429 28.96 0 21 0S6.115 4.429 2.553 10.957A20.9 20.9 0 0 0 0 21h42c0-3.638-.926-7.06-2.553-10.043"/><path fill="#496E2D" d="M21 42c7.96 0 14.885-4.429 18.447-10.956H2.554C6.115 37.57 13.04 42 21 42"/><path fill="#FFDA44" d="m23.74 12.29 2.564 1.207-1.366 2.483 2.785-.532.353 2.813 1.94-2.07 1.94 2.07.353-2.813 2.785.532-1.366-2.484 2.564-1.206-2.564-1.206L35.093 8.6l-2.784.533-.353-2.814-1.94 2.07-1.94-2.07-.353 2.814-2.785-.533 1.366 2.484z"/></g><defs><clipPath id="a"><path fill="#fff" d="M0 0h42v42H0z"/></clipPath></defs></svg>