<svg preserveAspectRatio="none" width="100%" height="100%" overflow="visible" style="display: block;" viewBox="0 0 278 52" fill="none" xmlns="http://www.w3.org/2000/svg">
<g id="objects" clip-path="url(#clip0_327_1507)">
<path id="Vector" d="M269.171 0H8.34566C3.73648 0 0 3.73648 0 8.34566V42.8457C0 47.4549 3.73648 51.1914 8.34566 51.1914H269.171C273.781 51.1914 277.517 47.4549 277.517 42.8457V8.34566C277.517 3.73648 273.781 0 269.171 0Z" fill="var(--fill-0, white)"/>
<path id="Vector_2" d="M56.9135 24.3493L50.3594 30.7395L51.9064 39.7623C52.116 40.989 51.621 42.2051 50.6144 42.9369C50.0451 43.3498 49.3801 43.5593 48.7091 43.5593C48.1929 43.5593 47.6752 43.4348 47.1954 43.1828L39.0926 38.9227L30.9899 43.1828C29.8892 43.7612 28.579 43.6671 27.5709 42.9353C26.5643 42.2036 26.0694 40.9875 26.2789 39.7607L27.8259 30.738L21.2703 24.3478C20.3791 23.4793 20.0648 22.204 20.4489 21.0198C20.833 19.8356 21.8381 18.99 23.0693 18.8108L32.1286 17.4945L36.1792 9.28549C36.7303 8.1696 37.8462 7.47578 39.0896 7.47578C40.333 7.47578 41.4504 8.1696 42 9.28549L46.0522 17.4945L55.1114 18.8108C56.3427 18.99 57.3462 19.8356 57.7318 21.0198C58.116 22.204 57.8017 23.4778 56.9105 24.3478L56.9135 24.3493Z" fill="var(--fill-0, #EDC82B)"/>
<path id="Vector_3" d="M106.746 24.3493L100.192 30.7395L101.739 39.7623C101.949 40.989 101.454 42.2051 100.447 42.9369C99.8777 43.3498 99.2127 43.5593 98.5417 43.5593C98.0255 43.5593 97.5078 43.4348 97.028 43.1828L88.9253 38.9227L80.8225 43.1828C79.7218 43.7612 78.4116 43.6671 77.4035 42.9353C76.3969 42.2036 75.902 40.9875 76.1115 39.7607L77.6586 30.738L71.1029 24.3478C70.2117 23.4793 69.8974 22.204 70.2815 21.0198C70.6656 19.8356 71.6707 18.99 72.902 18.8108L81.9612 17.4945L86.0118 9.28549C86.5629 8.1696 87.6788 7.47578 88.9222 7.47578C90.1657 7.47578 91.2831 8.1696 91.8327 9.28549L95.8848 17.4945L104.944 18.8108C106.175 18.99 107.179 19.8356 107.564 21.0198C107.949 22.204 107.634 23.4778 106.743 24.3478L106.746 24.3493Z" fill="var(--fill-0, #EDC82B)"/>
<path id="Vector_4" d="M156.579 24.3493L150.024 30.7395L151.571 39.7623C151.781 40.989 151.286 42.2051 150.279 42.9369C149.71 43.3498 149.045 43.5593 148.374 43.5593C147.858 43.5593 147.34 43.4348 146.86 43.1828L138.758 38.9227L130.655 43.1828C129.554 43.7612 128.244 43.6671 127.236 42.9353C126.229 42.2036 125.734 40.9875 125.944 39.7607L127.491 30.738L120.935 24.3478C120.044 23.4793 119.73 22.204 120.114 21.0198C120.498 19.8356 121.503 18.99 122.734 18.8108L131.794 17.4945L135.844 9.28549C136.395 8.1696 137.511 7.47578 138.755 7.47578C139.998 7.47578 141.115 8.1696 141.665 9.28549L145.717 17.4945L154.776 18.8108C156.008 18.99 157.011 19.8356 157.397 21.0198C157.781 22.204 157.467 23.4778 156.576 24.3478L156.579 24.3493Z" fill="var(--fill-0, #EDC82B)"/>
<path id="Vector_5" d="M206.411 24.3493L199.857 30.7395L201.404 39.7623C201.614 40.989 201.119 42.2051 200.112 42.9369C199.543 43.3498 198.878 43.5593 198.207 43.5593C197.691 43.5593 197.173 43.4348 196.693 43.1828L188.59 38.9227L180.488 43.1828C179.387 43.7612 178.077 43.6671 177.069 42.9353C176.062 42.2036 175.567 40.9875 175.777 39.7607L177.324 30.738L170.768 24.3478C169.877 23.4793 169.562 22.204 169.947 21.0198C170.331 19.8356 171.336 18.99 172.567 18.8108L181.626 17.4945L185.677 9.28549C186.228 8.1696 187.344 7.47578 188.587 7.47578C189.831 7.47578 190.948 8.1696 191.498 9.28549L195.55 17.4945L204.609 18.8108C205.84 18.99 206.844 19.8356 207.229 21.0198C207.614 22.204 207.299 23.4778 206.408 24.3478L206.411 24.3493Z" fill="var(--fill-0, #EDC82B)"/>
<path id="Vector_6" d="M256.244 24.3493L249.69 30.7395L251.237 39.7623C251.446 40.989 250.951 42.2051 249.945 42.9369C249.375 43.3498 248.71 43.5593 248.039 43.5593C247.523 43.5593 247.005 43.4348 246.526 43.1828L238.423 38.9227L230.32 43.1828C229.219 43.7612 227.909 43.6671 226.901 42.9353C225.895 42.2036 225.4 40.9875 225.609 39.7607L227.156 30.738L220.601 24.3478C219.709 23.4793 219.395 22.204 219.779 21.0198C220.163 19.8356 221.168 18.99 222.4 18.8108L231.459 17.4945L235.509 9.28549C236.061 8.1696 237.176 7.47578 238.42 7.47578C239.663 7.47578 240.781 8.1696 241.33 9.28549L245.382 17.4945L254.442 18.8108C255.673 18.99 256.677 19.8356 257.062 21.0198C257.446 22.204 257.132 23.4778 256.241 24.3478L256.244 24.3493Z" fill="var(--fill-0, #EDC82B)"/>
</g>
<defs>
<clipPath id="clip0_327_1507">
<rect width="277.517" height="51.1914" fill="white"/>
</clipPath>
</defs>
</svg>
